<svg width="114" height="43" viewBox="0 0 114 43" fill="none" xmlns="http://www.w3.org/2000/svg">
<path d="M8.1 32L0.36 10.868H5.4L10.476 24.692L11.304 28.184H11.664L12.132 25.736L16.92 10.868H23.04L28.044 25.736L28.692 28.184H29.052L29.88 24.692L34.596 10.868H39.636L39.276 13.028L31.86 32H25.74L20.844 17.852L20.124 15.548H19.764L19.08 17.852L14.22 32H8.1ZM43.9678 32V10.832H48.7198V32H43.9678ZM61.7875 32C60.0835 32 58.7515 31.76 57.7915 31.28C56.8315 30.8 56.1595 30.08 55.7755 29.12C55.3915 28.16 55.1995 26.972 55.1995 25.556V17.528C55.1995 15.224 55.7155 13.532 56.7475 12.452C57.7795 11.348 59.4595 10.796 61.7875 10.796H72.6235C74.2795 10.796 75.5395 10.892 76.4035 11.084C77.2915 11.252 77.7355 11.432 77.7355 11.624L77.0155 14.612C76.6075 14.54 75.3955 14.468 73.3795 14.396C71.3875 14.3 68.4835 14.252 64.6675 14.252H62.8315C60.9115 14.252 59.9515 15.104 59.9515 16.808V25.988C59.9515 26.804 60.1555 27.44 60.5635 27.896C60.9955 28.328 61.7515 28.544 62.8315 28.544H64.3075C66.6115 28.544 68.5555 28.532 70.1395 28.508C71.7235 28.46 73.0315 28.424 74.0635 28.4V23.504L71.9035 23.54L67.1875 23.9V20.372H78.7795V30.488L79.1395 31.244C79.1395 31.436 78.6355 31.616 77.6275 31.784C76.6195 31.928 74.9155 32 72.5155 32H61.7875Z" fill="white"/>
<path d="M99.1942 41.9033C99.5938 42.4472 100.406 42.4472 100.806 41.9033L110.954 28.0921C111.44 27.4317 110.968 26.5 110.149 26.5H89.8514C89.0319 26.5 88.5603 27.4317 89.0456 28.0921L99.1942 41.9033Z" fill="#BFBFBF"/>
<path d="M99.1942 5.09666C99.5938 4.55284 100.406 4.55284 100.806 5.09666L110.954 18.9079C111.44 19.5683 110.968 20.5 110.149 20.5H89.8514C89.0319 20.5 88.5603 19.5683 89.0456 18.9079L99.1942 5.09666Z" fill="#FFBF00"/>
</svg>
