<?xml version="1.0" encoding="utf-8"?>
<!-- Generator: Adobe Illustrator 24.2.1, SVG Export Plug-In . SVG Version: 6.00 Build 0)  -->
<svg version="1.1" id="Layer_1" xmlns="http://www.w3.org/2000/svg" xmlns:xlink="http://www.w3.org/1999/xlink" x="0px" y="0px"
	 viewBox="0 0 841.9 595.3" style="enable-background:new 0 0 841.9 595.3;" xml:space="preserve">
<g>
	<path d="M184.7,346.7c0.9-0.1,1.8-0.2,2.8-0.4c2.1-0.4,4.2-1.1,6.3-2.1c0.4-0.2,0.8-0.4,1.3-0.7c1.6-0.8,3.2-1.8,4.7-2.9
		c1.9-1.5,3.6-3.3,5-5.3c0.3-0.4,0.5-0.9,0.7-1.3c1.1-1.8,2-3.8,2.7-6c0.9-2.8,1.3-10.3,1.3-13.8l0-27.3c0-1.9-0.2-3.9-0.7-6
		c-0.4-2.1-1.1-4.2-2.1-6.3c-0.8-1.9-1.9-3.6-3.1-5.3c-0.2-0.2-0.3-0.4-0.5-0.7c-1.5-1.9-3.3-3.6-5.3-5c-2.1-1.4-4.5-2.6-7.2-3.5
		c-2.7-0.9-5.8-1.3-9.3-1.3l-1.7,0l-34.6,0c-1.9,0-3.9,0.2-6,0.7c-2.1,0.4-4.3,1.1-6.4,2.1c-2.1,0.9-4.1,2.1-6,3.6
		c-1.9,1.5-3.6,3.3-5.1,5.3c-1.5,2.1-2.6,4.5-3.5,7.2c-0.9,2.7-1.3,5.8-1.3,9.3l0,49.8l0,26.3l0,10.1l20.1,0l0-79.7l0-6.5
		c0-2.6,0.7-4.6,2.1-6c1.4-1.4,3.5-2.1,6.2-2.1l6.1,0l30.1,0c2.6,0,4.6,0.7,6,2c1.4,1.3,2.1,3.4,2.1,6.2l0,27.1
		c0,2.6-0.7,9.1-2,10.5c-1.3,1.4-3.4,2.1-6,2.1l-15.8,0l-14,0l0,7.7l0,12.4l8.4,0l21.5,0C182.5,346.9,183.6,346.8,184.7,346.7z"/>
	<path d="M451.9,314.3l0-25.5l0-1.9c0-2.6,0.7-4.6,2.1-6c1.4-1.4,3.5-2.1,6.2-2.1l32,0l13.3,0l0-19.1l0-1l-45.5,0
		c-1.9,0-3.9,0.2-6,0.7c-2.1,0.4-4.3,1.1-6.4,2.1c-2.1,0.9-4.1,2.1-6,3.6c-1.9,1.5-3.6,3.3-5.1,5.3c-1.5,2.1-2.6,4.5-3.5,7.2
		c-0.9,2.7-1.3,5.8-1.3,9.3l0,37.5l0,13.7l0,8.8l20.1,0L451.9,314.3z"/>
	<path d="M538.3,345.5c3.3,1,6.4,1.5,9.1,1.5l25.3,0l11,0c0.7,0,1.5-0.1,2.3-0.1c1.2-0.1,2.4-0.3,3.7-0.5c0,0,0.1,0,0.1,0
		c2.1-0.4,4.3-1.1,6.4-2.1c2.1-0.9,4.1-2.1,6-3.6c1.9-1.5,3.6-3.3,5-5.3c1.4-2.1,2.6-4.5,3.5-7.3c0.4-1.3,0.7-3.7,1-6.2
		c0.2-2.1,0.3-4.3,0.3-6.1c0-0.6,0-1.1,0-1.5l0-19l0-8.2c0-2.8-0.5-5.9-1.5-9.2c-0.9-2.9-2.3-5.7-4.2-8.2c-0.2-0.3-0.4-0.6-0.7-1
		c-0.9-1.1-1.9-2.1-3-3.1c-1.7-1.5-3.6-2.8-5.8-3.9c-3.6-1.9-8-2.8-13.2-2.8l-36.3,0c-2.8,0-5.8,0.5-9.1,1.5c-3.3,1-6.4,2.6-9.2,4.8
		c-2.8,2.2-5.2,5.2-7.1,8.8c-1.9,3.6-2.8,8-2.8,13.1l0,27.3c0,5.2,0.9,14.1,2.8,17.7c0.6,1.2,1.3,2.3,2.1,3.4c1.2,1.7,2.5,3.2,4,4.6
		c0.3,0.3,0.6,0.6,0.9,0.8C532,342.9,535,344.6,538.3,345.5z M539.4,303.5l0-16.5c0-2.6,0.7-4.6,2.1-6c1.4-1.4,3.4-2.1,6.1-2.1
		l36.2,0c2.6,0,4.6,0.7,6,2c1.1,1,1.7,2.5,2,4.3c0.1,0.6,0.1,1.2,0.1,1.9l0,21.5l0,5.6c0,2.6-0.7,9.1-2,10.5
		c-1.3,1.4-3.4,2.1-6.1,2.1l-1.1,0l-6.7,0l-6.2,0l-11.9,0l-10.3,0c-2.7,0-4.7-0.7-6.1-2.1c-0.5-0.5-0.8-1.5-1.1-2.7
		c-0.6-2.5-0.9-6-0.9-7.7L539.4,303.5z"/>
	<path d="M725.3,339.8l0-43.7c0-4.5-0.6-8.6-1.7-12.2c-1.1-3.6-2.7-6.8-4.6-9.6c-0.1-0.2-0.3-0.4-0.5-0.6c-1.8-2.5-3.9-4.7-6.2-6.5
		c-2.5-1.9-5.1-3.5-7.9-4.8c-1.5-0.7-3-1.2-4.5-1.7c-1.3-0.4-2.6-0.8-3.9-1c-2.8-0.6-5.5-0.9-8-0.9l-26.2,0l-14.6,0l-4,0
		c0,0-0.1,0-0.1,0c-1.3,0-2.6,0.3-3.8,0.8c-1.2,0.5-2.3,1.2-3.3,2.1c-0.9,0.9-1.7,2-2.2,3.2c-0.5,1.2-0.8,2.5-0.8,3.9v0l0,11.6
		l0,24.8l0,27.6l0,14.1l12.5,0l5.1,0l2.5,0l0-2.1l0-4.8l0-24.4l0-36.8l34.7,0c2.4,0,4.7,0.4,6.8,1.2c0,0,0.1,0,0.1,0.1
		c2,0.8,3.8,1.9,5.3,3.4c1.5,1.5,2.8,3.3,3.7,5.4c0.9,2.1,1.4,4.5,1.4,7.1l0,8.2l0,4l0,20.2l0,18.5l12.5,0l7.6,0l0-1.1l0-4.8
		L725.3,339.8z"/>
	<path d="M406.4,341.2l0-14.3l-14.1,0l-5.9,0c-2.6,0-4.6-0.7-6-2.1c-1.4-1.4-2.1-7.9-2.1-10.6l0-34.3l35.4,0l0-20.1l-18.1,0l-17,0
		l0-11.6l0-26.1l-20.4,10.3l0,27.3l-26.2,0l0,11.9l0,8.2l11.6,0l14.6,0l0,34.5c0,1.9,0.2,8.3,0.7,10.4c0.4,2.1,1.1,4.3,2.1,6.4
		c0.8,1.7,1.8,3.4,2.9,5c0.2,0.3,0.4,0.7,0.7,1c1.5,1.9,3.3,3.6,5.3,5.1c2.1,1.5,4.5,2.6,7.2,3.5c1,0.3,2,0.5,3,0.7
		c2,0.4,4,0.6,6.3,0.6l20,0L406.4,341.2z"/>
	<path d="M317.4,319.6l0-33.1c0-15.3-12.4-27.7-27.7-27.7l-44.4,0l0,19.1l44.4,0c4.7,0,8.6,3.8,8.6,8.6l0,33.1
		c0,4.7-3.8,8.6-8.6,8.6l-36.9,0c-4.5,0-8.2-3.7-8.2-8.2c0-4.5,3.7-8.2,8.2-8.2l14.4,0l16.2,0l0-17.7l0-1.4l-30.6,0
		c-12.6,0-23.2,8.5-26.3,20.1c-0.6,2.3-1,4.7-1,7.2c0,6.7,2.5,12.9,6.5,17.7c5,5.9,12.5,9.7,20.8,9.7l36.9,0
		C305,347.3,317.4,334.9,317.4,319.6z"/>
</g>
</svg>
