<svg width="1317" height="367" viewBox="0 0 1317 367" fill="none" xmlns="http://www.w3.org/2000/svg">
<path d="M160.1 283.8C161.3 285.4 163.7 285.4 164.9 283.8L262.4 153.8C263.883 151.822 262.472 149 260 149H65C62.5279 149 61.1167 151.822 62.6 153.8L160.1 283.8Z" fill="#BFBFBF" fill-opacity="0.7"/>
<path d="M159.603 6.18724C160.803 4.59175 163.197 4.59175 164.397 6.18724L257.114 129.447C258.601 131.424 257.19 134.25 254.716 134.25H69.2837C66.8096 134.25 65.399 131.424 66.8862 129.447L159.603 6.18724Z" fill="#FFBF00" fill-opacity="0.9"/>
<line x1="233" y1="234.75" x2="330" y2="234.75" stroke="#434242" stroke-width="0.5"/>
<path d="M329.5 234.5L329.5 172" stroke="#434242" stroke-width="0.5"/>
<line x1="329" y1="172.75" x2="395" y2="172.75" stroke="#434242" stroke-width="0.5"/>
<line x1="395.75" y1="173" x2="395.75" y2="117" stroke="#434242" stroke-width="0.5"/>
<line x1="396" y1="117.75" x2="460" y2="117.75" stroke="#434242" stroke-width="0.5"/>
<line x1="461" y1="62.75" x2="527" y2="62.75" stroke="#434242" stroke-width="0.5"/>
<line x1="460.75" y1="118" x2="460.75" y2="62" stroke="#434242" stroke-width="0.5"/>
<line x1="526.75" y1="62" x2="526.75" y2="23" stroke="#434242" stroke-width="0.5"/>
<line x1="526" y1="23.75" x2="657" y2="23.75" stroke="#434242" stroke-width="0.5"/>
<mask id="mask0_1381_290" style="mask-type:alpha" maskUnits="userSpaceOnUse" x="329" y="7" width="390" height="220">
<path opacity="0.97" d="M457.687 62H523.504L522.522 7H587.357H718.23L718.5 226.5L329 227V172H393.835V117H457.687V62Z" fill="#C4C4C4"/>
</mask>
<g mask="url(#mask0_1381_290)">
<path d="M195.76 217.089C192.163 217.089 189.351 216.582 187.324 215.569C185.298 214.556 183.879 213.036 183.068 211.009C182.258 208.982 181.852 206.474 181.852 203.485V186.537C181.852 181.673 182.942 178.101 185.12 175.821C187.299 173.49 190.846 172.325 195.76 172.325H218.636C222.132 172.325 224.792 172.528 226.616 172.933C228.491 173.288 229.428 173.668 229.428 174.073L227.908 180.381C227.047 180.229 224.488 180.077 220.232 179.925C216.027 179.722 209.896 179.621 201.84 179.621H197.964C193.911 179.621 191.884 181.42 191.884 185.017V204.397C191.884 206.12 192.315 207.462 193.176 208.425C194.088 209.337 195.684 209.793 197.964 209.793H201.08C205.944 209.793 210.048 209.768 213.392 209.717C216.736 209.616 219.498 209.54 221.676 209.489V199.153L217.116 199.229L207.16 199.989V192.541H231.632V213.897L232.392 215.493C232.392 215.898 231.328 216.278 229.2 216.633C227.072 216.937 223.475 217.089 218.408 217.089H195.76ZM291.59 217.849C289.564 217.849 287.562 217.545 285.586 216.937C283.661 216.278 281.457 214.708 278.974 212.225L273.502 206.753C271.273 204.473 268.816 202.801 266.13 201.737C263.496 200.673 260.177 200.141 256.174 200.141H253.818V217.089H243.786V178.481L243.026 172.325H276.694C279.937 172.325 282.47 172.756 284.294 173.617C286.169 174.478 287.537 175.618 288.398 177.037C289.31 178.405 289.893 179.874 290.146 181.445C290.4 183.016 290.526 184.51 290.526 185.929V187.373C290.526 188.488 290.374 189.729 290.07 191.097C289.766 192.465 289.184 193.808 288.322 195.125C287.461 196.442 286.22 197.557 284.598 198.469C283.028 199.381 280.95 199.913 278.366 200.065C279.025 200.42 279.861 200.977 280.874 201.737C281.888 202.446 282.926 203.232 283.99 204.093C285.105 204.954 286.118 205.74 287.03 206.449C287.942 207.158 288.652 207.665 289.158 207.969C290.982 209.033 292.604 209.768 294.022 210.173C295.441 210.578 296.606 210.806 297.518 210.857C298.43 210.908 298.962 210.933 299.114 210.933L297.594 217.089C297.138 217.241 296.378 217.393 295.314 217.545C294.25 217.748 293.009 217.849 291.59 217.849ZM265.218 193.225C267.144 193.225 268.866 193.2 270.386 193.149C271.906 193.048 273.274 192.946 274.49 192.845C276.72 192.592 278.265 191.984 279.126 191.021C280.038 190.008 280.494 188.716 280.494 187.145V185.397C280.494 183.776 280.064 182.408 279.202 181.293C278.341 180.178 276.796 179.621 274.566 179.621H253.818V192.845C256.048 192.997 258.1 193.098 259.974 193.149C261.849 193.2 263.597 193.225 265.218 193.225ZM319.112 217.089C315.565 217.089 312.778 216.582 310.752 215.569C308.725 214.556 307.281 213.036 306.42 211.009C305.609 208.982 305.204 206.474 305.204 203.485V185.929C305.204 182.99 305.609 180.533 306.42 178.557C307.23 176.53 308.649 175.01 310.676 173.997C312.702 172.933 315.514 172.401 319.112 172.401H341.304C344.85 172.401 347.612 172.933 349.588 173.997C351.614 175.01 353.033 176.53 353.844 178.557C354.705 180.533 355.136 182.99 355.136 185.929V203.485C355.136 207.944 354.148 211.338 352.172 213.669C350.196 215.949 346.573 217.089 341.304 217.089H319.112ZM321.316 209.793H339.176C341.05 209.793 342.494 209.312 343.508 208.349C344.572 207.386 345.104 206.069 345.104 204.397V185.017C345.104 183.548 344.572 182.306 343.508 181.293C342.444 180.229 341 179.697 339.176 179.697H321.316C319.492 179.697 318.022 180.178 316.908 181.141C315.793 182.104 315.236 183.396 315.236 185.017V204.397C315.236 206.12 315.768 207.462 316.832 208.425C317.946 209.337 319.441 209.793 321.316 209.793ZM377.774 217.849C373.164 217.849 369.946 216.608 368.122 214.125C366.298 211.642 365.386 208.349 365.386 204.245V172.401H375.418V204.549C375.418 206.93 376.001 208.526 377.166 209.337C378.332 210.148 379.776 210.553 381.498 210.553H397.61C399.232 210.553 400.65 210.148 401.866 209.337C403.082 208.476 403.69 206.88 403.69 204.549V172.401H413.722V204.245C413.722 206.981 413.342 209.362 412.582 211.389C411.822 213.416 410.556 215.012 408.782 216.177C407.009 217.292 404.552 217.849 401.41 217.849H377.774ZM425.474 217.089V178.481L424.714 172.325H458.382C461.624 172.325 464.158 172.756 465.982 173.617C467.856 174.478 469.224 175.618 470.086 177.037C470.998 178.405 471.58 179.874 471.834 181.445C472.087 183.016 472.214 184.51 472.214 185.929V190.413C472.214 191.578 472.036 192.896 471.682 194.365C471.327 195.784 470.668 197.177 469.706 198.545C468.743 199.862 467.35 200.977 465.526 201.889C463.702 202.75 461.32 203.181 458.382 203.181H450.63C447.438 203.181 444.448 203.105 441.662 202.953C438.926 202.801 436.874 202.674 435.506 202.573V217.089H425.474ZM435.506 195.885H456.178C458.458 195.885 460.028 195.328 460.89 194.213C461.751 193.098 462.182 191.756 462.182 190.185V185.397C462.182 183.776 461.751 182.408 460.89 181.293C460.028 180.178 458.483 179.621 456.254 179.621H435.506V195.885Z" fill="#434242"/>
</g>
<mask id="mask1_1381_290" style="mask-type:alpha" maskUnits="userSpaceOnUse" x="0" y="0" width="515" height="223">
<path opacity="0.97" d="M257 222H0.5V1H514.5V55H449.885H449.385V55.5V110H385.757H385.257V110.5V165H319.655H319.165L319.155 165.49L318.01 222H257Z" fill="#C4C4C4" stroke="black"/>
</mask>
<g mask="url(#mask1_1381_290)">
<path d="M195.228 217C191.631 217 188.819 216.493 186.792 215.48C184.765 214.467 183.347 212.947 182.536 210.92C181.725 208.893 181.32 206.385 181.32 203.396V186.448C181.32 181.584 182.409 178.012 184.588 175.732C186.767 173.401 190.313 172.236 195.228 172.236H218.104C221.6 172.236 224.26 172.439 226.084 172.844C227.959 173.199 228.896 173.579 228.896 173.984L227.376 180.292C226.515 180.14 223.956 179.988 219.7 179.836C215.495 179.633 209.364 179.532 201.308 179.532H197.432C193.379 179.532 191.352 181.331 191.352 184.928V204.308C191.352 206.031 191.783 207.373 192.644 208.336C193.556 209.248 195.152 209.704 197.432 209.704H200.548C205.412 209.704 209.516 209.679 212.86 209.628C216.204 209.527 218.965 209.451 221.144 209.4V199.064L216.584 199.14L206.628 199.9V192.452H231.1V213.808L231.86 215.404C231.86 215.809 230.796 216.189 228.668 216.544C226.54 216.848 222.943 217 217.876 217H195.228ZM291.058 217.76C289.031 217.76 287.03 217.456 285.054 216.848C283.129 216.189 280.925 214.619 278.442 212.136L272.97 206.664C270.741 204.384 268.283 202.712 265.598 201.648C262.963 200.584 259.645 200.052 255.642 200.052H253.286V217H243.254V178.392L242.494 172.236H276.162C279.405 172.236 281.938 172.667 283.762 173.528C285.637 174.389 287.005 175.529 287.866 176.948C288.778 178.316 289.361 179.785 289.614 181.356C289.867 182.927 289.994 184.421 289.994 185.84V187.284C289.994 188.399 289.842 189.64 289.538 191.008C289.234 192.376 288.651 193.719 287.79 195.036C286.929 196.353 285.687 197.468 284.066 198.38C282.495 199.292 280.418 199.824 277.834 199.976C278.493 200.331 279.329 200.888 280.342 201.648C281.355 202.357 282.394 203.143 283.458 204.004C284.573 204.865 285.586 205.651 286.498 206.36C287.41 207.069 288.119 207.576 288.626 207.88C290.45 208.944 292.071 209.679 293.49 210.084C294.909 210.489 296.074 210.717 296.986 210.768C297.898 210.819 298.43 210.844 298.582 210.844L297.062 217C296.606 217.152 295.846 217.304 294.782 217.456C293.718 217.659 292.477 217.76 291.058 217.76ZM264.686 193.136C266.611 193.136 268.334 193.111 269.854 193.06C271.374 192.959 272.742 192.857 273.958 192.756C276.187 192.503 277.733 191.895 278.594 190.932C279.506 189.919 279.962 188.627 279.962 187.056V185.308C279.962 183.687 279.531 182.319 278.67 181.204C277.809 180.089 276.263 179.532 274.034 179.532H253.286V192.756C255.515 192.908 257.567 193.009 259.442 193.06C261.317 193.111 263.065 193.136 264.686 193.136ZM318.58 217C315.033 217 312.246 216.493 310.22 215.48C308.193 214.467 306.749 212.947 305.888 210.92C305.077 208.893 304.672 206.385 304.672 203.396V185.84C304.672 182.901 305.077 180.444 305.888 178.468C306.698 176.441 308.117 174.921 310.144 173.908C312.17 172.844 314.982 172.312 318.58 172.312H340.772C344.318 172.312 347.08 172.844 349.056 173.908C351.082 174.921 352.501 176.441 353.312 178.468C354.173 180.444 354.604 182.901 354.604 185.84V203.396C354.604 207.855 353.616 211.249 351.64 213.58C349.664 215.86 346.041 217 340.772 217H318.58ZM320.784 209.704H338.644C340.518 209.704 341.962 209.223 342.976 208.26C344.04 207.297 344.572 205.98 344.572 204.308V184.928C344.572 183.459 344.04 182.217 342.976 181.204C341.912 180.14 340.468 179.608 338.644 179.608H320.784C318.96 179.608 317.49 180.089 316.376 181.052C315.261 182.015 314.704 183.307 314.704 184.928V204.308C314.704 206.031 315.236 207.373 316.3 208.336C317.414 209.248 318.909 209.704 320.784 209.704ZM377.242 217.76C372.631 217.76 369.414 216.519 367.59 214.036C365.766 211.553 364.854 208.26 364.854 204.156V172.312H374.886V204.46C374.886 206.841 375.469 208.437 376.634 209.248C377.799 210.059 379.243 210.464 380.966 210.464H397.078C398.699 210.464 400.118 210.059 401.334 209.248C402.55 208.387 403.158 206.791 403.158 204.46V172.312H413.19V204.156C413.19 206.892 412.81 209.273 412.05 211.3C411.29 213.327 410.023 214.923 408.25 216.088C406.477 217.203 404.019 217.76 400.878 217.76H377.242ZM424.942 217V178.392L424.182 172.236H457.85C461.092 172.236 463.626 172.667 465.45 173.528C467.324 174.389 468.692 175.529 469.554 176.948C470.466 178.316 471.048 179.785 471.302 181.356C471.555 182.927 471.682 184.421 471.682 185.84V190.324C471.682 191.489 471.504 192.807 471.15 194.276C470.795 195.695 470.136 197.088 469.174 198.456C468.211 199.773 466.818 200.888 464.994 201.8C463.17 202.661 460.788 203.092 457.85 203.092H450.098C446.906 203.092 443.916 203.016 441.13 202.864C438.394 202.712 436.342 202.585 434.974 202.484V217H424.942ZM434.974 195.796H455.646C457.926 195.796 459.496 195.239 460.358 194.124C461.219 193.009 461.65 191.667 461.65 190.096V185.308C461.65 183.687 461.219 182.319 460.358 181.204C459.496 180.089 457.951 179.532 455.722 179.532H434.974V195.796Z" fill="#434242"/>
</g>
<mask id="mask2_1381_290" style="mask-type:alpha" maskUnits="userSpaceOnUse" x="0" y="0" width="515" height="222">
<path opacity="0.97" d="M253.5 221H0.5V0.5H514.5V54.5H449.885H449.385V55V109.5H385.757H385.257V110V164.5H319.655H319.17L319.155 164.985L317.514 221H253.5Z" fill="#C4C4C4" stroke="black"/>
</mask>
<g mask="url(#mask2_1381_290)">
<path d="M290.752 127.781V130.076H283.682V127.781H290.752ZM292.842 127.781V142H289.912V127.781H292.842ZM283.311 127.781H286.23L285.869 134.92C285.817 135.988 285.716 136.915 285.566 137.703C285.423 138.491 285.228 139.161 284.98 139.715C284.733 140.262 284.427 140.704 284.062 141.043C283.704 141.375 283.281 141.619 282.793 141.775C282.305 141.925 281.748 142 281.123 142H280.4V139.715L280.771 139.686C281.09 139.653 281.37 139.568 281.611 139.432C281.852 139.295 282.057 139.09 282.227 138.816C282.402 138.543 282.546 138.195 282.656 137.771C282.773 137.342 282.865 136.818 282.93 136.199C283.001 135.581 283.05 134.858 283.076 134.031L283.311 127.781ZM308.806 127.781V142H305.886V127.781H308.806ZM327.202 129.061H330.366C331.212 129.061 331.993 129.201 332.709 129.48C333.426 129.754 334.047 130.151 334.575 130.672C335.108 131.186 335.522 131.808 335.815 132.537C336.108 133.26 336.254 134.067 336.254 134.959C336.254 135.831 336.108 136.626 335.815 137.342C335.522 138.051 335.108 138.66 334.575 139.168C334.047 139.676 333.426 140.066 332.709 140.34C331.993 140.613 331.212 140.75 330.366 140.75H327.202C326.349 140.75 325.564 140.613 324.848 140.34C324.132 140.066 323.507 139.679 322.973 139.178C322.439 138.67 322.023 138.061 321.723 137.352C321.43 136.642 321.284 135.851 321.284 134.979C321.284 134.087 321.43 133.279 321.723 132.557C322.023 131.827 322.439 131.202 322.973 130.682C323.507 130.161 324.132 129.76 324.848 129.48C325.564 129.201 326.349 129.061 327.202 129.061ZM327.202 131.404C326.577 131.404 326.026 131.541 325.551 131.814C325.076 132.088 324.708 132.492 324.448 133.025C324.187 133.553 324.057 134.204 324.057 134.979C324.057 135.538 324.132 136.033 324.282 136.463C324.438 136.886 324.656 137.241 324.936 137.527C325.216 137.814 325.548 138.032 325.932 138.182C326.316 138.331 326.739 138.406 327.202 138.406H330.385C331.004 138.406 331.544 138.273 332.006 138.006C332.475 137.739 332.84 137.348 333.1 136.834C333.36 136.32 333.491 135.695 333.491 134.959C333.491 134.38 333.416 133.868 333.266 133.426C333.116 132.983 332.905 132.612 332.631 132.312C332.358 132.013 332.029 131.788 331.645 131.639C331.267 131.482 330.847 131.404 330.385 131.404H327.202ZM330.19 127.195V142.586H327.377V127.195H330.19ZM354.836 127.781V142H351.916V127.781H354.836ZM359.211 127.781V130.076H347.609V127.781H359.211ZM374.003 137.391L379.716 127.781H382.645V142H379.716V132.391L374.003 142H371.073V127.781H374.003V137.391ZM416.136 134.793V137H410.618V134.793H416.136ZM453.777 139.715V142H446.209V139.715H453.777ZM447.166 127.781V142H444.236V127.781H447.166ZM452.791 133.572V135.799H446.209V133.572H452.791ZM453.767 127.781V130.076H446.209V127.781H453.767ZM468.725 127.781V142H465.796V127.781H468.725ZM477.104 127.781L471.655 136.131H468.071L467.7 133.523H470.093L473.55 127.781H477.104ZM474.087 142L470.102 135.643L472.134 133.553L477.563 142H474.087ZM496.945 137.283H499.865C499.807 138.24 499.543 139.09 499.074 139.832C498.612 140.574 497.964 141.154 497.131 141.57C496.304 141.987 495.308 142.195 494.143 142.195C493.231 142.195 492.414 142.039 491.691 141.727C490.969 141.408 490.35 140.952 489.836 140.359C489.328 139.767 488.941 139.051 488.674 138.211C488.407 137.371 488.273 136.43 488.273 135.389V134.402C488.273 133.361 488.41 132.42 488.684 131.58C488.964 130.734 489.361 130.014 489.875 129.422C490.396 128.829 491.018 128.374 491.74 128.055C492.463 127.736 493.27 127.576 494.162 127.576C495.347 127.576 496.346 127.791 497.16 128.221C497.98 128.65 498.615 129.243 499.064 129.998C499.52 130.753 499.794 131.613 499.885 132.576H496.955C496.923 132.003 496.809 131.518 496.613 131.121C496.418 130.717 496.122 130.415 495.725 130.213C495.334 130.005 494.813 129.9 494.162 129.9C493.674 129.9 493.247 129.992 492.883 130.174C492.518 130.356 492.212 130.633 491.965 131.004C491.717 131.375 491.532 131.844 491.408 132.41C491.291 132.97 491.232 133.628 491.232 134.383V135.389C491.232 136.124 491.288 136.772 491.398 137.332C491.509 137.885 491.678 138.354 491.906 138.738C492.141 139.116 492.44 139.402 492.805 139.598C493.176 139.786 493.622 139.881 494.143 139.881C494.755 139.881 495.259 139.783 495.656 139.588C496.053 139.393 496.356 139.103 496.564 138.719C496.779 138.335 496.906 137.856 496.945 137.283ZM517.87 130.213L514.003 142H510.888L516.171 127.781H518.154L517.87 130.213ZM521.083 142L517.206 130.213L516.894 127.781H518.896L524.208 142H521.083ZM520.907 136.707V139.002H513.398V136.707H520.907ZM545.485 127.781V130.076H538.414V127.781H545.485ZM547.575 127.781V142H544.645V127.781H547.575ZM538.043 127.781H540.963L540.602 134.92C540.55 135.988 540.449 136.915 540.299 137.703C540.156 138.491 539.961 139.161 539.713 139.715C539.466 140.262 539.16 140.704 538.795 141.043C538.437 141.375 538.014 141.619 537.526 141.775C537.038 141.925 536.481 142 535.856 142H535.133V139.715L535.504 139.686C535.823 139.653 536.103 139.568 536.344 139.432C536.585 139.295 536.79 139.09 536.959 138.816C537.135 138.543 537.278 138.195 537.389 137.771C537.506 137.342 537.597 136.818 537.663 136.199C537.734 135.581 537.783 134.858 537.809 134.031L538.043 127.781ZM566.38 130.213L562.513 142H559.398L564.681 127.781H566.664L566.38 130.213ZM569.593 142L565.716 130.213L565.404 127.781H567.406L572.718 142H569.593ZM569.418 136.707V139.002H561.908V136.707H569.418ZM589.483 127.781V142H586.563V127.781H589.483ZM593.858 127.781V130.076H582.257V127.781H593.858ZM617.234 134.559V135.232C617.234 136.313 617.088 137.283 616.795 138.143C616.502 139.002 616.089 139.734 615.555 140.34C615.021 140.939 614.383 141.398 613.641 141.717C612.905 142.036 612.088 142.195 611.189 142.195C610.298 142.195 609.48 142.036 608.738 141.717C608.003 141.398 607.365 140.939 606.824 140.34C606.284 139.734 605.864 139.002 605.564 138.143C605.271 137.283 605.125 136.313 605.125 135.232V134.559C605.125 133.471 605.271 132.501 605.564 131.648C605.857 130.789 606.271 130.057 606.805 129.451C607.345 128.846 607.983 128.383 608.719 128.064C609.461 127.745 610.278 127.586 611.17 127.586C612.068 127.586 612.885 127.745 613.621 128.064C614.363 128.383 615.001 128.846 615.535 129.451C616.076 130.057 616.492 130.789 616.785 131.648C617.085 132.501 617.234 133.471 617.234 134.559ZM614.275 135.232V134.539C614.275 133.784 614.207 133.12 614.07 132.547C613.934 131.974 613.732 131.492 613.465 131.102C613.198 130.711 612.872 130.418 612.488 130.223C612.104 130.021 611.665 129.92 611.17 129.92C610.675 129.92 610.236 130.021 609.852 130.223C609.474 130.418 609.152 130.711 608.885 131.102C608.624 131.492 608.426 131.974 608.289 132.547C608.152 133.12 608.084 133.784 608.084 134.539V135.232C608.084 135.981 608.152 136.645 608.289 137.225C608.426 137.798 608.628 138.283 608.895 138.68C609.161 139.07 609.487 139.367 609.871 139.568C610.255 139.77 610.695 139.871 611.189 139.871C611.684 139.871 612.124 139.77 612.508 139.568C612.892 139.367 613.214 139.07 613.475 138.68C613.735 138.283 613.934 137.798 614.07 137.225C614.207 136.645 614.275 135.981 614.275 135.232ZM635.181 136.932H631.558V134.646H635.181C635.741 134.646 636.196 134.555 636.548 134.373C636.9 134.184 637.157 133.924 637.32 133.592C637.482 133.26 637.564 132.885 637.564 132.469C637.564 132.046 637.482 131.652 637.32 131.287C637.157 130.923 636.9 130.63 636.548 130.408C636.196 130.187 635.741 130.076 635.181 130.076H632.573V142H629.644V127.781H635.181C636.294 127.781 637.248 127.983 638.042 128.387C638.843 128.784 639.455 129.334 639.878 130.037C640.301 130.74 640.513 131.544 640.513 132.449C640.513 133.367 640.301 134.161 639.878 134.832C639.455 135.503 638.843 136.02 638.042 136.385C637.248 136.749 636.294 136.932 635.181 136.932ZM655.657 137.391L661.37 127.781H664.299V142H661.37V132.391L655.657 142H652.727V127.781H655.657V137.391ZM697.79 134.793V137H692.272V134.793H697.79ZM727.228 127.781H729.708L733.361 138.221L737.013 127.781H739.493L734.357 142H732.364L727.228 127.781ZM725.89 127.781H728.361L728.81 137.957V142H725.89V127.781ZM738.361 127.781H740.841V142H737.911V137.957L738.361 127.781ZM765.389 134.559V135.232C765.389 136.313 765.243 137.283 764.95 138.143C764.657 139.002 764.243 139.734 763.709 140.34C763.176 140.939 762.538 141.398 761.795 141.717C761.06 142.036 760.243 142.195 759.344 142.195C758.452 142.195 757.635 142.036 756.893 141.717C756.157 141.398 755.519 140.939 754.979 140.34C754.439 139.734 754.019 139.002 753.719 138.143C753.426 137.283 753.28 136.313 753.28 135.232V134.559C753.28 133.471 753.426 132.501 753.719 131.648C754.012 130.789 754.426 130.057 754.959 129.451C755.5 128.846 756.138 128.383 756.873 128.064C757.616 127.745 758.433 127.586 759.325 127.586C760.223 127.586 761.04 127.745 761.776 128.064C762.518 128.383 763.156 128.846 763.69 129.451C764.23 130.057 764.647 130.789 764.94 131.648C765.239 132.501 765.389 133.471 765.389 134.559ZM762.43 135.232V134.539C762.43 133.784 762.362 133.12 762.225 132.547C762.088 131.974 761.886 131.492 761.62 131.102C761.353 130.711 761.027 130.418 760.643 130.223C760.259 130.021 759.819 129.92 759.325 129.92C758.83 129.92 758.39 130.021 758.006 130.223C757.629 130.418 757.306 130.711 757.039 131.102C756.779 131.492 756.58 131.974 756.444 132.547C756.307 133.12 756.239 133.784 756.239 134.539V135.232C756.239 135.981 756.307 136.645 756.444 137.225C756.58 137.798 756.782 138.283 757.049 138.68C757.316 139.07 757.642 139.367 758.026 139.568C758.41 139.77 758.849 139.871 759.344 139.871C759.839 139.871 760.278 139.77 760.663 139.568C761.047 139.367 761.369 139.07 761.629 138.68C761.89 138.283 762.088 137.798 762.225 137.225C762.362 136.645 762.43 135.981 762.43 135.232ZM787.281 133.572V135.857H779.859V133.572H787.281ZM780.728 127.781V142H777.798V127.781H780.728ZM789.371 127.781V142H786.451V127.781H789.371ZM808.284 127.781V142H805.364V127.781H808.284ZM812.659 127.781V130.076H801.057V127.781H812.659ZM829.355 130.213L825.488 142H822.373L827.656 127.781H829.639L829.355 130.213ZM832.568 142L828.691 130.213L828.379 127.781H830.381L835.693 142H832.568ZM832.393 136.707V139.002H824.883V136.707H832.393ZM851.833 136.141L846.413 127.781H850.056L853.239 133.543H855.71L855.329 136.141H851.833ZM853.22 135.691L849.851 142H846.198L850.857 133.992L853.22 135.691ZM857.624 127.781V142H854.714V127.781H857.624ZM865.808 127.781L860.466 136.141H856.989L856.609 133.543H859.06L862.165 127.781H865.808ZM862.37 142L859.079 135.691L861.452 133.992L866.023 142H862.37ZM898.263 134.793V137H892.746V134.793H898.263ZM938.043 134.559V135.232C938.043 136.313 937.896 137.283 937.604 138.143C937.311 139.002 936.897 139.734 936.363 140.34C935.829 140.939 935.191 141.398 934.449 141.717C933.714 142.036 932.896 142.195 931.998 142.195C931.106 142.195 930.289 142.036 929.547 141.717C928.811 141.398 928.173 140.939 927.633 140.34C927.092 139.734 926.673 139.002 926.373 138.143C926.08 137.283 925.934 136.313 925.934 135.232V134.559C925.934 133.471 926.08 132.501 926.373 131.648C926.666 130.789 927.079 130.057 927.613 129.451C928.154 128.846 928.792 128.383 929.527 128.064C930.27 127.745 931.087 127.586 931.979 127.586C932.877 127.586 933.694 127.745 934.43 128.064C935.172 128.383 935.81 128.846 936.344 129.451C936.884 130.057 937.301 130.789 937.594 131.648C937.893 132.501 938.043 133.471 938.043 134.559ZM935.084 135.232V134.539C935.084 133.784 935.016 133.12 934.879 132.547C934.742 131.974 934.54 131.492 934.273 131.102C934.007 130.711 933.681 130.418 933.297 130.223C932.913 130.021 932.473 129.92 931.979 129.92C931.484 129.92 931.044 130.021 930.66 130.223C930.283 130.418 929.96 130.711 929.693 131.102C929.433 131.492 929.234 131.974 929.098 132.547C928.961 133.12 928.893 133.784 928.893 134.539V135.232C928.893 135.981 928.961 136.645 929.098 137.225C929.234 137.798 929.436 138.283 929.703 138.68C929.97 139.07 930.296 139.367 930.68 139.568C931.064 139.77 931.503 139.871 931.998 139.871C932.493 139.871 932.932 139.77 933.316 139.568C933.701 139.367 934.023 139.07 934.283 138.68C934.544 138.283 934.742 137.798 934.879 137.225C935.016 136.645 935.084 135.981 935.084 135.232ZM959.749 127.781V130.076H953.353V142H950.433V127.781H959.749ZM952.347 132.967H955.667C956.787 132.967 957.751 133.152 958.558 133.523C959.365 133.895 959.987 134.415 960.423 135.086C960.859 135.757 961.077 136.538 961.077 137.43C961.077 138.107 960.954 138.725 960.706 139.285C960.459 139.839 960.098 140.32 959.622 140.73C959.154 141.134 958.587 141.447 957.923 141.668C957.259 141.889 956.507 142 955.667 142H950.433V127.781H953.372V139.715H955.667C956.227 139.715 956.689 139.611 957.054 139.402C957.418 139.194 957.692 138.917 957.874 138.572C958.063 138.221 958.157 137.833 958.157 137.41C958.157 137.007 958.063 136.642 957.874 136.316C957.692 135.984 957.418 135.724 957.054 135.535C956.689 135.346 956.227 135.252 955.667 135.252H952.347V132.967ZM981.534 137.283H984.453C984.395 138.24 984.131 139.09 983.662 139.832C983.2 140.574 982.552 141.154 981.719 141.57C980.892 141.987 979.896 142.195 978.731 142.195C977.819 142.195 977.002 142.039 976.28 141.727C975.557 141.408 974.939 140.952 974.424 140.359C973.916 139.767 973.529 139.051 973.262 138.211C972.995 137.371 972.862 136.43 972.862 135.389V134.402C972.862 133.361 972.998 132.42 973.272 131.58C973.552 130.734 973.949 130.014 974.463 129.422C974.984 128.829 975.606 128.374 976.328 128.055C977.051 127.736 977.858 127.576 978.75 127.576C979.935 127.576 980.935 127.791 981.748 128.221C982.569 128.65 983.203 129.243 983.653 129.998C984.108 130.753 984.382 131.613 984.473 132.576H981.543C981.511 132.003 981.397 131.518 981.202 131.121C981.006 130.717 980.71 130.415 980.313 130.213C979.922 130.005 979.401 129.9 978.75 129.9C978.262 129.9 977.836 129.992 977.471 130.174C977.106 130.356 976.8 130.633 976.553 131.004C976.306 131.375 976.12 131.844 975.996 132.41C975.879 132.97 975.821 133.628 975.821 134.383V135.389C975.821 136.124 975.876 136.772 975.987 137.332C976.097 137.885 976.267 138.354 976.495 138.738C976.729 139.116 977.028 139.402 977.393 139.598C977.764 139.786 978.21 139.881 978.731 139.881C979.343 139.881 979.847 139.783 980.245 139.588C980.642 139.393 980.944 139.103 981.153 138.719C981.368 138.335 981.495 137.856 981.534 137.283ZM1006.16 127.781V130.076H999.089V127.781H1006.16ZM1008.25 127.781V142H1005.32V127.781H1008.25ZM998.718 127.781H1001.64L1001.28 134.92C1001.22 135.988 1001.12 136.915 1000.97 137.703C1000.83 138.491 1000.64 139.161 1000.39 139.715C1000.14 140.262 999.835 140.704 999.47 141.043C999.112 141.375 998.689 141.619 998.201 141.775C997.713 141.925 997.156 142 996.531 142H995.808V139.715L996.179 139.686C996.498 139.653 996.778 139.568 997.019 139.432C997.26 139.295 997.465 139.09 997.634 138.816C997.81 138.543 997.953 138.195 998.064 137.771C998.181 137.342 998.272 136.818 998.338 136.199C998.409 135.581 998.458 134.858 998.484 134.031L998.718 127.781ZM1025.56 136.844L1029.06 127.781H1032.21L1027.34 139.246C1027.17 139.637 1026.97 140.011 1026.75 140.369C1026.54 140.721 1026.28 141.036 1025.98 141.316C1025.68 141.59 1025.32 141.808 1024.91 141.971C1024.49 142.127 1023.99 142.205 1023.41 142.205C1023.27 142.205 1023.09 142.202 1022.89 142.195C1022.68 142.189 1022.51 142.179 1022.39 142.166L1022.37 139.881C1022.45 139.9 1022.57 139.913 1022.74 139.92C1022.91 139.92 1023.03 139.92 1023.11 139.92C1023.49 139.92 1023.8 139.865 1024.02 139.754C1024.24 139.643 1024.42 139.487 1024.55 139.285C1024.68 139.077 1024.8 138.833 1024.91 138.553L1025.56 136.844ZM1023.25 127.781L1026.49 134.822L1027.4 138.055L1025.22 138.094L1020.1 127.781H1023.25ZM1053.37 127.781V130.076H1046.96V142H1044.04V127.781H1053.37ZM1076.5 134.559V135.232C1076.5 136.313 1076.36 137.283 1076.06 138.143C1075.77 139.002 1075.36 139.734 1074.82 140.34C1074.29 140.939 1073.65 141.398 1072.91 141.717C1072.17 142.036 1071.36 142.195 1070.46 142.195C1069.57 142.195 1068.75 142.036 1068.01 141.717C1067.27 141.398 1066.63 140.939 1066.09 140.34C1065.55 139.734 1065.13 139.002 1064.83 138.143C1064.54 137.283 1064.39 136.313 1064.39 135.232V134.559C1064.39 133.471 1064.54 132.501 1064.83 131.648C1065.13 130.789 1065.54 130.057 1066.07 129.451C1066.61 128.846 1067.25 128.383 1067.99 128.064C1068.73 127.745 1069.55 127.586 1070.44 127.586C1071.34 127.586 1072.15 127.745 1072.89 128.064C1073.63 128.383 1074.27 128.846 1074.8 129.451C1075.34 130.057 1075.76 130.789 1076.05 131.648C1076.35 132.501 1076.5 133.471 1076.5 134.559ZM1073.54 135.232V134.539C1073.54 133.784 1073.48 133.12 1073.34 132.547C1073.2 131.974 1073 131.492 1072.73 131.102C1072.47 130.711 1072.14 130.418 1071.76 130.223C1071.37 130.021 1070.93 129.92 1070.44 129.92C1069.94 129.92 1069.5 130.021 1069.12 130.223C1068.74 130.418 1068.42 130.711 1068.15 131.102C1067.89 131.492 1067.69 131.974 1067.56 132.547C1067.42 133.12 1067.35 133.784 1067.35 134.539V135.232C1067.35 135.981 1067.42 136.645 1067.56 137.225C1067.69 137.798 1067.9 138.283 1068.16 138.68C1068.43 139.07 1068.76 139.367 1069.14 139.568C1069.52 139.77 1069.96 139.871 1070.46 139.871C1070.95 139.871 1071.39 139.77 1071.78 139.568C1072.16 139.367 1072.48 139.07 1072.74 138.68C1073 138.283 1073.2 137.798 1073.34 137.225C1073.48 136.645 1073.54 135.981 1073.54 135.232ZM1094.48 135.76H1090.83L1090.81 133.748H1093.87C1094.41 133.748 1094.86 133.68 1095.2 133.543C1095.55 133.4 1095.8 133.195 1095.97 132.928C1096.15 132.654 1096.24 132.322 1096.24 131.932C1096.24 131.489 1096.15 131.131 1095.98 130.857C1095.82 130.584 1095.56 130.385 1095.21 130.262C1094.87 130.138 1094.42 130.076 1093.87 130.076H1091.84V142H1088.91V127.781H1093.87C1094.7 127.781 1095.44 127.859 1096.09 128.016C1096.75 128.172 1097.3 128.41 1097.76 128.729C1098.22 129.048 1098.56 129.451 1098.81 129.939C1099.05 130.421 1099.17 130.994 1099.17 131.658C1099.17 132.244 1099.03 132.785 1098.77 133.279C1098.51 133.774 1098.09 134.178 1097.53 134.49C1096.97 134.803 1096.23 134.975 1095.33 135.008L1094.48 135.76ZM1094.35 142H1090.03L1091.17 139.715H1094.35C1094.87 139.715 1095.29 139.633 1095.61 139.471C1095.94 139.301 1096.18 139.074 1096.33 138.787C1096.49 138.501 1096.57 138.172 1096.57 137.801C1096.57 137.384 1096.5 137.023 1096.35 136.717C1096.22 136.411 1096 136.176 1095.69 136.014C1095.38 135.844 1094.98 135.76 1094.48 135.76H1091.66L1091.68 133.748H1095.19L1095.87 134.539C1096.73 134.526 1097.43 134.679 1097.96 134.998C1098.49 135.311 1098.88 135.717 1099.12 136.219C1099.37 136.72 1099.49 137.257 1099.49 137.83C1099.49 138.742 1099.29 139.51 1098.89 140.135C1098.5 140.753 1097.91 141.219 1097.14 141.531C1096.38 141.844 1095.45 142 1094.35 142ZM1116.31 136.844L1119.81 127.781H1122.96L1118.09 139.246C1117.92 139.637 1117.72 140.011 1117.5 140.369C1117.29 140.721 1117.03 141.036 1116.73 141.316C1116.43 141.59 1116.07 141.808 1115.66 141.971C1115.24 142.127 1114.74 142.205 1114.16 142.205C1114.02 142.205 1113.84 142.202 1113.64 142.195C1113.43 142.189 1113.26 142.179 1113.14 142.166L1113.12 139.881C1113.2 139.9 1113.32 139.913 1113.49 139.92C1113.66 139.92 1113.78 139.92 1113.86 139.92C1114.25 139.92 1114.55 139.865 1114.77 139.754C1114.99 139.643 1115.17 139.487 1115.3 139.285C1115.43 139.077 1115.55 138.833 1115.66 138.553L1116.31 136.844ZM1114 127.781L1117.24 134.822L1118.15 138.055L1115.97 138.094L1110.85 127.781H1114ZM1140.35 135.76H1136.7L1136.68 133.748H1139.75C1140.29 133.748 1140.73 133.68 1141.08 133.543C1141.42 133.4 1141.68 133.195 1141.85 132.928C1142.02 132.654 1142.11 132.322 1142.11 131.932C1142.11 131.489 1142.03 131.131 1141.86 130.857C1141.69 130.584 1141.44 130.385 1141.08 130.262C1140.74 130.138 1140.29 130.076 1139.75 130.076H1137.72V142H1134.79V127.781H1139.75C1140.57 127.781 1141.31 127.859 1141.96 128.016C1142.62 128.172 1143.18 128.41 1143.63 128.729C1144.09 129.048 1144.44 129.451 1144.68 129.939C1144.92 130.421 1145.04 130.994 1145.04 131.658C1145.04 132.244 1144.91 132.785 1144.64 133.279C1144.38 133.774 1143.97 134.178 1143.4 134.49C1142.84 134.803 1142.11 134.975 1141.2 135.008L1140.35 135.76ZM1140.23 142H1135.9L1137.04 139.715H1140.23C1140.74 139.715 1141.16 139.633 1141.49 139.471C1141.81 139.301 1142.05 139.074 1142.21 138.787C1142.36 138.501 1142.44 138.172 1142.44 137.801C1142.44 137.384 1142.37 137.023 1142.23 136.717C1142.09 136.411 1141.87 136.176 1141.56 136.014C1141.26 135.844 1140.85 135.76 1140.35 135.76H1137.53L1137.55 133.748H1141.07L1141.74 134.539C1142.6 134.526 1143.3 134.679 1143.83 134.998C1144.36 135.311 1144.75 135.717 1144.99 136.219C1145.24 136.72 1145.36 137.257 1145.36 137.83C1145.36 138.742 1145.16 139.51 1144.77 140.135C1144.37 140.753 1143.79 141.219 1143.02 141.531C1142.26 141.844 1141.33 142 1140.23 142ZM1163.64 130.213L1159.77 142H1156.66L1161.94 127.781H1163.92L1163.64 130.213ZM1166.85 142L1162.98 130.213L1162.66 127.781H1164.67L1169.98 142H1166.85ZM1166.68 136.707V139.002H1159.17V136.707H1166.68ZM1191.08 133.572V135.857H1183.66V133.572H1191.08ZM1184.53 127.781V142H1181.6V127.781H1184.53ZM1193.17 127.781V142H1190.25V127.781H1193.17ZM1215.5 133.572V135.857H1208.08V133.572H1215.5ZM1208.95 127.781V142H1206.02V127.781H1208.95ZM1217.59 127.781V142H1214.67V127.781H1217.59ZM1238 136.834H1234.13L1233.14 136.424C1232.03 136.072 1231.18 135.545 1230.59 134.842C1230 134.139 1229.71 133.243 1229.71 132.156C1229.71 131.199 1229.92 130.398 1230.34 129.754C1230.77 129.103 1231.38 128.611 1232.16 128.279C1232.95 127.947 1233.88 127.781 1234.96 127.781H1239.92V142H1236.98V130.076H1234.96C1234.16 130.076 1233.57 130.275 1233.19 130.672C1232.82 131.069 1232.63 131.632 1232.63 132.361C1232.63 132.895 1232.71 133.335 1232.89 133.68C1233.07 134.018 1233.32 134.272 1233.66 134.441C1234 134.604 1234.43 134.686 1234.94 134.686H1237.99L1238 136.834ZM1235.18 135.652L1232.02 142H1228.85L1232.01 135.652H1235.18Z" fill="#434242"/>
<path d="M179.1 95L162.76 50.388H173.4L184.116 79.572L185.864 86.944H186.624L187.612 81.776L197.72 50.388H210.64L221.204 81.776L222.572 86.944H223.332L225.08 79.572L235.036 50.388H245.676L244.916 54.948L229.26 95H216.34L206.004 65.132L204.484 60.268H203.724L202.28 65.132L192.02 95H179.1ZM252.541 95V50.312H262.573V68.856H292.365V50.312H302.397V95H292.365V76.152H262.573V95H252.541ZM314.588 95V50.312H324.62V95H314.588ZM352.055 95L351.979 57.532H332.219V50.236H381.923V57.532H362.087V95H352.055ZM389.549 95V50.312H436.821V57.608H399.581V68.096H428.005V75.62H399.581V87.704H437.125L440.165 94.164C440.165 94.3667 439.481 94.5693 438.113 94.772C436.745 94.924 434.389 95 431.045 95H389.549ZM464.435 95V50.312H474.467V95H464.435ZM487.387 95V56.392L486.627 50.312H497.571L523.411 77.368L526.375 81.472H527.211V50.312H537.243V95H527.591L501.143 67.488L498.179 63.916H497.419V95H487.387ZM557.928 95C554.483 95 551.949 94.848 550.328 94.544C548.707 94.24 547.896 93.8853 547.896 93.48L550.936 86.868C552.101 87.0707 554.989 87.2733 559.6 87.476C564.261 87.628 570.645 87.704 578.752 87.704H580.196C582.375 87.704 583.92 87.324 584.832 86.564C585.744 85.7533 586.2 84.4107 586.2 82.536V81.016C586.2 79.2427 585.82 77.976 585.06 77.216C584.351 76.456 582.729 76.076 580.196 76.076H562.564C557.447 76.076 553.723 75.1387 551.392 73.264C549.061 71.3387 547.896 68.2227 547.896 63.916V62.7C547.896 60.4707 548.301 58.4187 549.112 56.544C549.973 54.6693 551.417 53.1747 553.444 52.06C555.471 50.8947 558.257 50.312 561.804 50.312H582.476C585.921 50.312 588.708 50.4893 590.836 50.844C592.964 51.1987 594.028 51.5787 594.028 51.984L592.508 58.368C591.191 58.216 588.201 58.064 583.54 57.912C578.879 57.7093 572.621 57.608 564.768 57.608L563.932 57.532C561.601 57.532 560.031 58.0133 559.22 58.976C558.409 59.888 557.979 61.0533 557.928 62.472V63.764C557.928 65.436 558.384 66.7027 559.296 67.564C560.259 68.3747 561.829 68.78 564.008 68.78H580.88C584.123 68.78 586.884 69.1093 589.164 69.768C591.444 70.4267 593.192 71.6427 594.408 73.416C595.624 75.1387 596.232 77.6973 596.232 81.092V82.308C596.232 86.108 595.244 89.1733 593.268 91.504C591.343 93.8347 587.973 95 583.16 95H557.928ZM622.137 95L622.061 57.532H602.301V50.236H652.005V57.532H632.169V95H622.137ZM644.422 95L666.69 50.312H681.662L703.854 95H692.15L687.666 85.348H660.458L655.518 95H644.422ZM663.194 77.9H684.854L674.442 57.152H673.682L663.194 77.9ZM709.951 95L710.711 88.92V50.312H720.743V87.704H752.207L755.247 94.164C755.247 94.3667 754.563 94.5693 753.195 94.772C751.827 94.924 749.471 95 746.127 95H709.951ZM762.053 95L762.813 88.92V50.312H772.845V87.704H804.309L807.349 94.164C807.349 94.3667 806.665 94.5693 805.297 94.772C803.929 94.924 801.573 95 798.229 95H762.053Z" fill="#434242"/>
</g>
<mask id="mask3_1381_290" style="mask-type:alpha" maskUnits="userSpaceOnUse" x="331" y="8" width="986" height="220">
<path opacity="0.97" d="M461 63H526.5V8H689.802H1317V228H331V173H395.5V118H461L461 63Z" fill="#C4C4C4"/>
</mask>
<g mask="url(#mask3_1381_290)">
<path d="M291.752 127.781V130.076H284.682V127.781H291.752ZM293.842 127.781V142H290.912V127.781H293.842ZM284.311 127.781H287.23L286.869 134.92C286.817 135.988 286.716 136.915 286.566 137.703C286.423 138.491 286.228 139.161 285.98 139.715C285.733 140.262 285.427 140.704 285.062 141.043C284.704 141.375 284.281 141.619 283.793 141.775C283.305 141.925 282.748 142 282.123 142H281.4V139.715L281.771 139.686C282.09 139.653 282.37 139.568 282.611 139.432C282.852 139.295 283.057 139.09 283.227 138.816C283.402 138.543 283.546 138.195 283.656 137.771C283.773 137.342 283.865 136.818 283.93 136.199C284.001 135.581 284.05 134.858 284.076 134.031L284.311 127.781ZM309.806 127.781V142H306.886V127.781H309.806ZM328.202 129.061H331.366C332.212 129.061 332.993 129.201 333.709 129.48C334.426 129.754 335.047 130.151 335.575 130.672C336.108 131.186 336.522 131.808 336.815 132.537C337.108 133.26 337.254 134.067 337.254 134.959C337.254 135.831 337.108 136.626 336.815 137.342C336.522 138.051 336.108 138.66 335.575 139.168C335.047 139.676 334.426 140.066 333.709 140.34C332.993 140.613 332.212 140.75 331.366 140.75H328.202C327.349 140.75 326.564 140.613 325.848 140.34C325.132 140.066 324.507 139.679 323.973 139.178C323.439 138.67 323.023 138.061 322.723 137.352C322.43 136.642 322.284 135.851 322.284 134.979C322.284 134.087 322.43 133.279 322.723 132.557C323.023 131.827 323.439 131.202 323.973 130.682C324.507 130.161 325.132 129.76 325.848 129.48C326.564 129.201 327.349 129.061 328.202 129.061ZM328.202 131.404C327.577 131.404 327.026 131.541 326.551 131.814C326.076 132.088 325.708 132.492 325.448 133.025C325.187 133.553 325.057 134.204 325.057 134.979C325.057 135.538 325.132 136.033 325.282 136.463C325.438 136.886 325.656 137.241 325.936 137.527C326.216 137.814 326.548 138.032 326.932 138.182C327.316 138.331 327.739 138.406 328.202 138.406H331.385C332.004 138.406 332.544 138.273 333.006 138.006C333.475 137.739 333.84 137.348 334.1 136.834C334.36 136.32 334.491 135.695 334.491 134.959C334.491 134.38 334.416 133.868 334.266 133.426C334.116 132.983 333.905 132.612 333.631 132.312C333.358 132.013 333.029 131.788 332.645 131.639C332.267 131.482 331.847 131.404 331.385 131.404H328.202ZM331.19 127.195V142.586H328.377V127.195H331.19ZM355.836 127.781V142H352.916V127.781H355.836ZM360.211 127.781V130.076H348.609V127.781H360.211ZM375.003 137.391L380.716 127.781H383.645V142H380.716V132.391L375.003 142H372.073V127.781H375.003V137.391ZM417.136 134.793V137H411.618V134.793H417.136ZM454.777 139.715V142H447.209V139.715H454.777ZM448.166 127.781V142H445.236V127.781H448.166ZM453.791 133.572V135.799H447.209V133.572H453.791ZM454.767 127.781V130.076H447.209V127.781H454.767ZM469.725 127.781V142H466.796V127.781H469.725ZM478.104 127.781L472.655 136.131H469.071L468.7 133.523H471.093L474.55 127.781H478.104ZM475.087 142L471.102 135.643L473.134 133.553L478.563 142H475.087ZM497.945 137.283H500.865C500.807 138.24 500.543 139.09 500.074 139.832C499.612 140.574 498.964 141.154 498.131 141.57C497.304 141.987 496.308 142.195 495.143 142.195C494.231 142.195 493.414 142.039 492.691 141.727C491.969 141.408 491.35 140.952 490.836 140.359C490.328 139.767 489.941 139.051 489.674 138.211C489.407 137.371 489.273 136.43 489.273 135.389V134.402C489.273 133.361 489.41 132.42 489.684 131.58C489.964 130.734 490.361 130.014 490.875 129.422C491.396 128.829 492.018 128.374 492.74 128.055C493.463 127.736 494.27 127.576 495.162 127.576C496.347 127.576 497.346 127.791 498.16 128.221C498.98 128.65 499.615 129.243 500.064 129.998C500.52 130.753 500.794 131.613 500.885 132.576H497.955C497.923 132.003 497.809 131.518 497.613 131.121C497.418 130.717 497.122 130.415 496.725 130.213C496.334 130.005 495.813 129.9 495.162 129.9C494.674 129.9 494.247 129.992 493.883 130.174C493.518 130.356 493.212 130.633 492.965 131.004C492.717 131.375 492.532 131.844 492.408 132.41C492.291 132.97 492.232 133.628 492.232 134.383V135.389C492.232 136.124 492.288 136.772 492.398 137.332C492.509 137.885 492.678 138.354 492.906 138.738C493.141 139.116 493.44 139.402 493.805 139.598C494.176 139.786 494.622 139.881 495.143 139.881C495.755 139.881 496.259 139.783 496.656 139.588C497.053 139.393 497.356 139.103 497.564 138.719C497.779 138.335 497.906 137.856 497.945 137.283ZM518.87 130.213L515.003 142H511.888L517.171 127.781H519.154L518.87 130.213ZM522.083 142L518.206 130.213L517.894 127.781H519.896L525.208 142H522.083ZM521.907 136.707V139.002H514.398V136.707H521.907ZM546.485 127.781V130.076H539.414V127.781H546.485ZM548.575 127.781V142H545.645V127.781H548.575ZM539.043 127.781H541.963L541.602 134.92C541.55 135.988 541.449 136.915 541.299 137.703C541.156 138.491 540.961 139.161 540.713 139.715C540.466 140.262 540.16 140.704 539.795 141.043C539.437 141.375 539.014 141.619 538.526 141.775C538.038 141.925 537.481 142 536.856 142H536.133V139.715L536.504 139.686C536.823 139.653 537.103 139.568 537.344 139.432C537.585 139.295 537.79 139.09 537.959 138.816C538.135 138.543 538.278 138.195 538.389 137.771C538.506 137.342 538.597 136.818 538.663 136.199C538.734 135.581 538.783 134.858 538.809 134.031L539.043 127.781ZM567.38 130.213L563.513 142H560.398L565.681 127.781H567.664L567.38 130.213ZM570.593 142L566.716 130.213L566.404 127.781H568.406L573.718 142H570.593ZM570.418 136.707V139.002H562.908V136.707H570.418ZM590.483 127.781V142H587.563V127.781H590.483ZM594.858 127.781V130.076H583.257V127.781H594.858ZM618.234 134.559V135.232C618.234 136.313 618.088 137.283 617.795 138.143C617.502 139.002 617.089 139.734 616.555 140.34C616.021 140.939 615.383 141.398 614.641 141.717C613.905 142.036 613.088 142.195 612.189 142.195C611.298 142.195 610.48 142.036 609.738 141.717C609.003 141.398 608.365 140.939 607.824 140.34C607.284 139.734 606.864 139.002 606.564 138.143C606.271 137.283 606.125 136.313 606.125 135.232V134.559C606.125 133.471 606.271 132.501 606.564 131.648C606.857 130.789 607.271 130.057 607.805 129.451C608.345 128.846 608.983 128.383 609.719 128.064C610.461 127.745 611.278 127.586 612.17 127.586C613.068 127.586 613.885 127.745 614.621 128.064C615.363 128.383 616.001 128.846 616.535 129.451C617.076 130.057 617.492 130.789 617.785 131.648C618.085 132.501 618.234 133.471 618.234 134.559ZM615.275 135.232V134.539C615.275 133.784 615.207 133.12 615.07 132.547C614.934 131.974 614.732 131.492 614.465 131.102C614.198 130.711 613.872 130.418 613.488 130.223C613.104 130.021 612.665 129.92 612.17 129.92C611.675 129.92 611.236 130.021 610.852 130.223C610.474 130.418 610.152 130.711 609.885 131.102C609.624 131.492 609.426 131.974 609.289 132.547C609.152 133.12 609.084 133.784 609.084 134.539V135.232C609.084 135.981 609.152 136.645 609.289 137.225C609.426 137.798 609.628 138.283 609.895 138.68C610.161 139.07 610.487 139.367 610.871 139.568C611.255 139.77 611.695 139.871 612.189 139.871C612.684 139.871 613.124 139.77 613.508 139.568C613.892 139.367 614.214 139.07 614.475 138.68C614.735 138.283 614.934 137.798 615.07 137.225C615.207 136.645 615.275 135.981 615.275 135.232ZM636.181 136.932H632.558V134.646H636.181C636.741 134.646 637.196 134.555 637.548 134.373C637.9 134.184 638.157 133.924 638.32 133.592C638.482 133.26 638.564 132.885 638.564 132.469C638.564 132.046 638.482 131.652 638.32 131.287C638.157 130.923 637.9 130.63 637.548 130.408C637.196 130.187 636.741 130.076 636.181 130.076H633.573V142H630.644V127.781H636.181C637.294 127.781 638.248 127.983 639.042 128.387C639.843 128.784 640.455 129.334 640.878 130.037C641.301 130.74 641.513 131.544 641.513 132.449C641.513 133.367 641.301 134.161 640.878 134.832C640.455 135.503 639.843 136.02 639.042 136.385C638.248 136.749 637.294 136.932 636.181 136.932ZM656.657 137.391L662.37 127.781H665.299V142H662.37V132.391L656.657 142H653.727V127.781H656.657V137.391ZM698.79 134.793V137H693.272V134.793H698.79ZM728.228 127.781H730.708L734.361 138.221L738.013 127.781H740.493L735.357 142H733.364L728.228 127.781ZM726.89 127.781H729.361L729.81 137.957V142H726.89V127.781ZM739.361 127.781H741.841V142H738.911V137.957L739.361 127.781ZM766.389 134.559V135.232C766.389 136.313 766.243 137.283 765.95 138.143C765.657 139.002 765.243 139.734 764.709 140.34C764.176 140.939 763.538 141.398 762.795 141.717C762.06 142.036 761.243 142.195 760.344 142.195C759.452 142.195 758.635 142.036 757.893 141.717C757.157 141.398 756.519 140.939 755.979 140.34C755.439 139.734 755.019 139.002 754.719 138.143C754.426 137.283 754.28 136.313 754.28 135.232V134.559C754.28 133.471 754.426 132.501 754.719 131.648C755.012 130.789 755.426 130.057 755.959 129.451C756.5 128.846 757.138 128.383 757.873 128.064C758.616 127.745 759.433 127.586 760.325 127.586C761.223 127.586 762.04 127.745 762.776 128.064C763.518 128.383 764.156 128.846 764.69 129.451C765.23 130.057 765.647 130.789 765.94 131.648C766.239 132.501 766.389 133.471 766.389 134.559ZM763.43 135.232V134.539C763.43 133.784 763.362 133.12 763.225 132.547C763.088 131.974 762.886 131.492 762.62 131.102C762.353 130.711 762.027 130.418 761.643 130.223C761.259 130.021 760.819 129.92 760.325 129.92C759.83 129.92 759.39 130.021 759.006 130.223C758.629 130.418 758.306 130.711 758.039 131.102C757.779 131.492 757.58 131.974 757.444 132.547C757.307 133.12 757.239 133.784 757.239 134.539V135.232C757.239 135.981 757.307 136.645 757.444 137.225C757.58 137.798 757.782 138.283 758.049 138.68C758.316 139.07 758.642 139.367 759.026 139.568C759.41 139.77 759.849 139.871 760.344 139.871C760.839 139.871 761.278 139.77 761.663 139.568C762.047 139.367 762.369 139.07 762.629 138.68C762.89 138.283 763.088 137.798 763.225 137.225C763.362 136.645 763.43 135.981 763.43 135.232ZM788.281 133.572V135.857H780.859V133.572H788.281ZM781.728 127.781V142H778.798V127.781H781.728ZM790.371 127.781V142H787.451V127.781H790.371ZM809.284 127.781V142H806.364V127.781H809.284ZM813.659 127.781V130.076H802.057V127.781H813.659ZM830.355 130.213L826.488 142H823.373L828.656 127.781H830.639L830.355 130.213ZM833.568 142L829.691 130.213L829.379 127.781H831.381L836.693 142H833.568ZM833.393 136.707V139.002H825.883V136.707H833.393ZM852.833 136.141L847.413 127.781H851.056L854.239 133.543H856.71L856.329 136.141H852.833ZM854.22 135.691L850.851 142H847.198L851.857 133.992L854.22 135.691ZM858.624 127.781V142H855.714V127.781H858.624ZM866.808 127.781L861.466 136.141H857.989L857.609 133.543H860.06L863.165 127.781H866.808ZM863.37 142L860.079 135.691L862.452 133.992L867.023 142H863.37ZM899.263 134.793V137H893.746V134.793H899.263ZM939.043 134.559V135.232C939.043 136.313 938.896 137.283 938.604 138.143C938.311 139.002 937.897 139.734 937.363 140.34C936.829 140.939 936.191 141.398 935.449 141.717C934.714 142.036 933.896 142.195 932.998 142.195C932.106 142.195 931.289 142.036 930.547 141.717C929.811 141.398 929.173 140.939 928.633 140.34C928.092 139.734 927.673 139.002 927.373 138.143C927.08 137.283 926.934 136.313 926.934 135.232V134.559C926.934 133.471 927.08 132.501 927.373 131.648C927.666 130.789 928.079 130.057 928.613 129.451C929.154 128.846 929.792 128.383 930.527 128.064C931.27 127.745 932.087 127.586 932.979 127.586C933.877 127.586 934.694 127.745 935.43 128.064C936.172 128.383 936.81 128.846 937.344 129.451C937.884 130.057 938.301 130.789 938.594 131.648C938.893 132.501 939.043 133.471 939.043 134.559ZM936.084 135.232V134.539C936.084 133.784 936.016 133.12 935.879 132.547C935.742 131.974 935.54 131.492 935.273 131.102C935.007 130.711 934.681 130.418 934.297 130.223C933.913 130.021 933.473 129.92 932.979 129.92C932.484 129.92 932.044 130.021 931.66 130.223C931.283 130.418 930.96 130.711 930.693 131.102C930.433 131.492 930.234 131.974 930.098 132.547C929.961 133.12 929.893 133.784 929.893 134.539V135.232C929.893 135.981 929.961 136.645 930.098 137.225C930.234 137.798 930.436 138.283 930.703 138.68C930.97 139.07 931.296 139.367 931.68 139.568C932.064 139.77 932.503 139.871 932.998 139.871C933.493 139.871 933.932 139.77 934.316 139.568C934.701 139.367 935.023 139.07 935.283 138.68C935.544 138.283 935.742 137.798 935.879 137.225C936.016 136.645 936.084 135.981 936.084 135.232ZM960.749 127.781V130.076H954.353V142H951.433V127.781H960.749ZM953.347 132.967H956.667C957.787 132.967 958.751 133.152 959.558 133.523C960.365 133.895 960.987 134.415 961.423 135.086C961.859 135.757 962.077 136.538 962.077 137.43C962.077 138.107 961.954 138.725 961.706 139.285C961.459 139.839 961.098 140.32 960.622 140.73C960.154 141.134 959.587 141.447 958.923 141.668C958.259 141.889 957.507 142 956.667 142H951.433V127.781H954.372V139.715H956.667C957.227 139.715 957.689 139.611 958.054 139.402C958.418 139.194 958.692 138.917 958.874 138.572C959.063 138.221 959.157 137.833 959.157 137.41C959.157 137.007 959.063 136.642 958.874 136.316C958.692 135.984 958.418 135.724 958.054 135.535C957.689 135.346 957.227 135.252 956.667 135.252H953.347V132.967ZM982.534 137.283H985.453C985.395 138.24 985.131 139.09 984.662 139.832C984.2 140.574 983.552 141.154 982.719 141.57C981.892 141.987 980.896 142.195 979.731 142.195C978.819 142.195 978.002 142.039 977.28 141.727C976.557 141.408 975.939 140.952 975.424 140.359C974.916 139.767 974.529 139.051 974.262 138.211C973.995 137.371 973.862 136.43 973.862 135.389V134.402C973.862 133.361 973.998 132.42 974.272 131.58C974.552 130.734 974.949 130.014 975.463 129.422C975.984 128.829 976.606 128.374 977.328 128.055C978.051 127.736 978.858 127.576 979.75 127.576C980.935 127.576 981.935 127.791 982.748 128.221C983.569 128.65 984.203 129.243 984.653 129.998C985.108 130.753 985.382 131.613 985.473 132.576H982.543C982.511 132.003 982.397 131.518 982.202 131.121C982.006 130.717 981.71 130.415 981.313 130.213C980.922 130.005 980.401 129.9 979.75 129.9C979.262 129.9 978.836 129.992 978.471 130.174C978.106 130.356 977.8 130.633 977.553 131.004C977.306 131.375 977.12 131.844 976.996 132.41C976.879 132.97 976.821 133.628 976.821 134.383V135.389C976.821 136.124 976.876 136.772 976.987 137.332C977.097 137.885 977.267 138.354 977.495 138.738C977.729 139.116 978.028 139.402 978.393 139.598C978.764 139.786 979.21 139.881 979.731 139.881C980.343 139.881 980.847 139.783 981.245 139.588C981.642 139.393 981.944 139.103 982.153 138.719C982.368 138.335 982.495 137.856 982.534 137.283ZM1007.16 127.781V130.076H1000.09V127.781H1007.16ZM1009.25 127.781V142H1006.32V127.781H1009.25ZM999.718 127.781H1002.64L1002.28 134.92C1002.22 135.988 1002.12 136.915 1001.97 137.703C1001.83 138.491 1001.64 139.161 1001.39 139.715C1001.14 140.262 1000.83 140.704 1000.47 141.043C1000.11 141.375 999.689 141.619 999.201 141.775C998.713 141.925 998.156 142 997.531 142H996.808V139.715L997.179 139.686C997.498 139.653 997.778 139.568 998.019 139.432C998.26 139.295 998.465 139.09 998.634 138.816C998.81 138.543 998.953 138.195 999.064 137.771C999.181 137.342 999.272 136.818 999.338 136.199C999.409 135.581 999.458 134.858 999.484 134.031L999.718 127.781ZM1026.56 136.844L1030.06 127.781H1033.21L1028.34 139.246C1028.17 139.637 1027.97 140.011 1027.75 140.369C1027.54 140.721 1027.28 141.036 1026.98 141.316C1026.68 141.59 1026.32 141.808 1025.91 141.971C1025.49 142.127 1024.99 142.205 1024.41 142.205C1024.27 142.205 1024.09 142.202 1023.89 142.195C1023.68 142.189 1023.51 142.179 1023.39 142.166L1023.37 139.881C1023.45 139.9 1023.57 139.913 1023.74 139.92C1023.91 139.92 1024.03 139.92 1024.11 139.92C1024.49 139.92 1024.8 139.865 1025.02 139.754C1025.24 139.643 1025.42 139.487 1025.55 139.285C1025.68 139.077 1025.8 138.833 1025.91 138.553L1026.56 136.844ZM1024.25 127.781L1027.49 134.822L1028.4 138.055L1026.22 138.094L1021.1 127.781H1024.25ZM1054.37 127.781V130.076H1047.96V142H1045.04V127.781H1054.37ZM1077.5 134.559V135.232C1077.5 136.313 1077.36 137.283 1077.06 138.143C1076.77 139.002 1076.36 139.734 1075.82 140.34C1075.29 140.939 1074.65 141.398 1073.91 141.717C1073.17 142.036 1072.36 142.195 1071.46 142.195C1070.57 142.195 1069.75 142.036 1069.01 141.717C1068.27 141.398 1067.63 140.939 1067.09 140.34C1066.55 139.734 1066.13 139.002 1065.83 138.143C1065.54 137.283 1065.39 136.313 1065.39 135.232V134.559C1065.39 133.471 1065.54 132.501 1065.83 131.648C1066.13 130.789 1066.54 130.057 1067.07 129.451C1067.61 128.846 1068.25 128.383 1068.99 128.064C1069.73 127.745 1070.55 127.586 1071.44 127.586C1072.34 127.586 1073.15 127.745 1073.89 128.064C1074.63 128.383 1075.27 128.846 1075.8 129.451C1076.34 130.057 1076.76 130.789 1077.05 131.648C1077.35 132.501 1077.5 133.471 1077.5 134.559ZM1074.54 135.232V134.539C1074.54 133.784 1074.48 133.12 1074.34 132.547C1074.2 131.974 1074 131.492 1073.73 131.102C1073.47 130.711 1073.14 130.418 1072.76 130.223C1072.37 130.021 1071.93 129.92 1071.44 129.92C1070.94 129.92 1070.5 130.021 1070.12 130.223C1069.74 130.418 1069.42 130.711 1069.15 131.102C1068.89 131.492 1068.69 131.974 1068.56 132.547C1068.42 133.12 1068.35 133.784 1068.35 134.539V135.232C1068.35 135.981 1068.42 136.645 1068.56 137.225C1068.69 137.798 1068.9 138.283 1069.16 138.68C1069.43 139.07 1069.76 139.367 1070.14 139.568C1070.52 139.77 1070.96 139.871 1071.46 139.871C1071.95 139.871 1072.39 139.77 1072.78 139.568C1073.16 139.367 1073.48 139.07 1073.74 138.68C1074 138.283 1074.2 137.798 1074.34 137.225C1074.48 136.645 1074.54 135.981 1074.54 135.232ZM1095.48 135.76H1091.83L1091.81 133.748H1094.87C1095.41 133.748 1095.86 133.68 1096.2 133.543C1096.55 133.4 1096.8 133.195 1096.97 132.928C1097.15 132.654 1097.24 132.322 1097.24 131.932C1097.24 131.489 1097.15 131.131 1096.98 130.857C1096.82 130.584 1096.56 130.385 1096.21 130.262C1095.87 130.138 1095.42 130.076 1094.87 130.076H1092.84V142H1089.91V127.781H1094.87C1095.7 127.781 1096.44 127.859 1097.09 128.016C1097.75 128.172 1098.3 128.41 1098.76 128.729C1099.22 129.048 1099.56 129.451 1099.81 129.939C1100.05 130.421 1100.17 130.994 1100.17 131.658C1100.17 132.244 1100.03 132.785 1099.77 133.279C1099.51 133.774 1099.09 134.178 1098.53 134.49C1097.97 134.803 1097.23 134.975 1096.33 135.008L1095.48 135.76ZM1095.35 142H1091.03L1092.17 139.715H1095.35C1095.87 139.715 1096.29 139.633 1096.61 139.471C1096.94 139.301 1097.18 139.074 1097.33 138.787C1097.49 138.501 1097.57 138.172 1097.57 137.801C1097.57 137.384 1097.5 137.023 1097.35 136.717C1097.22 136.411 1097 136.176 1096.69 136.014C1096.38 135.844 1095.98 135.76 1095.48 135.76H1092.66L1092.68 133.748H1096.19L1096.87 134.539C1097.73 134.526 1098.43 134.679 1098.96 134.998C1099.49 135.311 1099.88 135.717 1100.12 136.219C1100.37 136.72 1100.49 137.257 1100.49 137.83C1100.49 138.742 1100.29 139.51 1099.89 140.135C1099.5 140.753 1098.91 141.219 1098.14 141.531C1097.38 141.844 1096.45 142 1095.35 142ZM1117.31 136.844L1120.81 127.781H1123.96L1119.09 139.246C1118.92 139.637 1118.72 140.011 1118.5 140.369C1118.29 140.721 1118.03 141.036 1117.73 141.316C1117.43 141.59 1117.07 141.808 1116.66 141.971C1116.24 142.127 1115.74 142.205 1115.16 142.205C1115.02 142.205 1114.84 142.202 1114.64 142.195C1114.43 142.189 1114.26 142.179 1114.14 142.166L1114.12 139.881C1114.2 139.9 1114.32 139.913 1114.49 139.92C1114.66 139.92 1114.78 139.92 1114.86 139.92C1115.25 139.92 1115.55 139.865 1115.77 139.754C1115.99 139.643 1116.17 139.487 1116.3 139.285C1116.43 139.077 1116.55 138.833 1116.66 138.553L1117.31 136.844ZM1115 127.781L1118.24 134.822L1119.15 138.055L1116.97 138.094L1111.85 127.781H1115ZM1141.35 135.76H1137.7L1137.68 133.748H1140.75C1141.29 133.748 1141.73 133.68 1142.08 133.543C1142.42 133.4 1142.68 133.195 1142.85 132.928C1143.02 132.654 1143.11 132.322 1143.11 131.932C1143.11 131.489 1143.03 131.131 1142.86 130.857C1142.69 130.584 1142.44 130.385 1142.08 130.262C1141.74 130.138 1141.29 130.076 1140.75 130.076H1138.72V142H1135.79V127.781H1140.75C1141.57 127.781 1142.31 127.859 1142.96 128.016C1143.62 128.172 1144.18 128.41 1144.63 128.729C1145.09 129.048 1145.44 129.451 1145.68 129.939C1145.92 130.421 1146.04 130.994 1146.04 131.658C1146.04 132.244 1145.91 132.785 1145.64 133.279C1145.38 133.774 1144.97 134.178 1144.4 134.49C1143.84 134.803 1143.11 134.975 1142.2 135.008L1141.35 135.76ZM1141.23 142H1136.9L1138.04 139.715H1141.23C1141.74 139.715 1142.16 139.633 1142.49 139.471C1142.81 139.301 1143.05 139.074 1143.21 138.787C1143.36 138.501 1143.44 138.172 1143.44 137.801C1143.44 137.384 1143.37 137.023 1143.23 136.717C1143.09 136.411 1142.87 136.176 1142.56 136.014C1142.26 135.844 1141.85 135.76 1141.35 135.76H1138.53L1138.55 133.748H1142.07L1142.74 134.539C1143.6 134.526 1144.3 134.679 1144.83 134.998C1145.36 135.311 1145.75 135.717 1145.99 136.219C1146.24 136.72 1146.36 137.257 1146.36 137.83C1146.36 138.742 1146.16 139.51 1145.77 140.135C1145.37 140.753 1144.79 141.219 1144.02 141.531C1143.26 141.844 1142.33 142 1141.23 142ZM1164.64 130.213L1160.77 142H1157.66L1162.94 127.781H1164.92L1164.64 130.213ZM1167.85 142L1163.98 130.213L1163.66 127.781H1165.67L1170.98 142H1167.85ZM1167.68 136.707V139.002H1160.17V136.707H1167.68ZM1192.08 133.572V135.857H1184.66V133.572H1192.08ZM1185.53 127.781V142H1182.6V127.781H1185.53ZM1194.17 127.781V142H1191.25V127.781H1194.17ZM1216.5 133.572V135.857H1209.08V133.572H1216.5ZM1209.95 127.781V142H1207.02V127.781H1209.95ZM1218.59 127.781V142H1215.67V127.781H1218.59ZM1239 136.834H1235.13L1234.14 136.424C1233.03 136.072 1232.18 135.545 1231.59 134.842C1231 134.139 1230.71 133.243 1230.71 132.156C1230.71 131.199 1230.92 130.398 1231.34 129.754C1231.77 129.103 1232.38 128.611 1233.16 128.279C1233.95 127.947 1234.88 127.781 1235.96 127.781H1240.92V142H1237.98V130.076H1235.96C1235.16 130.076 1234.57 130.275 1234.19 130.672C1233.82 131.069 1233.63 131.632 1233.63 132.361C1233.63 132.895 1233.71 133.335 1233.89 133.68C1234.07 134.018 1234.32 134.272 1234.66 134.441C1235 134.604 1235.43 134.686 1235.94 134.686H1238.99L1239 136.834ZM1236.18 135.652L1233.02 142H1229.85L1233.01 135.652H1236.18Z" fill="#434242"/>
<path d="M178.1 95L161.76 50.388H172.4L183.116 79.572L184.864 86.944H185.624L186.612 81.776L196.72 50.388H209.64L220.204 81.776L221.572 86.944H222.332L224.08 79.572L234.036 50.388H244.676L243.916 54.948L228.26 95H215.34L205.004 65.132L203.484 60.268H202.724L201.28 65.132L191.02 95H178.1ZM251.541 95V50.312H261.573V68.856H291.365V50.312H301.397V95H291.365V76.152H261.573V95H251.541ZM313.588 95V50.312H323.62V95H313.588ZM351.055 95L350.979 57.532H331.219V50.236H380.923V57.532H361.087V95H351.055ZM388.549 95V50.312H435.821V57.608H398.581V68.096H427.005V75.62H398.581V87.704H436.125L439.165 94.164C439.165 94.3667 438.481 94.5693 437.113 94.772C435.745 94.924 433.389 95 430.045 95H388.549ZM463.435 95V50.312H473.467V95H463.435ZM486.387 95V56.392L485.627 50.312H496.571L522.411 77.368L525.375 81.472H526.211V50.312H536.243V95H526.591L500.143 67.488L497.179 63.916H496.419V95H486.387ZM556.928 95C553.483 95 550.949 94.848 549.328 94.544C547.707 94.24 546.896 93.8853 546.896 93.48L549.936 86.868C551.101 87.0707 553.989 87.2733 558.6 87.476C563.261 87.628 569.645 87.704 577.752 87.704H579.196C581.375 87.704 582.92 87.324 583.832 86.564C584.744 85.7533 585.2 84.4107 585.2 82.536V81.016C585.2 79.2427 584.82 77.976 584.06 77.216C583.351 76.456 581.729 76.076 579.196 76.076H561.564C556.447 76.076 552.723 75.1387 550.392 73.264C548.061 71.3387 546.896 68.2227 546.896 63.916V62.7C546.896 60.4707 547.301 58.4187 548.112 56.544C548.973 54.6693 550.417 53.1747 552.444 52.06C554.471 50.8947 557.257 50.312 560.804 50.312H581.476C584.921 50.312 587.708 50.4893 589.836 50.844C591.964 51.1987 593.028 51.5787 593.028 51.984L591.508 58.368C590.191 58.216 587.201 58.064 582.54 57.912C577.879 57.7093 571.621 57.608 563.768 57.608L562.932 57.532C560.601 57.532 559.031 58.0133 558.22 58.976C557.409 59.888 556.979 61.0533 556.928 62.472V63.764C556.928 65.436 557.384 66.7027 558.296 67.564C559.259 68.3747 560.829 68.78 563.008 68.78H579.88C583.123 68.78 585.884 69.1093 588.164 69.768C590.444 70.4267 592.192 71.6427 593.408 73.416C594.624 75.1387 595.232 77.6973 595.232 81.092V82.308C595.232 86.108 594.244 89.1733 592.268 91.504C590.343 93.8347 586.973 95 582.16 95H556.928ZM621.137 95L621.061 57.532H601.301V50.236H651.005V57.532H631.169V95H621.137ZM643.422 95L665.69 50.312H680.662L702.854 95H691.15L686.666 85.348H659.458L654.518 95H643.422ZM662.194 77.9H683.854L673.442 57.152H672.682L662.194 77.9ZM708.951 95L709.711 88.92V50.312H719.743V87.704H751.207L754.247 94.164C754.247 94.3667 753.563 94.5693 752.195 94.772C750.827 94.924 748.471 95 745.127 95H708.951ZM761.053 95L761.813 88.92V50.312H771.845V87.704H803.309L806.349 94.164C806.349 94.3667 805.665 94.5693 804.297 94.772C802.929 94.924 800.573 95 797.229 95H761.053Z" fill="#434242"/>
</g>
</svg>
