<svg width="123" height="39" viewBox="0 0 123 39" fill="none" xmlns="http://www.w3.org/2000/svg">
<path d="M8.1 33.8042L0.36 12.6722H5.4L10.476 26.4962L11.304 29.9882H11.664L12.132 27.5402L16.92 12.6722H23.04L28.044 27.5402L28.692 29.9882H29.052L29.88 26.4962L34.596 12.6722H39.636L39.276 14.8322L31.86 33.8042H25.74L20.844 19.6562L20.124 17.3522H19.764L19.08 19.6562L14.22 33.8042H8.1ZM43.9678 33.8042V12.6362H48.7198V33.8042H43.9678ZM61.7875 33.8042C60.0835 33.8042 58.7515 33.5642 57.7915 33.0842C56.8315 32.6042 56.1595 31.8842 55.7755 30.9242C55.3915 29.9642 55.1995 28.7762 55.1995 27.3602V19.3322C55.1995 17.0282 55.7155 15.3362 56.7475 14.2562C57.7795 13.1522 59.4595 12.6002 61.7875 12.6002H72.6235C74.2795 12.6002 75.5395 12.6962 76.4035 12.8882C77.2915 13.0562 77.7355 13.2362 77.7355 13.4282L77.0155 16.4162C76.6075 16.3442 75.3955 16.2722 73.3795 16.2002C71.3875 16.1042 68.4835 16.0562 64.6675 16.0562H62.8315C60.9115 16.0562 59.9515 16.9082 59.9515 18.6122V27.7922C59.9515 28.6082 60.1555 29.2442 60.5635 29.7002C60.9955 30.1322 61.7515 30.3482 62.8315 30.3482H64.3075C66.6115 30.3482 68.5555 30.3362 70.1395 30.3122C71.7235 30.2642 73.0315 30.2282 74.0635 30.2042V25.3082L71.9035 25.3442L67.1875 25.7042V22.1762H78.7795V32.2922L79.1395 33.0482C79.1395 33.2402 78.6355 33.4202 77.6275 33.5882C76.6195 33.7322 74.9155 33.8042 72.5155 33.8042H61.7875Z" fill="#4A4A4A"/>
<path d="M108.194 37.9033C108.594 38.4472 109.406 38.4472 109.806 37.9033L119.954 24.0921C120.44 23.4317 119.968 22.5 119.149 22.5H98.8514C98.0319 22.5 97.5603 23.4317 98.0456 24.0921L108.194 37.9033Z" fill="#BFBFBF"/>
<path d="M108.194 1.09666C108.594 0.552845 109.406 0.552844 109.806 1.09666L119.954 14.9079C120.44 15.5683 119.968 16.5 119.149 16.5H98.8514C98.0319 16.5 97.5603 15.5683 98.0456 14.9079L108.194 1.09666Z" fill="#FFBF00"/>
</svg>
