<svg width="123" height="44" viewBox="0 0 123 44" fill="none" xmlns="http://www.w3.org/2000/svg">
<path d="M8.1 32.5L0.36 11.368H5.4L10.476 25.192L11.304 28.684H11.664L12.132 26.236L16.92 11.368H23.04L28.044 26.236L28.692 28.684H29.052L29.88 25.192L34.596 11.368H39.636L39.276 13.528L31.86 32.5H25.74L20.844 18.352L20.124 16.048H19.764L19.08 18.352L14.22 32.5H8.1ZM43.9678 32.5V11.332H48.7198V32.5H43.9678ZM61.7875 32.5C60.0835 32.5 58.7515 32.26 57.7915 31.78C56.8315 31.3 56.1595 30.58 55.7755 29.62C55.3915 28.66 55.1995 27.472 55.1995 26.056V18.028C55.1995 15.724 55.7155 14.032 56.7475 12.952C57.7795 11.848 59.4595 11.296 61.7875 11.296H72.6235C74.2795 11.296 75.5395 11.392 76.4035 11.584C77.2915 11.752 77.7355 11.932 77.7355 12.124L77.0155 15.112C76.6075 15.04 75.3955 14.968 73.3795 14.896C71.3875 14.8 68.4835 14.752 64.6675 14.752H62.8315C60.9115 14.752 59.9515 15.604 59.9515 17.308V26.488C59.9515 27.304 60.1555 27.94 60.5635 28.396C60.9955 28.828 61.7515 29.044 62.8315 29.044H64.3075C66.6115 29.044 68.5555 29.032 70.1395 29.008C71.7235 28.96 73.0315 28.924 74.0635 28.9V24.004L71.9035 24.04L67.1875 24.4V20.872H78.7795V30.988L79.1395 31.744C79.1395 31.936 78.6355 32.116 77.6275 32.284C76.6195 32.428 74.9155 32.5 72.5155 32.5H61.7875Z" fill="white"/>
<path d="M108.194 42.4033C108.594 42.9472 109.406 42.9472 109.806 42.4033L119.954 28.5921C120.44 27.9317 119.968 27 119.149 27H98.8514C98.0319 27 97.5603 27.9317 98.0456 28.5921L108.194 42.4033Z" fill="#BFBFBF"/>
<path d="M108.194 5.59666C108.594 5.05284 109.406 5.05284 109.806 5.59666L119.954 19.4079C120.44 20.0683 119.968 21 119.149 21H98.8514C98.0319 21 97.5603 20.0683 98.0456 19.4079L108.194 5.59666Z" fill="#FFBF00"/>
</svg>
