<?xml version="1.0" encoding="UTF-8" standalone="no"?>
<!-- Created with Inkscape (http://www.inkscape.org/) -->

<svg
   width="37.065872mm"
   height="16.778524mm"
   viewBox="0 0 37.065872 16.778524"
   version="1.1"
   id="svg412"
   inkscape:version="1.2 (1:1.2.1+202207142221+cd75a1ee6d)"
   sodipodi:docname="sjec.logo.svg"
   xmlns:inkscape="http://www.inkscape.org/namespaces/inkscape"
   xmlns:sodipodi="http://sodipodi.sourceforge.net/DTD/sodipodi-0.dtd"
   xmlns="http://www.w3.org/2000/svg"
   xmlns:svg="http://www.w3.org/2000/svg">
  <sodipodi:namedview
     id="namedview414"
     pagecolor="#ffffff"
     bordercolor="#666666"
     borderopacity="1.0"
     inkscape:showpageshadow="2"
     inkscape:pageopacity="0.0"
     inkscape:pagecheckerboard="0"
     inkscape:deskcolor="#d1d1d1"
     inkscape:document-units="px"
     showgrid="false"
     inkscape:zoom="2"
     inkscape:cx="168.75"
     inkscape:cy="91.5"
     inkscape:window-width="1920"
     inkscape:window-height="1049"
     inkscape:window-x="0"
     inkscape:window-y="31"
     inkscape:window-maximized="1"
     inkscape:current-layer="g1399" />
  <defs
     id="defs409" />
  <g
     inkscape:label="Слой 1"
     inkscape:groupmode="layer"
     id="layer1"
     transform="translate(-38.671953,-67.418398)">
    <g
       id="g1399"
       transform="translate(-58.208336)">
      <path
         d="m 105.12704,67.486546 v 0 3.368322 c -0.50694,-0.546805 -0.83714,-1.351844 -1.7205,-1.970616 -0.70944,-0.496712 -1.47461,-0.885473 -2.29976,-0.885473 -1.04916,0 -1.97873,0.512586 -2.072569,1.297517 -0.115358,0.960261 0.388761,1.135592 1.068209,1.50495 1.53176,0.832908 3.65478,0.992011 4.92019,2.21368 0.51506,0.497417 0.71297,1.111956 0.71297,1.755423 0,0.758472 -0.35842,1.47708 -1.18322,2.062691 -0.82726,0.587375 -1.76001,1.063273 -3.03318,1.063273 -0.79269,0 -1.716266,-0.317853 -2.475444,-0.527756 -0.243064,-0.06668 -0.834672,-0.171097 -1.026936,-0.171097 -0.450497,0 -0.587022,0.376414 -1.013883,0.611364 v -4.031545 c 0.45085,0.892528 1.015294,2.077861 1.934986,2.716742 0.784225,0.544689 1.628067,0.757767 2.533647,0.757767 1.23861,0 2.97639,-0.794809 2.11385,-2.201687 -0.68369,-1.116541 -3.38349,-1.515886 -4.999216,-2.259188 -1.19627,-0.550334 -1.783998,-1.198034 -1.697567,-2.564342 0.127705,-2.018594 2.145947,-2.765778 4.048483,-2.765778 0.41275,0 0.8128,0.03669 1.19944,0.112889 0.64241,0.127 0.95144,0.395464 1.6697,0.753886 z m -0.56903,16.710377 v 0 c 2.35091,-2.197805 3.95463,-3.887611 3.95463,-6.561666 v -6.99135 c 0,-2.734028 -0.54892,-2.112786 -1.14123,-2.846564 h 4.98687 c -0.7038,0.638881 -0.89994,0.168275 -0.89994,2.827514 v 6.771569 c 0,2.145948 -3.11573,5.550959 -6.90033,6.800497 z m 12.96246,-15.39381 v 0 3.106914 h 3.92783 l 1.1116,-1.036109 v 2.952397 l -1.1116,-0.915458 h -3.92783 v 3.611386 h 4.79602 l 1.26541,-1.173692 0.0201,2.210859 h -9.09779 l 0.89394,-1.037167 v -7.71913 l -0.97437,-1.00577 h 8.85366 v 1.801989 l -0.89605,-0.796219 z m 15.8048,-1.087261 v 0 2.328333 c -1.13171,-0.985661 -1.53988,-1.33985 -3.30165,-1.33985 -1.90253,0 -3.4544,1.730375 -3.4544,3.85198 0,2.121959 1.55187,3.852334 3.4544,3.852334 1.24319,0 2.33715,-0.73907 2.9457,-1.843264 h 0.97684 c -0.3549,0.561622 -0.66287,1.157111 -1.06504,1.685572 -0.47519,0.624064 -1.0608,1.014236 -1.62207,1.277761 -0.56374,0.265289 -1.21885,0.397581 -1.97168,0.397581 -0.98566,0 -1.86443,-0.215195 -2.63136,-0.645584 -0.76659,-0.430036 -1.36032,-1.047044 -1.77589,-1.852436 -0.41628,-0.806803 -0.62477,-1.665464 -0.62477,-2.574572 0,-0.95885 0.23178,-1.867253 0.69462,-2.72803 0.46249,-0.860073 1.08479,-1.527528 1.86902,-2.002014 1.8228,-1.102431 4.13103,-0.840317 5.88363,0.286455 z"
         style="fill:#ed1c24;fill-opacity:1;fill-rule:evenodd;stroke:none;stroke-width:0.352778"
         id="path12"
         sodipodi:nodetypes="ccccscccssscscccscssscccssssccssscccccccccccccccccccccccsssccccscsscccc" />
    </g>
  </g>
</svg>
