<svg width="200" height="60" viewBox="0 0 200 60" fill="none" xmlns="http://www.w3.org/2000/svg">
<g style="mix-blend-mode:luminosity">
<path d="M137 0H18.5C8.2 0 0 8.3 0 18.6V59.3H118.5C128.7 59.3 137 51.1 137 40.8V0Z" fill="#79B928"/>
<path d="M42.1 18.4H42C40.4 18.4 38.9 18.8 37.5 19.5C37 18.8 36.2 18.4 35.2 18.4C34.2 18.4 33.4 18.8 32.9 19.5C31.5 18.8 30 18.4 28.4 18.4H28.2C25.5 18.4 23.2 19.3 21.3 21.1C19.4 22.9 18.5 25.1 18.5 27.6V31.5C18.5 34.1 19.4 36.2 21.3 38C23.2 39.8 25.5 40.7 28.2 40.7H28.4C29.8 40.7 31.1 40.4 32.4 39.9V41.8C32.4 42.5 32.7 43.2 33.2 43.8C33.7 44.3 34.4 44.6 35.2 44.6C35.9 44.6 36.6 44.4 37.1 43.9C37.6 43.4 38 42.9 38 42.3C38 42.1 38 42 38 41.8V40C39.2 40.5 40.6 40.8 42 40.8H42.2C44.9 40.8 47.2 39.9 49.1 38.1C51 36.3 51.9 34.1 51.9 31.6V27.7C51.9 25.1 51 23 49.1 21.2C47.1 19.3 44.8 18.4 42.1 18.4ZM42.1 35.3H42C40.9 35.3 40 34.9 39.2 34.2C38.4 33.5 38 32.6 38 31.5V27.6C38 26.5 38.4 25.7 39.2 24.9C40 24.1 40.9 23.8 42 23.8H42.2C43.3 23.8 44.2 24.2 45 24.9C45.8 25.6 46.2 26.5 46.2 27.6V31.5C46.2 32.6 45.8 33.4 45 34.2C44.2 34.9 43.3 35.3 42.1 35.3ZM28.3 35.3H28.1C27 35.3 26.1 34.9 25.3 34.2C24.5 33.5 24.1 32.6 24.1 31.5V27.6C24.1 26.5 24.5 25.7 25.3 24.9C26.1 24.2 27 23.8 28.1 23.8H28.3C29.4 23.8 30.3 24.2 31.1 24.9C31.9 25.6 32.3 26.5 32.3 27.6V31.5C32.3 32.6 31.9 33.4 31.1 34.2C30.3 34.9 29.4 35.3 28.3 35.3Z" fill="white"/>
<path d="M64 18.4H63.8C61 18.4 58.6 19.3 56.6 21.1C54.6 22.9 53.6 25.1 53.6 27.6V31.5C53.6 34.1 54.6 36.2 56.6 38C58.6 39.8 61 40.7 63.8 40.7H64C66.8 40.7 69.2 39.8 71.2 38C73.2 36.2 74.2 34 74.2 31.5V27.6C74.2 25 73.2 22.9 71.2 21.1C69.2 19.3 66.7 18.4 64 18.4ZM64 35.3H63.8C62.6 35.3 61.7 34.9 60.9 34.2C60.1 33.5 59.7 32.6 59.7 31.5V27.6C59.7 26.5 60.1 25.7 60.9 24.9C61.7 24.2 62.7 23.8 63.8 23.8H64C65.2 23.8 66.1 24.2 66.9 24.9C67.7 25.6 68.1 26.5 68.1 27.6V31.5C68.1 32.5 67.7 33.4 66.9 34.2C66.1 34.9 65.1 35.3 64 35.3Z" fill="white"/>
<path d="M86.2 18.4H86C84.3 18.4 82.7 18.8 81.3 19.5C80.8 18.8 79.9 18.4 78.9 18.4C78.1 18.4 77.3 18.7 76.8 19.2C76.2 19.7 75.9 20.4 75.9 21.1V41.8C75.9 42.5 76.2 43.2 76.8 43.8C77.4 44.3 78.1 44.6 78.9 44.6C79.7 44.6 80.4 44.4 81 43.8C81.6 43.3 81.9 42.6 81.9 41.9V40C83.2 40.5 84.6 40.8 86 40.8H86.2C89 40.8 91.4 39.9 93.4 38.1C95.4 36.3 96.4 34.1 96.4 31.6V27.7C96.4 25.1 95.4 23 93.4 21.2C91.4 19.3 88.9 18.4 86.2 18.4ZM86.2 35.3H86C84.8 35.3 83.9 34.9 83.1 34.2C82.3 33.5 81.9 32.6 81.9 31.5V27.6C81.9 26.5 82.3 25.7 83.1 24.9C83.9 24.2 84.9 23.8 86 23.8H86.2C87.4 23.8 88.3 24.2 89.1 24.9C89.9 25.6 90.3 26.5 90.3 27.6V31.5C90.3 32.5 89.9 33.4 89.1 34.2C88.3 34.9 87.3 35.3 86.2 35.3Z" fill="white"/>
<path d="M117.7 19.2C117.1 18.7 116.4 18.4 115.6 18.4C114.5 18.4 113.7 18.8 113.2 19.5C111.8 18.8 110.2 18.4 108.5 18.4H108.3C105.5 18.4 103.1 19.3 101.1 21.1C99.1 22.9 98.1 25.1 98.1 27.6V31.5C98.1 34.1 99.1 36.2 101.1 38C103.1 39.8 105.5 40.7 108.3 40.7H108.5C110.2 40.7 111.8 40.3 113.2 39.6C113.7 40.3 114.6 40.7 115.6 40.7C116.4 40.7 117.2 40.4 117.7 39.9C118.3 39.4 118.6 38.7 118.6 37.9V21.2C118.6 20.4 118.2 19.7 117.7 19.2ZM108.4 35.3H108.2C107 35.3 106.1 34.9 105.3 34.2C104.5 33.5 104.1 32.6 104.1 31.5V27.6C104.1 26.5 104.5 25.7 105.3 24.9C106.1 24.2 107.1 23.8 108.2 23.8H108.4C109.6 23.8 110.5 24.2 111.3 24.9C112.1 25.6 112.5 26.5 112.5 27.6V31.5C112.5 32.5 112.1 33.4 111.3 34.2C110.5 34.9 109.6 35.3 108.4 35.3Z" fill="white"/>
<path d="M181.4 0H140.7V40.7C140.7 50.9 149 59.3 159.2 59.3H181.3C191.5 59.3 199.9 50.9 199.9 40.7V18.6C200 8.4 191.6 0 181.4 0Z" fill="#E72F2A"/>
<path d="M184 24.0999H179.9H177.6L173.4 17.0999C173.1 16.5999 172.4 16.3999 171.8 16.6999L171.3 16.9999C170.8 17.2999 170.6 17.9999 170.9 18.5999L172.8 21.6999L174.2 24.0999L176.2 27.3999C176 27.1999 175.7 26.9999 175.5 26.7999L173.3 24.0999H167.2L165 26.7999C164.8 26.9999 164.6 27.2999 164.3 27.3999L166.3 24.0999L167.7 21.6999L169.6 18.5999C169.9 18.0999 169.8 17.2999 169.2 16.9999L168.7 16.6999C168.2 16.3999 167.4 16.4999 167.1 17.0999L162.9 24.0999H160.6H156.5C156 24.0999 155.5 24.5999 155.5 25.0999L155.6 26.9999C155.6 27.4999 156.1 27.7999 156.6 27.7999H157.1L158.8 38.6999C159.3 40.7999 160.7 40.7999 162.7 40.7999H178.5C180.4 40.7999 181.3 40.5999 181.9 38.5999L183.6 27.8999H184.1C184.6 27.8999 185.1 27.4999 185.1 27.0999V24.9999C185.1 24.4999 184.5 24.0999 184 24.0999ZM163 25.6999C163.2 25.3999 163.6 25.2999 163.9 25.4999C164.2 25.6999 164.3 26.0999 164.1 26.3999C163.9 26.6999 163.5 26.7999 163.2 26.5999C163 26.2999 162.8 25.9999 163 25.6999ZM163.7 37.9H163.2C162.7 37.9 162.3 37.5999 162.3 37.2999L161 29.8999C160.9 29.3999 161.3 28.7999 161.9 28.7999H162.4C163 28.7999 163.5 29.1999 163.6 29.6999L164.6 37.2999C164.5 37.6999 164.2 37.9 163.7 37.9ZM168.4 37.9H167.9C167.4 37.9 167 37.5999 167 37.2999L166.4 29.6999C166.4 29.1999 166.8 28.7999 167.3 28.7999H167.8C168.4 28.7999 168.9 29.1999 168.9 29.6999L169.2 37.2999C169.3 37.6999 168.9 37.9 168.4 37.9ZM174 37.2999C174 37.6999 173.5 37.9 173.1 37.9H172.6C172.1 37.9 171.7 37.5999 171.7 37.2999L171.8 29.6999C171.8 29.1999 172.3 28.7999 172.9 28.7999H173.4C174 28.7999 174.4 29.1999 174.4 29.6999L174 37.2999ZM177.6 25.6999C177.8 25.9999 177.7 26.3999 177.4 26.5999C177.1 26.7999 176.7 26.5999 176.5 26.3999C176.3 26.0999 176.4 25.6999 176.7 25.4999C177 25.1999 177.4 25.2999 177.6 25.6999ZM179.8 29.8999L178.7 37.2999C178.6 37.6999 178.3 37.9 177.8 37.9H177.2C176.7 37.9 176.3 37.5999 176.4 37.2999L177.2 29.6999C177.3 29.1999 177.8 28.7999 178.4 28.7999H178.9C179.5 28.7999 179.9 29.3999 179.8 29.8999Z" fill="white"/>
</g>
</svg>
