<svg xmlns="http://www.w3.org/2000/svg" viewBox="0 0 327.33 131.37"><defs><style>.cls-1{fill:#ff8522;}</style></defs><g id="Layer_2" data-name="Layer 2"><g id="Layer_1-2" data-name="Layer 1"><path class="cls-1" d="M134.39,42.43c6.15-.36,12.14-3.23,12.55-9.62.26-4.29-3.12-8.7-9.86-9a14.65,14.65,0,0,0-9.62,2.69,9.91,9.91,0,0,0-3.63,5.85c-.67,2.75-.3,5.07,1.08,6.84,1.77,2.3,5.19,3.44,9.48,3.2"/><path class="cls-1" d="M311.12,50.08c-.85,2-2.65,4-4.26,4.3l-.75.2s.6-4.35.62-5.66c0-5.93-1.47-12.12-10.74-11.45-5.68.41-13.89,5.51-15,16.18v.06l0,.07a.76.76,0,0,0,0,.22c-1.36,3.73-3.86,9-5.69,9.23a1.28,1.28,0,0,1-1.05-.37,1.92,1.92,0,0,1-.53-1.49,30,30,0,0,1,1-5.16,56.57,56.57,0,0,0,1.53-9c.57-7.28-3.91-8.65-8.5-8.23a12.82,12.82,0,0,0-7.4,3.41l-1.63,1.92s.7-3.61.91-4.59l-10.37.52-3.39,14.82a9.22,9.22,0,0,1-4.46,3.55l-.68.18-.09-.76a17.36,17.36,0,0,0-.39-2.23c-.26-1.64-1.81-7.29-7.31-6.74-14.23,1.42-13.53,19-5.08,16.41l1-.32-.17,1c-1,7-4,10.78-8.06,11.4a2,2,0,0,1-1.66-.52,4.61,4.61,0,0,1-1.13-3.45c0-3.44,6.4-32.19,6.4-32.19l-13.2.7c-.61,2.62-3.16,14.07-3.16,14.1l-.39,1.48c-.5,1.95-.83,3.23-1,4.58l0,.07v0c0,.09-.07.17-.1.25-2,5.44-5.52,11.32-8.29,11.71a1.71,1.71,0,0,1-1.4-.43,2.13,2.13,0,0,1-.64-1.61v0l.19-2.37s6.62-25.74,7.08-27.44c-1.57.09-15.05.53-15.05.53l-1.27,4.69c-.42-3.82-8.51-8.8-14.44-3.27-6.29,5.86-7.91,14.5-8.73,23l-.1.31c-1.21,10.26-3.45,17.31-10.56,18.34a6.2,6.2,0,0,1-4.13-.46,18.46,18.46,0,0,0,5-5.41c2.57-4.44,1.31-8.26-1.46-10-5.58-3.56-11.52,1-12.53,6.61a11.21,11.21,0,0,0,1.71,8c-1.87,1.14-3.4,2.33-6,2.74A4.28,4.28,0,0,1,132,86.42c-1.61-2.1.41-9,.71-9.86,0,0,9.28-29.19,9.83-31-1.71.1-19.69,1-20.57,1.05-.58,1.82-2.73,9-5,15.55-4.42,12.9-17.48,30.58-31.2,34.4-7.29,2-13,1.76-16.68-.42-5-3-7.93-10.23-6.19-20.46a47.72,47.72,0,0,1,4.24-14.1C78.3,36.91,96.94,42.14,95.84,44a21,21,0,0,0-3.52,1.63C89.39,47.29,84.71,52,84.6,57.71c-.06,3.71,1,6.68,3,8.61a10,10,0,0,0,8.18,2.39,14.49,14.49,0,0,0,13.26-14.53c.09-4.45-1.21-8-3.82-10.66-4.17-4.2-9-6.28-19.75-5.81C69,38.42,44,50.68,37.17,77c-2.3,8.91,1.09,19.53,6.47,24.3,7.47,6.62,16.64,9,32.6,5.71,14.23-2.92,25.78-12.82,34.24-23.18,0,.17,0,.33-.06.48-1.9,7.51,1,15.46,13.48,13.64a47.87,47.87,0,0,0,20.69-9c3,2.51,8,4,13.86,3,2.35-.4,8.42-2.12,13.65-9.85,4.13-6.13,6.05-18,7.13-24.35A26.73,26.73,0,0,1,180.49,52a4.06,4.06,0,0,1,1.84-2.21c2.22-1,3.41,1.23,3,2.85s-2.6,9.79-2.6,9.79l-.42,1.3c-1.31,4-2.78,8.49-2.82,13.27,0,3.48.92,6.22,2.78,7.88,1.69,1.58,4.13,2.16,7,1.67,7.84-1.3,13.31-9.34,15.87-14l.35-.65.55-.93.33,1.74c1.36,6.94,6.87,9.64,15.08,8.29,10.66-1.74,17-7.39,18.77-17l.08-.41.4-.15a13.33,13.33,0,0,0,2.9-1.57l.8-.57-3.58,15.5c1.52-.27,11.52-2.09,12.32-2.21.19-1,4.26-19.7,4.26-19.7.71-3.26,2.69-9.47,5.07-9.64a1.47,1.47,0,0,1,1.28.49,3.47,3.47,0,0,1,.85,2.43,31.23,31.23,0,0,1-1.35,7,64,64,0,0,0-2,11c-.5,6.49,5,6.38,6.57,6.11,3.9-.63,9-2.71,13.21-12.42l.26,1a9.54,9.54,0,0,0,11,7.57,15.52,15.52,0,0,0,12.55-10L305,58l.37-.07c2.43-.29,5.73-3.14,6.51-6.42a8.58,8.58,0,0,0-.74-1.44M148.19,73.18c2.23.07,3.13,1.41,1.93,4.12a15.93,15.93,0,0,1-4.5,5.11c-2.84-4.33-.22-9.29,2.57-9.23m81.67-13a3.92,3.92,0,0,1-2.67,1.27c-1.45.26-1.81-.53-1.9-.86-.31-1.29,1-3.39,2.26-4a1.65,1.65,0,0,1,1.73.06c1.06,1.15.58,3.48.58,3.48m67.85-1.67c-.84,2.68-2,5.57-4.38,5.9a2.26,2.26,0,0,1-2-.46c-.83-.74-1.17-1.4-1.16-3.82,0-5.71,2.8-20,6.82-20.22a1.74,1.74,0,0,1,1.48.62c.86.91,1.23,2.71,1.06,4.81l0,.26s-4.22.24-4.56,6.56a6.18,6.18,0,0,0,2.95,5.52Zm1.08-4.23c-1.4-.85-1.38-3.33-.64-4.25a1,1,0,0,1,1.25-.37,19.85,19.85,0,0,1-.61,4.62"/><path class="cls-1" d="M133.82,0c-15.26.61-25.87,10.89-30.91,17a64.19,64.19,0,0,0-33.33-1.19C58.26,18.38,42,24.54,30.22,34.33,9.51,51.57-1.19,72.27.1,92.58.85,104.65,6.56,115,16.56,122.47c16.29,12.13,42.24,9,52.67,7.05,11-2.06,187.36-36.54,211-41.45,22-4.58,42.93-12.46,46.8-39.1a38.87,38.87,0,0,0,.33-4.89c-.05-6.85-2.3-13.26-6.14-17.57-7.06-7.92-18.26-8.69-26.08-8.59-6.23.08-51,1.59-129.54,4.35a27.27,27.27,0,0,0-6.32-12.76c-4.2-4.63-12-10-25.43-9.47M105,20.21c4.64-6,14.59-16,29-16.6,12-.49,18.93,4.24,22.62,8.28a23.66,23.66,0,0,1,5.79,12.46l.23,1.58,1.59-.06c12.34-.41,120.83-4.25,131-4.37,7.1-.09,17.26.56,23.34,7.36,3.22,3.65,5.13,9.12,5.23,15v.26a26.5,26.5,0,0,1-.29,4.35c-3.53,24.45-23.24,31.79-44,36.11C256.32,89.39,79.85,123.92,68.58,126c-10,1.84-34.74,4.91-49.85-6.39C9.54,112.76,4.35,103.34,3.66,92.37c-1.21-19.17,9-38.79,28.86-55.31,11.26-9.39,26.93-15.27,37.84-17.72A60.6,60.6,0,0,1,103,20.78l1.22.4Z"/></g></g></svg>