<svg width="344" height="30" viewBox="0 0 344 30" fill="none" xmlns="http://www.w3.org/2000/svg">
<g style="mix-blend-mode:luminosity" clip-path="url(#clip0_1192_124)">
<path d="M291.371 13V5.82895H296.178V6.45515H292.078V8.94985H294.441C295.229 8.94985 295.812 9.13502 296.189 9.50535C296.566 9.86895 296.754 10.3437 296.754 10.9295C296.754 11.3133 296.67 11.6634 296.502 11.9799C296.34 12.2896 296.091 12.5388 295.754 12.7273C295.424 12.9091 295.007 13 294.502 13H291.371ZM292.078 12.3738H294.421C294.812 12.3738 295.125 12.3031 295.36 12.1617C295.596 12.0203 295.768 11.8385 295.875 11.6163C295.983 11.3874 296.037 11.1517 296.037 10.9093C296.037 10.6669 295.99 10.4413 295.896 10.2326C295.801 10.0171 295.633 9.84538 295.391 9.71745C295.155 9.58278 294.822 9.51545 294.391 9.51545H292.078V12.3738ZM298.394 15.2018C298.279 15.2018 298.162 15.1816 298.04 15.1412C297.926 15.1075 297.808 15.057 297.687 14.9897L297.939 14.5049C298.013 14.5453 298.081 14.579 298.141 14.6059C298.209 14.6328 298.279 14.6463 298.353 14.6463C298.529 14.6463 298.693 14.5588 298.848 14.3837C299.003 14.2086 299.151 13.9528 299.293 13.6161L299.555 12.9596L297.212 7.73785H297.939L299.868 12.293L301.646 7.73785H302.333L299.828 13.8282C299.693 14.1447 299.552 14.4039 299.404 14.6059C299.256 14.8079 299.097 14.956 298.929 15.0503C298.761 15.1513 298.582 15.2018 298.394 15.2018ZM302.706 14.2221V12.3839H302.797C302.952 12.3839 303.094 12.3368 303.222 12.2425C303.349 12.1482 303.464 11.9833 303.565 11.7476C303.666 11.5119 303.747 11.1887 303.807 10.778C303.868 10.3605 303.908 9.83528 303.929 9.20235L303.979 7.73785H307.403V12.3839H308.11V14.2221H307.494V13H303.312V14.2221H302.706ZM303.838 12.3839H306.716V8.35395H304.595L304.565 9.26295C304.545 9.88915 304.501 10.4144 304.434 10.8386C304.373 11.2561 304.292 11.5894 304.191 11.8385C304.097 12.0809 303.979 12.2627 303.838 12.3839ZM309.151 13V7.73785H309.838V13H309.151ZM309.151 6.63695V5.62695H309.838V6.63695H309.151ZM311.34 13V7.73785H313.966C314.263 7.73785 314.512 7.80182 314.714 7.92975C314.916 8.05095 315.067 8.20918 315.168 8.40445C315.276 8.59972 315.33 8.80845 315.33 9.03065C315.33 9.31345 315.263 9.56932 315.128 9.79825C314.993 10.0205 314.798 10.1888 314.542 10.3033C314.845 10.3908 315.091 10.5491 315.279 10.778C315.468 11.0069 315.562 11.283 315.562 11.6062C315.562 11.889 315.492 12.1348 315.35 12.3435C315.215 12.5522 315.027 12.7138 314.785 12.8283C314.549 12.9428 314.276 13 313.966 13H311.34ZM311.997 12.5051H313.946C314.121 12.5051 314.28 12.4613 314.421 12.3738C314.569 12.2795 314.684 12.1583 314.764 12.0102C314.852 11.8621 314.896 11.7072 314.896 11.5456C314.896 11.3705 314.855 11.2123 314.774 11.0709C314.694 10.9228 314.586 10.8049 314.451 10.7174C314.317 10.6299 314.162 10.5861 313.987 10.5861H311.997V12.5051ZM311.997 10.1114H313.785C313.96 10.1114 314.115 10.0643 314.249 9.96995C314.384 9.87568 314.488 9.75448 314.562 9.60635C314.636 9.45822 314.673 9.30335 314.673 9.14175C314.673 8.89935 314.593 8.68725 314.431 8.50545C314.276 8.32365 314.074 8.23275 313.825 8.23275H311.997V10.1114ZM319.028 13.101C318.651 13.101 318.301 13.0303 317.978 12.8889C317.655 12.7408 317.375 12.5421 317.139 12.293C316.904 12.0371 316.719 11.7442 316.584 11.4143C316.456 11.0844 316.392 10.7309 316.392 10.3538C316.392 9.86222 316.503 9.41108 316.725 9.00035C316.954 8.58962 317.267 8.26305 317.665 8.02065C318.062 7.77152 318.513 7.64695 319.018 7.64695C319.537 7.64695 319.988 7.77152 320.371 8.02065C320.762 8.26978 321.068 8.59972 321.291 9.01045C321.513 9.41445 321.624 9.85885 321.624 10.3437C321.624 10.3976 321.624 10.4514 321.624 10.5053C321.624 10.5524 321.62 10.5895 321.614 10.6164H317.109C317.143 10.9935 317.247 11.3301 317.422 11.6264C317.604 11.9159 317.836 12.1482 318.119 12.3233C318.409 12.4916 318.722 12.5758 319.058 12.5758C319.402 12.5758 319.725 12.4883 320.028 12.3132C320.338 12.1381 320.553 11.9092 320.674 11.6264L321.27 11.788C321.163 12.0371 320.998 12.2627 320.775 12.4647C320.553 12.6667 320.291 12.8249 319.988 12.9394C319.691 13.0471 319.372 13.101 319.028 13.101ZM317.089 10.1215H320.977C320.951 9.73765 320.846 9.40098 320.664 9.11145C320.489 8.82192 320.257 8.59635 319.967 8.43475C319.685 8.26642 319.372 8.18225 319.028 8.18225C318.685 8.18225 318.372 8.26642 318.089 8.43475C317.806 8.59635 317.574 8.82528 317.392 9.12155C317.217 9.41108 317.116 9.74438 317.089 10.1215ZM322.178 13.0303V12.4041C322.36 12.4041 322.522 12.357 322.663 12.2627C322.805 12.1617 322.929 11.9934 323.037 11.7577C323.151 11.522 323.242 11.1988 323.31 10.7881C323.377 10.3706 323.421 9.84202 323.441 9.20235L323.502 7.73785H326.915V13H326.229V8.35395H324.108L324.087 9.26295C324.06 9.99015 324.003 10.5996 323.916 11.0911C323.828 11.5759 323.704 11.9597 323.542 12.2425C323.387 12.5253 323.195 12.7273 322.966 12.8485C322.737 12.9697 322.475 13.0303 322.178 13.0303ZM328.424 13V7.73785H329.11V9.59625H330.474C331.073 9.59625 331.524 9.75112 331.827 10.0609C332.137 10.3639 332.292 10.7645 332.292 11.2628C332.292 11.586 332.225 11.8789 332.09 12.1415C331.955 12.4041 331.757 12.6128 331.494 12.7677C331.238 12.9226 330.915 13 330.524 13H328.424ZM329.11 12.4546H330.434C330.71 12.4546 330.932 12.4007 331.1 12.293C331.269 12.1785 331.393 12.0338 331.474 11.8587C331.555 11.6769 331.595 11.4816 331.595 11.2729C331.595 11.0709 331.558 10.8857 331.484 10.7174C331.417 10.5423 331.295 10.4043 331.12 10.3033C330.952 10.1956 330.716 10.1417 330.413 10.1417H329.11V12.4546ZM333.355 13V7.73785H334.042V10.0003H337.052V7.73785H337.739V13H337.052V10.6164H334.042V13H333.355ZM338.83 11.485C338.83 11.1551 338.924 10.8723 339.112 10.6366C339.301 10.3942 339.56 10.209 339.89 10.0811C340.227 9.94638 340.614 9.87905 341.052 9.87905C341.307 9.87905 341.573 9.89925 341.849 9.93965C342.126 9.98005 342.371 10.0407 342.587 10.1215V9.67705C342.587 9.23265 342.455 8.87915 342.193 8.61655C341.93 8.35395 341.567 8.22265 341.102 8.22265C340.819 8.22265 340.54 8.27652 340.264 8.38425C339.994 8.48525 339.712 8.63675 339.415 8.83875L339.153 8.35395C339.496 8.11828 339.833 7.94322 340.163 7.82875C340.493 7.70755 340.829 7.64695 341.173 7.64695C341.819 7.64695 342.331 7.83212 342.708 8.20245C343.085 8.57278 343.274 9.08452 343.274 9.73765V12.1718C343.274 12.2661 343.294 12.3368 343.334 12.3839C343.375 12.4243 343.439 12.4479 343.526 12.4546V13C343.452 13.0067 343.388 13.0135 343.334 13.0202C343.28 13.0269 343.24 13.0269 343.213 13.0202C343.045 13.0135 342.917 12.9596 342.829 12.8586C342.742 12.7576 342.695 12.6499 342.688 12.5354L342.678 12.1516C342.442 12.4546 342.136 12.6903 341.759 12.8586C341.382 13.0202 340.998 13.101 340.607 13.101C340.271 13.101 339.964 13.0303 339.688 12.8889C339.419 12.7408 339.207 12.5455 339.052 12.3031C338.904 12.054 338.83 11.7813 338.83 11.485ZM342.354 11.889C342.429 11.7947 342.486 11.7038 342.526 11.6163C342.567 11.5288 342.587 11.4513 342.587 11.384V10.6164C342.358 10.5289 342.119 10.4615 341.87 10.4144C341.627 10.3673 341.382 10.3437 341.132 10.3437C340.641 10.3437 340.244 10.4413 339.941 10.6366C339.638 10.8319 339.486 11.0978 339.486 11.4345C339.486 11.6298 339.537 11.8149 339.638 11.99C339.739 12.1583 339.887 12.2997 340.082 12.4142C340.277 12.5219 340.506 12.5758 340.769 12.5758C341.099 12.5758 341.405 12.5118 341.688 12.3839C341.977 12.256 342.2 12.091 342.354 11.889Z" fill="black"/>
<path d="M292.178 23V16.4875H293.028V19.275H294.003L296.191 16.4875H297.166L294.678 19.65L297.478 23H296.478L294.003 20.0625H293.028V23H292.178ZM301.118 23.125C300.652 23.125 300.218 23.0375 299.818 22.8625C299.427 22.6792 299.085 22.4333 298.793 22.125C298.51 21.8083 298.289 21.45 298.131 21.05C297.972 20.6417 297.893 20.2125 297.893 19.7625C297.893 19.2958 297.972 18.8625 298.131 18.4625C298.289 18.0542 298.514 17.6958 298.806 17.3875C299.097 17.0708 299.439 16.825 299.831 16.65C300.231 16.4667 300.664 16.375 301.131 16.375C301.597 16.375 302.027 16.4667 302.418 16.65C302.81 16.825 303.152 17.0708 303.443 17.3875C303.735 17.6958 303.96 18.0542 304.118 18.4625C304.277 18.8625 304.356 19.2958 304.356 19.7625C304.356 20.2125 304.277 20.6417 304.118 21.05C303.96 21.45 303.735 21.8083 303.443 22.125C303.16 22.4333 302.818 22.6792 302.418 22.8625C302.027 23.0375 301.593 23.125 301.118 23.125ZM298.756 19.775C298.756 20.2583 298.86 20.7 299.068 21.1C299.285 21.4917 299.572 21.8042 299.931 22.0375C300.289 22.2625 300.685 22.375 301.118 22.375C301.552 22.375 301.947 22.2583 302.306 22.025C302.664 21.7917 302.952 21.475 303.168 21.075C303.385 20.6667 303.493 20.225 303.493 19.75C303.493 19.2667 303.385 18.825 303.168 18.425C302.952 18.025 302.664 17.7083 302.306 17.475C301.947 17.2417 301.552 17.125 301.118 17.125C300.685 17.125 300.289 17.2458 299.931 17.4875C299.581 17.7292 299.297 18.05 299.081 18.45C298.864 18.8417 298.756 19.2833 298.756 19.775ZM305.765 23V16.4875H306.64L309.227 20.975L311.827 16.4875H312.665V23H311.852V17.7625L309.502 21.8375H308.952L306.577 17.7625V23H305.765ZM314.529 23V16.4875H319.767V23H318.917V17.25H315.379V23H314.529ZM321.121 21.125C321.121 20.7167 321.238 20.3667 321.471 20.075C321.705 19.775 322.026 19.5458 322.434 19.3875C322.851 19.2208 323.33 19.1375 323.871 19.1375C324.188 19.1375 324.517 19.1625 324.859 19.2125C325.201 19.2625 325.505 19.3375 325.771 19.4375V18.8875C325.771 18.3375 325.609 17.9 325.284 17.575C324.959 17.25 324.509 17.0875 323.934 17.0875C323.584 17.0875 323.238 17.1542 322.896 17.2875C322.563 17.4125 322.213 17.6 321.846 17.85L321.521 17.25C321.946 16.9583 322.363 16.7417 322.771 16.6C323.18 16.45 323.596 16.375 324.021 16.375C324.821 16.375 325.455 16.6042 325.921 17.0625C326.388 17.5208 326.621 18.1542 326.621 18.9625V21.975C326.621 22.0917 326.646 22.1792 326.696 22.2375C326.746 22.2875 326.826 22.3167 326.934 22.325V23C326.842 23.0083 326.763 23.0167 326.696 23.025C326.63 23.0333 326.58 23.0333 326.546 23.025C326.338 23.0167 326.18 22.95 326.071 22.825C325.963 22.7 325.905 22.5667 325.896 22.425L325.884 21.95C325.592 22.325 325.213 22.6167 324.746 22.825C324.28 23.025 323.805 23.125 323.321 23.125C322.905 23.125 322.526 23.0375 322.184 22.8625C321.851 22.6792 321.588 22.4375 321.396 22.1375C321.213 21.8292 321.121 21.4917 321.121 21.125ZM325.484 21.625C325.576 21.5083 325.646 21.3958 325.696 21.2875C325.746 21.1792 325.771 21.0833 325.771 21V20.05C325.488 19.9417 325.192 19.8583 324.884 19.8C324.584 19.7417 324.28 19.7125 323.971 19.7125C323.363 19.7125 322.871 19.8333 322.496 20.075C322.121 20.3167 321.934 20.6458 321.934 21.0625C321.934 21.3042 321.996 21.5333 322.121 21.75C322.246 21.9583 322.43 22.1333 322.671 22.275C322.913 22.4083 323.196 22.475 323.521 22.475C323.93 22.475 324.309 22.3958 324.659 22.2375C325.017 22.0792 325.292 21.875 325.484 21.625ZM328.446 23V16.4875H329.296V19.2875H333.021V16.4875H333.871V23H333.021V20.05H329.296V23H328.446ZM335.746 23V16.4875H336.596V23H335.746ZM335.746 15.125V13.875H336.596V15.125H335.746ZM337.98 23L339.918 20.3375C339.476 20.2708 339.118 20.0792 338.843 19.7625C338.576 19.4375 338.443 18.9958 338.443 18.4375C338.443 18.0625 338.53 17.7292 338.705 17.4375C338.88 17.1458 339.126 16.9125 339.443 16.7375C339.768 16.5625 340.147 16.475 340.58 16.475H343.068V23H342.218V20.475H340.768L338.93 23H337.98ZM340.568 19.825H342.218V17.15H340.718C340.284 17.15 339.939 17.275 339.68 17.525C339.422 17.7667 339.293 18.075 339.293 18.45C339.293 18.8333 339.397 19.1583 339.605 19.425C339.822 19.6917 340.143 19.825 340.568 19.825Z" fill="black"/>
<path d="M31.651 15.44C31.651 14.53 31.812 13.641 32.134 12.773C32.47 11.891 32.953 11.093 33.583 10.379C34.213 9.65099 34.983 9.07699 35.893 8.65699C36.803 8.22299 37.839 8.00599 39.001 8.00599C40.373 8.00599 41.556 8.30699 42.55 8.90899C43.558 9.51099 44.307 10.295 44.797 11.261L42.571 12.794C42.319 12.234 41.99 11.793 41.584 11.471C41.178 11.135 40.744 10.904 40.282 10.778C39.82 10.638 39.365 10.568 38.917 10.568C38.189 10.568 37.552 10.715 37.006 11.009C36.474 11.303 36.026 11.688 35.662 12.164C35.298 12.64 35.025 13.172 34.843 13.76C34.675 14.348 34.591 14.936 34.591 15.524C34.591 16.182 34.696 16.819 34.906 17.435C35.116 18.037 35.41 18.576 35.788 19.052C36.18 19.514 36.642 19.885 37.174 20.165C37.72 20.431 38.315 20.564 38.959 20.564C39.421 20.564 39.89 20.487 40.366 20.333C40.842 20.179 41.283 19.934 41.689 19.598C42.095 19.262 42.41 18.828 42.634 18.296L45.007 19.661C44.713 20.403 44.23 21.033 43.558 21.551C42.9 22.069 42.158 22.461 41.332 22.727C40.506 22.993 39.687 23.126 38.875 23.126C37.811 23.126 36.838 22.909 35.956 22.475C35.074 22.027 34.311 21.439 33.667 20.711C33.037 19.969 32.54 19.143 32.176 18.233C31.826 17.309 31.651 16.378 31.651 15.44ZM46.9925 23V8.08999H59.0675V23H56.1905V10.631H49.8695V23H46.9925ZM62.2083 23V8.08999H65.1063V23H62.2083ZM77.7091 23V10.631H73.3411L73.2571 13.151C73.1871 15.125 73.0261 16.756 72.7741 18.044C72.5221 19.332 72.1581 20.347 71.6821 21.089C71.2061 21.817 70.6041 22.335 69.8761 22.643C69.1621 22.937 68.3011 23.084 67.2931 23.084V20.585C67.8111 20.585 68.2591 20.473 68.6371 20.249C69.0151 20.025 69.3301 19.619 69.5821 19.031C69.8481 18.443 70.0581 17.61 70.2121 16.532C70.3661 15.454 70.4711 14.061 70.5271 12.353L70.6741 8.08999H80.5861V23H77.7091ZM83.763 23V8.08999H86.64V14.096H88.11L92.541 8.08999H95.775L90.357 15.314L96.195 23H92.688L88.068 16.721H86.64V23H83.763ZM102.232 8.08999H105.172L110.653 23H107.671L106.285 19.283H101.077L99.712 23H96.73L102.232 8.08999ZM105.76 17.246L103.702 11.093L101.56 17.246H105.76ZM121.507 23.147C120.289 23.147 119.197 22.902 118.231 22.412C117.265 21.922 116.502 21.236 115.942 20.354L118.105 19.01C118.455 19.542 118.91 19.969 119.47 20.291C120.03 20.599 120.688 20.753 121.444 20.753C122.34 20.753 123.005 20.557 123.439 20.165C123.887 19.773 124.111 19.255 124.111 18.611C124.111 18.191 124.013 17.827 123.817 17.519C123.635 17.197 123.355 16.952 122.977 16.784C122.599 16.602 122.123 16.511 121.549 16.511H119.764V14.306H121.57C122.018 14.306 122.396 14.229 122.704 14.075C123.026 13.907 123.264 13.683 123.418 13.403C123.586 13.123 123.67 12.801 123.67 12.437C123.67 12.059 123.579 11.73 123.397 11.45C123.229 11.17 122.97 10.953 122.62 10.799C122.284 10.631 121.85 10.547 121.318 10.547C120.562 10.547 119.911 10.701 119.365 11.009C118.819 11.303 118.399 11.695 118.105 12.185L116.026 10.715C116.586 9.88899 117.3 9.22399 118.168 8.71999C119.05 8.21599 120.142 7.96399 121.444 7.96399C122.48 7.96399 123.369 8.12499 124.111 8.44699C124.853 8.75499 125.427 9.20999 125.833 9.81199C126.253 10.414 126.463 11.142 126.463 11.996C126.463 12.682 126.295 13.326 125.959 13.928C125.637 14.516 125.119 14.971 124.405 15.293C125.245 15.545 125.889 15.993 126.337 16.637C126.799 17.281 127.03 18.03 127.03 18.884C127.03 19.808 126.785 20.592 126.295 21.236C125.819 21.866 125.168 22.342 124.342 22.664C123.516 22.986 122.571 23.147 121.507 23.147ZM133.117 8.08999H136.057L141.538 23H138.556L137.17 19.283H131.962L130.597 23H127.615L133.117 8.08999ZM136.645 17.246L134.587 11.093L132.445 17.246H136.645ZM143.215 23V8.08999H153.967V10.589H146.092V14.18H150.145C151.811 14.18 153.064 14.572 153.904 15.356C154.744 16.14 155.164 17.19 155.164 18.506C155.164 19.388 154.982 20.165 154.618 20.837C154.254 21.509 153.715 22.041 153.001 22.433C152.287 22.811 151.384 23 150.292 23H143.215ZM146.092 20.501H149.893C150.453 20.501 150.901 20.403 151.237 20.207C151.573 19.997 151.818 19.738 151.972 19.43C152.126 19.108 152.203 18.772 152.203 18.422C152.203 18.072 152.133 17.75 151.993 17.456C151.867 17.148 151.636 16.903 151.3 16.721C150.964 16.525 150.481 16.427 149.851 16.427H146.092V20.501ZM158.649 23.105V20.711H159.825C160.189 20.711 160.462 20.634 160.644 20.48C160.826 20.326 160.987 20.081 161.127 19.745L161.463 19.01L155.541 8.08999H158.733L162.744 16.07L166.23 8.08999H169.275L163.332 21.11C162.968 21.852 162.555 22.37 162.093 22.664C161.631 22.958 161.015 23.105 160.245 23.105H158.649ZM169.689 25.856V20.459H170.487C170.865 20.459 171.194 20.312 171.474 20.018C171.754 19.724 171.992 19.255 172.188 18.611C172.384 17.967 172.538 17.134 172.65 16.112C172.776 15.076 172.86 13.823 172.902 12.353L173.028 8.08999H182.961V20.459H184.935V25.856H182.394V23H172.23V25.856H169.689ZM173.952 20.459H180.084V10.631H175.653L175.611 12.731C175.569 14.187 175.485 15.426 175.359 16.448C175.247 17.47 175.079 18.31 174.855 18.968C174.645 19.626 174.344 20.123 173.952 20.459ZM187.183 23V8.08999H190.081V23H187.183ZM205.204 19.157C205.204 19.997 204.987 20.704 204.553 21.278C204.119 21.838 203.531 22.265 202.789 22.559C202.061 22.853 201.263 23 200.395 23H193.192V8.08999H201.172C201.872 8.08999 202.474 8.27899 202.978 8.65699C203.496 9.02099 203.888 9.49699 204.154 10.085C204.434 10.659 204.574 11.261 204.574 11.891C204.574 12.605 204.392 13.284 204.028 13.928C203.664 14.572 203.132 15.048 202.432 15.356C203.286 15.608 203.958 16.063 204.448 16.721C204.952 17.379 205.204 18.191 205.204 19.157ZM202.285 18.611C202.285 18.233 202.208 17.897 202.054 17.603C201.9 17.295 201.69 17.057 201.424 16.889C201.172 16.707 200.878 16.616 200.542 16.616H196.09V20.543H200.395C200.745 20.543 201.06 20.459 201.34 20.291C201.634 20.109 201.865 19.871 202.033 19.577C202.201 19.283 202.285 18.961 202.285 18.611ZM196.09 10.568V14.327H199.954C200.276 14.327 200.57 14.25 200.836 14.096C201.102 13.942 201.312 13.725 201.466 13.445C201.634 13.165 201.718 12.829 201.718 12.437C201.718 12.059 201.641 11.73 201.487 11.45C201.347 11.17 201.151 10.953 200.899 10.799C200.661 10.645 200.388 10.568 200.08 10.568H196.09ZM220.002 8.08999V23H217.125V16.637H210.363V23H207.465V8.08999H210.363V14.117H217.125V8.08999H220.002ZM223.218 23V8.08999H226.095V18.926L233.319 8.08999H236.007V23H233.13V12.29L225.99 23H223.218ZM239.253 23V8.08999H242.13V14.096H243.6L248.031 8.08999H251.265L245.847 15.314L251.685 23H248.178L243.558 16.721H242.13V23H239.253ZM253.669 23V8.08999H256.567V23H253.669ZM271.69 19.157C271.69 19.997 271.473 20.704 271.039 21.278C270.605 21.838 270.017 22.265 269.275 22.559C268.547 22.853 267.749 23 266.881 23H259.678V8.08999H267.658C268.358 8.08999 268.96 8.27899 269.464 8.65699C269.982 9.02099 270.374 9.49699 270.64 10.085C270.92 10.659 271.06 11.261 271.06 11.891C271.06 12.605 270.878 13.284 270.514 13.928C270.15 14.572 269.618 15.048 268.918 15.356C269.772 15.608 270.444 16.063 270.934 16.721C271.438 17.379 271.69 18.191 271.69 19.157ZM268.771 18.611C268.771 18.233 268.694 17.897 268.54 17.603C268.386 17.295 268.176 17.057 267.91 16.889C267.658 16.707 267.364 16.616 267.028 16.616H262.576V20.543H266.881C267.231 20.543 267.546 20.459 267.826 20.291C268.12 20.109 268.351 19.871 268.519 19.577C268.687 19.283 268.771 18.961 268.771 18.611ZM262.576 10.568V14.327H266.44C266.762 14.327 267.056 14.25 267.322 14.096C267.588 13.942 267.798 13.725 267.952 13.445C268.12 13.165 268.204 12.829 268.204 12.437C268.204 12.059 268.127 11.73 267.973 11.45C267.833 11.17 267.637 10.953 267.385 10.799C267.147 10.645 266.874 10.568 266.566 10.568H262.576Z" fill="black"/>
<path fill-rule="evenodd" clip-rule="evenodd" d="M10.22 10.5113C10.22 10.5113 10.8999 11.7942 11.675 12.4424C12.4507 13.0907 12.1831 13.9647 11.5495 14.5216C10.4092 15.5237 10.1752 17.4936 10.1402 17.5567L9.97617 17.8997C9.94124 17.837 9.63673 15.4234 8.44247 14.5386C7.76202 14.0348 7.4827 13.058 8.31696 12.4608C9.63772 11.5149 10.1047 9.93945 10.1047 9.93945L10.22 10.5113Z" fill="#DFE160"/>
<path fill-rule="evenodd" clip-rule="evenodd" d="M10.2517 15.4034C10.2517 15.4034 11.2294 14.9352 10.8925 14.7164C10.479 14.4486 10.1097 15.2147 10.2517 15.4034Z" fill="#FBFBFB"/>
<path fill-rule="evenodd" clip-rule="evenodd" d="M10.356 14.5904C10.356 14.5904 11.4237 14.3211 11.1481 14.0424C10.8107 13.7008 10.2639 14.3785 10.356 14.5904Z" fill="#FBFBFB"/>
<path fill-rule="evenodd" clip-rule="evenodd" d="M10.4162 14.0039C10.4162 14.0039 11.6527 13.6922 11.3338 13.3696C10.9428 12.9741 10.3097 13.7586 10.4162 14.0039Z" fill="#FBFBFB"/>
<path fill-rule="evenodd" clip-rule="evenodd" d="M10.463 13.2651C10.463 13.2651 11.3867 13.0323 11.1481 12.791C10.856 12.4955 10.3833 13.0817 10.463 13.2651Z" fill="#FBFBFB"/>
<path fill-rule="evenodd" clip-rule="evenodd" d="M10.4767 12.7184C10.4767 12.7184 11.1885 12.3766 10.9426 12.2175C10.6417 12.0228 10.3732 12.581 10.4767 12.7184Z" fill="#FBFBFB"/>
<path fill-rule="evenodd" clip-rule="evenodd" d="M10.4655 12.2201C10.4655 12.2201 11.0847 11.7564 10.8075 11.6456C10.4671 11.5101 10.3327 12.1046 10.4655 12.2201Z" fill="#FBFBFB"/>
<path fill-rule="evenodd" clip-rule="evenodd" d="M9.9239 15.4051C9.9239 15.4051 8.94563 14.9475 9.28251 14.7251C9.6965 14.4527 10.0653 15.2147 9.9239 15.4051Z" fill="#FBFBFB"/>
<path fill-rule="evenodd" clip-rule="evenodd" d="M9.95142 15.9364C9.95142 15.9364 9.2879 15.6262 9.51678 15.4753C9.79718 15.2904 10.0475 15.8073 9.95142 15.9364Z" fill="#FBFBFB"/>
<path fill-rule="evenodd" clip-rule="evenodd" d="M9.819 14.5934C9.819 14.5934 8.75123 14.3359 9.02693 14.0542C9.36488 13.7089 9.91148 14.3806 9.819 14.5934Z" fill="#FBFBFB"/>
<path fill-rule="evenodd" clip-rule="evenodd" d="M9.75809 14.0073C9.75809 14.0073 8.52212 13.7092 8.84051 13.383C9.23196 12.9832 9.8646 13.7609 9.75809 14.0073Z" fill="#FBFBFB"/>
<path fill-rule="evenodd" clip-rule="evenodd" d="M9.7121 13.2695C9.7121 13.2695 8.78841 13.0468 9.02654 12.8029C9.31866 12.5041 9.79186 13.0852 9.7121 13.2695Z" fill="#FBFBFB"/>
<path fill-rule="evenodd" clip-rule="evenodd" d="M9.6983 12.723C9.6983 12.723 8.98648 12.389 9.23229 12.2271C9.53374 12.0291 9.80159 12.5844 9.6983 12.723Z" fill="#FBFBFB"/>
<path fill-rule="evenodd" clip-rule="evenodd" d="M9.70906 12.2243C9.70906 12.2243 9.0898 11.7674 9.36756 11.6537C9.70749 11.5145 9.84175 12.1073 9.70906 12.2243Z" fill="#FBFBFB"/>
<path fill-rule="evenodd" clip-rule="evenodd" d="M9.92435 11.7171C9.92435 11.7171 9.42746 11.3504 9.65023 11.259C9.92336 11.1474 10.0314 11.6232 9.92435 11.7171Z" fill="#FBFBFB"/>
<path fill-rule="evenodd" clip-rule="evenodd" d="M10.1731 15.9349C10.1731 15.9349 10.8366 15.6175 10.6082 15.469C10.3274 15.2873 10.0774 15.8069 10.1731 15.9349Z" fill="#FBFBFB"/>
<path fill-rule="evenodd" clip-rule="evenodd" d="M10.2006 11.7158C10.2006 11.7158 10.6974 11.3437 10.4752 11.2548C10.2021 11.1461 10.0941 11.623 10.2006 11.7158Z" fill="#FBFBFB"/>
<path fill-rule="evenodd" clip-rule="evenodd" d="M4.03017 22.6184C4.03017 22.6184 3.93653 21.245 5.0834 20.76C6.23094 20.2749 8.26715 20.3262 8.57166 19.4504C9.06327 20.197 9.11116 21.7994 7.96371 22.1182C6.81626 22.4366 4.75577 21.6778 4.03017 22.6184Z" fill="#2F4838"/>
<path fill-rule="evenodd" clip-rule="evenodd" d="M4.53906 21.8821C4.53906 21.8821 5.19432 21.0823 6.60459 20.9495C8.01543 20.8171 8.4191 20.5806 8.50704 20.3459C8.47162 20.6585 7.87655 20.9514 6.72084 21.0747C6.08408 21.1399 5.41701 21.1749 4.53906 21.8821Z" fill="#FBFBFB"/>
<path fill-rule="evenodd" clip-rule="evenodd" d="M8.39635 20.8407C8.39635 20.8407 8.5193 21.735 8.15616 21.6277C7.71178 21.4963 8.16236 20.8471 8.39635 20.8407Z" fill="#FBFBFB"/>
<path fill-rule="evenodd" clip-rule="evenodd" d="M8.18044 20.4602C8.18044 20.4602 7.45731 20.6049 7.52163 20.3625C7.60081 20.0654 8.16038 20.3096 8.18044 20.4602Z" fill="#FBFBFB"/>
<path fill-rule="evenodd" clip-rule="evenodd" d="M7.47575 20.618C7.47575 20.618 6.84154 20.7446 6.8981 20.5322C6.96754 20.2721 7.45766 20.4858 7.47575 20.618Z" fill="#FBFBFB"/>
<path fill-rule="evenodd" clip-rule="evenodd" d="M6.77452 20.7069C6.77452 20.7069 6.2247 20.8168 6.27358 20.6327C6.33369 20.4069 6.759 20.5925 6.77452 20.7069Z" fill="#FBFBFB"/>
<path fill-rule="evenodd" clip-rule="evenodd" d="M6.14225 20.8174C6.14225 20.8174 5.59243 20.9273 5.64181 20.7431C5.702 20.5175 6.12681 20.7029 6.14225 20.8174Z" fill="#FBFBFB"/>
<path fill-rule="evenodd" clip-rule="evenodd" d="M5.62204 20.9754C5.62204 20.9754 5.09377 21.1511 5.11384 20.9628C5.1391 20.732 5.58902 20.8637 5.62204 20.9754Z" fill="#FBFBFB"/>
<path fill-rule="evenodd" clip-rule="evenodd" d="M5.14702 21.1999C5.14702 21.1999 4.6872 21.4908 4.65219 21.3046C4.60901 21.0761 5.0827 21.0999 5.14702 21.1999Z" fill="#FBFBFB"/>
<path fill-rule="evenodd" clip-rule="evenodd" d="M7.75161 21.0647C7.75161 21.0647 7.86836 21.9162 7.52323 21.8143C7.09999 21.689 7.52893 21.0706 7.75161 21.0647Z" fill="#FBFBFB"/>
<path fill-rule="evenodd" clip-rule="evenodd" d="M7.05452 21.2307C7.05452 21.2307 7.15888 21.9906 6.85082 21.8993C6.47282 21.7879 6.85544 21.2363 7.05452 21.2307Z" fill="#FBFBFB"/>
<path fill-rule="evenodd" clip-rule="evenodd" d="M6.42067 21.3772C6.42067 21.3772 6.31374 21.9648 6.10641 21.8377C5.85235 21.6819 6.27105 21.3433 6.42067 21.3772Z" fill="#FBFBFB"/>
<path fill-rule="evenodd" clip-rule="evenodd" d="M5.78234 21.4841C5.78234 21.4841 5.68979 21.9933 5.5097 21.8831C5.28966 21.748 5.65271 21.4545 5.78234 21.4841Z" fill="#FBFBFB"/>
<path fill-rule="evenodd" clip-rule="evenodd" d="M5.27303 21.6051C5.27303 21.6051 5.10071 22.0979 4.94028 21.9663C4.74435 21.8048 5.15009 21.5597 5.27303 21.6051Z" fill="#FBFBFB"/>
<path fill-rule="evenodd" clip-rule="evenodd" d="M15.9182 22.5215C15.9182 22.5215 16.0118 21.1467 14.8648 20.6745C13.7179 20.202 11.6812 20.2757 11.3771 19.403C10.8855 20.1551 10.8371 21.7582 11.985 22.064C13.1326 22.37 15.1924 21.5886 15.9182 22.5215Z" fill="#2F4838"/>
<path fill-rule="evenodd" clip-rule="evenodd" d="M15.4089 21.7903C15.4089 21.7903 14.7541 20.9975 13.3434 20.8804C11.9326 20.7632 11.5288 20.5312 11.4414 20.2976C11.4763 20.6096 12.0719 20.8961 13.2276 21.0069C13.8638 21.0648 14.5314 21.0925 15.4089 21.7903Z" fill="#FBFBFB"/>
<path fill-rule="evenodd" clip-rule="evenodd" d="M11.5523 20.7911C11.5523 20.7911 11.4294 21.6869 11.792 21.5757C12.2369 21.4394 11.7864 20.795 11.5523 20.7911Z" fill="#FBFBFB"/>
<path fill-rule="evenodd" clip-rule="evenodd" d="M11.7676 20.4085C11.7676 20.4085 12.4911 20.5452 12.4269 20.3032C12.3478 20.0071 11.7876 20.2573 11.7676 20.4085Z" fill="#FBFBFB"/>
<path fill-rule="evenodd" clip-rule="evenodd" d="M12.4727 20.5588C12.4727 20.5588 13.1063 20.6785 13.0502 20.4669C12.9809 20.2073 12.4902 20.4265 12.4727 20.5588Z" fill="#FBFBFB"/>
<path fill-rule="evenodd" clip-rule="evenodd" d="M13.1748 20.6399C13.1748 20.6399 13.7246 20.7437 13.6757 20.5599C13.6151 20.3348 13.1902 20.525 13.1748 20.6399Z" fill="#FBFBFB"/>
<path fill-rule="evenodd" clip-rule="evenodd" d="M13.8066 20.7437C13.8066 20.7437 14.3565 20.8473 14.3071 20.6639C14.247 20.4387 13.8221 20.6289 13.8066 20.7437Z" fill="#FBFBFB"/>
<path fill-rule="evenodd" clip-rule="evenodd" d="M14.3271 20.8957C14.3271 20.8957 14.8553 21.0653 14.8347 20.8775C14.8101 20.6469 14.3599 20.7836 14.3271 20.8957Z" fill="#FBFBFB"/>
<path fill-rule="evenodd" clip-rule="evenodd" d="M14.8018 21.1151C14.8018 21.1151 15.2615 21.4007 15.297 21.2141C15.3397 20.9852 14.866 21.0143 14.8018 21.1151Z" fill="#FBFBFB"/>
<path fill-rule="evenodd" clip-rule="evenodd" d="M12.1969 21.0084C12.1969 21.0084 12.0796 21.8615 12.4253 21.7556C12.8486 21.6256 12.4196 21.0122 12.1969 21.0084Z" fill="#FBFBFB"/>
<path fill-rule="evenodd" clip-rule="evenodd" d="M12.894 21.1666C12.894 21.1666 12.7896 21.9274 13.0976 21.8329C13.4751 21.7171 13.0925 21.1699 12.894 21.1666Z" fill="#FBFBFB"/>
<path fill-rule="evenodd" clip-rule="evenodd" d="M13.5273 21.3062C13.5273 21.3062 13.6338 21.8924 13.8416 21.7632C14.0957 21.6045 13.6765 21.2705 13.5273 21.3062Z" fill="#FBFBFB"/>
<path fill-rule="evenodd" clip-rule="evenodd" d="M14.166 21.4061C14.166 21.4061 14.2585 21.9144 14.438 21.8022C14.6581 21.6648 14.2956 21.3753 14.166 21.4061Z" fill="#FBFBFB"/>
<path fill-rule="evenodd" clip-rule="evenodd" d="M14.6758 21.5217C14.6758 21.5217 14.8485 22.0127 15.0084 21.8792C15.205 21.7157 14.7991 21.475 14.6758 21.5217Z" fill="#FBFBFB"/>
<path fill-rule="evenodd" clip-rule="evenodd" d="M7.39901 8.62703C7.39901 8.62703 8.85865 7.86955 8.84065 6.4957C8.82314 5.12194 8.08614 4.72 8.54233 3.32815C8.9991 1.93605 9.05153 1.26452 8.63026 0.736084C8.66527 1.26658 8.52483 1.92308 7.84034 2.37968C7.15576 2.8362 5.85598 3.85798 5.99692 4.95019C6.13737 6.04224 7.85363 6.84464 7.39901 8.62703Z" fill="#00A463"/>
<path fill-rule="evenodd" clip-rule="evenodd" d="M8.10706 7.10916C8.10706 7.10916 8.90583 6.5496 8.56276 6.4004C8.14207 6.21751 7.94556 6.95922 8.10706 7.10916Z" fill="#FBFBFB"/>
<path fill-rule="evenodd" clip-rule="evenodd" d="M7.53563 6.80459C7.53563 6.80459 6.73637 6.25378 7.07993 6.10078C7.50062 5.91335 7.69705 6.65291 7.53563 6.80459Z" fill="#FBFBFB"/>
<path fill-rule="evenodd" clip-rule="evenodd" d="M7.39821 5.96174C7.39821 5.96174 6.61744 5.65756 6.86333 5.4703C7.16471 5.24084 7.49539 5.80858 7.39821 5.96174Z" fill="#FBFBFB"/>
<path fill-rule="evenodd" clip-rule="evenodd" d="M7.2453 5.34973C7.2453 5.34973 6.56221 5.08344 6.77722 4.91963C7.04111 4.71882 7.33067 5.21555 7.2453 5.34973Z" fill="#FBFBFB"/>
<path fill-rule="evenodd" clip-rule="evenodd" d="M7.15623 4.77052C7.15623 4.77052 6.58734 4.54899 6.76626 4.41258C6.98598 4.24571 7.22675 4.65913 7.15623 4.77052Z" fill="#FBFBFB"/>
<path fill-rule="evenodd" clip-rule="evenodd" d="M7.09266 4.27309C7.09266 4.27309 6.69658 4.11861 6.8211 4.02366C6.97434 3.90732 7.14196 4.1954 7.09266 4.27309Z" fill="#FBFBFB"/>
<path fill-rule="evenodd" clip-rule="evenodd" d="M7.12504 3.91375C7.12504 3.91375 6.78503 3.67628 6.93266 3.6118C7.11324 3.53286 7.1944 3.84943 7.12504 3.91375Z" fill="#FBFBFB"/>
<path fill-rule="evenodd" clip-rule="evenodd" d="M7.99659 6.43385C7.99659 6.43385 8.75357 5.90336 8.42867 5.762C8.02962 5.58886 7.84384 6.29159 7.99659 6.43385Z" fill="#FBFBFB"/>
<path fill-rule="evenodd" clip-rule="evenodd" d="M7.89425 5.79912C7.89425 5.79912 8.51087 5.36679 8.24599 5.25153C7.92092 5.11017 7.76916 5.68319 7.89425 5.79912Z" fill="#FBFBFB"/>
<path fill-rule="evenodd" clip-rule="evenodd" d="M7.72834 5.23426C7.72834 5.23426 8.31045 4.82654 8.06051 4.7178C7.75402 4.58445 7.61101 5.12478 7.72834 5.23426Z" fill="#FBFBFB"/>
<path fill-rule="evenodd" clip-rule="evenodd" d="M7.6231 4.68392C7.6231 4.68392 8.20537 4.27629 7.95494 4.16763C7.64837 4.03428 7.50536 4.57469 7.6231 4.68392Z" fill="#FBFBFB"/>
<path fill-rule="evenodd" clip-rule="evenodd" d="M7.55387 4.05503C7.55387 4.05503 8.08512 3.77942 7.89381 3.66407C7.65931 3.5228 7.47155 3.9529 7.55387 4.05503Z" fill="#FBFBFB"/>
<path fill-rule="evenodd" clip-rule="evenodd" d="M7.7561 3.45432C7.7561 3.45432 8.2051 3.32848 8.0848 3.2133C7.93659 3.07227 7.7144 3.36523 7.7561 3.45432Z" fill="#FBFBFB"/>
<path fill-rule="evenodd" clip-rule="evenodd" d="M7.81468 7.34448C7.81468 7.34448 7.96379 6.90654 7.77917 6.23617C7.59504 5.5658 6.99378 3.7659 7.82541 3.08215C7.48093 3.28701 7.21746 3.87398 7.31415 4.54476C7.41042 5.21555 7.91078 6.93808 7.81468 7.34448Z" fill="#FBFBFB"/>
<path fill-rule="evenodd" clip-rule="evenodd" d="M12.5929 8.5986C12.5929 8.5986 11.1332 7.85722 11.1507 6.4832C11.1687 5.10919 11.9058 4.69924 11.4495 3.31234C10.9928 1.92528 10.9404 1.25425 11.3616 0.721191C11.3265 1.2521 11.467 1.90703 12.1516 2.35612C12.8361 2.80513 14.1358 3.8127 13.9949 4.9064C13.8545 6.00002 12.1382 6.82124 12.5929 8.5986Z" fill="#00A463"/>
<path fill-rule="evenodd" clip-rule="evenodd" d="M11.8852 7.08822C11.8852 7.08822 11.0859 6.53741 11.4296 6.38449C11.8503 6.19698 12.0467 6.93654 11.8852 7.08822Z" fill="#FBFBFB"/>
<path fill-rule="evenodd" clip-rule="evenodd" d="M12.4566 6.77713C12.4566 6.77713 13.2555 6.21756 12.9124 6.06836C12.4917 5.88547 12.2952 6.62727 12.4566 6.77713Z" fill="#FBFBFB"/>
<path fill-rule="evenodd" clip-rule="evenodd" d="M12.5935 5.93339C12.5935 5.93339 13.3743 5.62062 13.1284 5.43608C12.8271 5.20993 12.4962 5.7813 12.5935 5.93339Z" fill="#FBFBFB"/>
<path fill-rule="evenodd" clip-rule="evenodd" d="M12.7467 5.31936C12.7467 5.31936 13.4296 5.04565 13.2146 4.88415C12.9509 4.68623 12.6612 5.18618 12.7467 5.31936Z" fill="#FBFBFB"/>
<path fill-rule="evenodd" clip-rule="evenodd" d="M12.8367 4.73945C12.8367 4.73945 13.4055 4.51165 13.2265 4.37723C13.007 4.21275 12.7662 4.62881 12.8367 4.73945Z" fill="#FBFBFB"/>
<path fill-rule="evenodd" clip-rule="evenodd" d="M12.8995 4.24156C12.8995 4.24156 13.2954 4.08278 13.1709 3.98915C13.0177 3.87446 12.85 4.16444 12.8995 4.24156Z" fill="#FBFBFB"/>
<path fill-rule="evenodd" clip-rule="evenodd" d="M12.8675 3.88215C12.8675 3.88215 13.2074 3.64097 13.0597 3.57813C12.8792 3.5011 12.7979 3.81865 12.8675 3.88215Z" fill="#FBFBFB"/>
<path fill-rule="evenodd" clip-rule="evenodd" d="M11.9956 6.41195C11.9956 6.41195 11.2384 5.88979 11.5635 5.7448C11.9627 5.56728 12.1484 6.26804 11.9956 6.41195Z" fill="#FBFBFB"/>
<path fill-rule="evenodd" clip-rule="evenodd" d="M12.0978 5.77616C12.0978 5.77616 11.4806 5.35052 11.7459 5.23236C12.071 5.08746 12.2228 5.65883 12.0978 5.77616Z" fill="#FBFBFB"/>
<path fill-rule="evenodd" clip-rule="evenodd" d="M12.2638 5.20974C12.2638 5.20974 11.6815 4.80847 11.9315 4.697C12.2381 4.56027 12.381 5.09902 12.2638 5.20974Z" fill="#FBFBFB"/>
<path fill-rule="evenodd" clip-rule="evenodd" d="M12.3689 4.65766C12.3689 4.65766 11.7867 4.25638 12.0372 4.145C12.3438 4.00826 12.4867 4.5471 12.3689 4.65766Z" fill="#FBFBFB"/>
<path fill-rule="evenodd" clip-rule="evenodd" d="M12.4382 4.02838C12.4382 4.02838 11.9069 3.75863 12.0982 3.64122C12.3328 3.4973 12.5204 3.92533 12.4382 4.02838Z" fill="#FBFBFB"/>
<path fill-rule="evenodd" clip-rule="evenodd" d="M12.2354 3.42968C12.2354 3.42968 11.7869 3.3088 11.9072 3.19229C12.0554 3.0497 12.2776 3.34017 12.2354 3.42968Z" fill="#FBFBFB"/>
<path fill-rule="evenodd" clip-rule="evenodd" d="M12.1777 7.32064C12.1777 7.32064 12.0292 6.88427 12.2133 6.21192C12.3974 5.53956 12.9986 3.73305 12.167 3.05847C12.5116 3.25952 12.7749 3.84361 12.6782 4.51539C12.582 5.18724 12.0815 6.91523 12.1777 7.32064Z" fill="#FBFBFB"/>
<path fill-rule="evenodd" clip-rule="evenodd" d="M15.2771 15.3515C15.2771 15.3515 14.1966 15.9587 14.2104 16.8798C13.4338 15.9317 12.3228 14.2049 14.625 11.9752C14.3468 13.1322 14.1889 14.35 15.2771 15.3515Z" fill="#69B870"/>
<path fill-rule="evenodd" clip-rule="evenodd" d="M14.4295 15.8104C14.4295 15.8104 13.6348 15.8857 13.7377 15.6332C13.8637 15.3234 14.429 15.6465 14.4295 15.8104Z" fill="#FBFBFB"/>
<path fill-rule="evenodd" clip-rule="evenodd" d="M14.4295 15.8104C14.4295 15.8104 13.6348 15.8857 13.7377 15.6332C13.8637 15.3234 14.4295 15.6465 14.4295 15.8104Z" fill="#FBFBFB"/>
<path fill-rule="evenodd" clip-rule="evenodd" d="M14.6064 15.5689C14.6064 15.5689 14.8733 15.0021 14.6135 15.0152C14.2942 15.0312 14.4541 15.5278 14.6064 15.5689Z" fill="#FBFBFB"/>
<path fill-rule="evenodd" clip-rule="evenodd" d="M14.3547 15.0534C14.3547 15.0534 14.7189 14.5308 14.4602 14.5073C14.1424 14.4781 14.2117 14.9916 14.3547 15.0534Z" fill="#FBFBFB"/>
<path fill-rule="evenodd" clip-rule="evenodd" d="M14.1947 14.5578C14.1947 14.5578 14.5582 14.0352 14.2996 14.0117C13.9822 13.9825 14.0517 14.496 14.1947 14.5578Z" fill="#FBFBFB"/>
<path fill-rule="evenodd" clip-rule="evenodd" d="M13.9944 14.0038C13.9944 14.0038 14.3581 13.481 14.0994 13.4576C13.7821 13.4283 13.8514 13.9418 13.9944 14.0038Z" fill="#FBFBFB"/>
<path fill-rule="evenodd" clip-rule="evenodd" d="M14.0807 15.2818C14.0807 15.2818 13.3878 15.3476 13.4778 15.1274C13.5875 14.8573 14.0801 15.1388 14.0807 15.2818Z" fill="#FBFBFB"/>
<path fill-rule="evenodd" clip-rule="evenodd" d="M14.0807 15.2818C14.0807 15.2818 13.3878 15.3476 13.4778 15.1274C13.5875 14.8573 14.0807 15.1388 14.0807 15.2818Z" fill="#FBFBFB"/>
<path fill-rule="evenodd" clip-rule="evenodd" d="M13.9194 14.8111C13.9194 14.8111 13.3042 14.6884 13.4529 14.5222C13.6354 14.3181 13.9656 14.688 13.9194 14.8111Z" fill="#FBFBFB"/>
<path fill-rule="evenodd" clip-rule="evenodd" d="M13.8075 14.2864C13.8075 14.2864 13.3379 14.1187 13.4799 14.0037C13.6537 13.8626 13.8619 14.194 13.8075 14.2864Z" fill="#FBFBFB"/>
<path fill-rule="evenodd" clip-rule="evenodd" d="M4.71582 15.4095C4.71582 15.4095 5.79639 16.0048 5.78301 16.9261C6.55915 15.9694 7.67003 14.2305 5.36786 12.0261C5.6462 13.1799 5.80407 14.396 4.71582 15.4095Z" fill="#69B870"/>
<path fill-rule="evenodd" clip-rule="evenodd" d="M5.5625 15.859C5.5625 15.859 6.35714 15.9256 6.25426 15.6742C6.12826 15.3658 5.563 15.6951 5.5625 15.859Z" fill="#FBFBFB"/>
<path fill-rule="evenodd" clip-rule="evenodd" d="M5.5625 15.859C5.5625 15.859 6.35714 15.9256 6.25426 15.6742C6.12826 15.3658 5.5625 15.6951 5.5625 15.859Z" fill="#FBFBFB"/>
<path fill-rule="evenodd" clip-rule="evenodd" d="M5.38545 15.62C5.38545 15.62 5.1185 15.0562 5.37826 15.0665C5.69764 15.0789 5.5377 15.5773 5.38545 15.62Z" fill="#FBFBFB"/>
<path fill-rule="evenodd" clip-rule="evenodd" d="M5.63771 15.1013C5.63771 15.1013 5.27359 14.5827 5.53227 14.5564C5.85016 14.5237 5.78072 15.038 5.63771 15.1013Z" fill="#FBFBFB"/>
<path fill-rule="evenodd" clip-rule="evenodd" d="M5.79743 14.6036C5.79743 14.6036 5.43379 14.085 5.69256 14.0587C6.00987 14.026 5.94035 14.5402 5.79743 14.6036Z" fill="#FBFBFB"/>
<path fill-rule="evenodd" clip-rule="evenodd" d="M5.99806 14.0472C5.99806 14.0472 5.63394 13.5284 5.89262 13.5022C6.21002 13.4695 6.14049 13.9836 5.99806 14.0472Z" fill="#FBFBFB"/>
<path fill-rule="evenodd" clip-rule="evenodd" d="M5.91113 15.3268C5.91113 15.3268 6.60338 15.3849 6.51338 15.1658C6.40382 14.8968 5.91113 15.1838 5.91113 15.3268Z" fill="#FBFBFB"/>
<path fill-rule="evenodd" clip-rule="evenodd" d="M5.91113 15.3268C5.91113 15.3268 6.60338 15.3849 6.51338 15.1658C6.40382 14.8968 5.91113 15.1838 5.91113 15.3268Z" fill="#FBFBFB"/>
<path fill-rule="evenodd" clip-rule="evenodd" d="M6.07276 14.8538C6.07276 14.8538 6.6879 14.7242 6.53927 14.5597C6.35663 14.3577 6.02644 14.7311 6.07276 14.8538Z" fill="#FBFBFB"/>
<path fill-rule="evenodd" clip-rule="evenodd" d="M6.18577 14.3284C6.18577 14.3284 6.65484 14.1555 6.5129 14.0421C6.3391 13.903 6.13069 14.2365 6.18577 14.3284Z" fill="#FBFBFB"/>
<path fill-rule="evenodd" clip-rule="evenodd" d="M11.2184 4.20808C11.2755 6.12325 10.0456 6.73062 10.0456 6.73062L9.99996 6.7028C9.99996 6.7028 8.79224 5.82443 8.77374 4.22154C8.75583 2.61881 9.52784 1.41802 9.99575 0C9.99575 0 11.1608 2.29308 11.2184 4.20808Z" fill="#37AC5D"/>
<path fill-rule="evenodd" clip-rule="evenodd" d="M15.2775 11.3316C15.2775 11.3316 14.8804 9.71718 13.2495 9.03228C12.7846 7.67651 13.1882 6.92481 13.8029 6.32809C14.4176 5.73146 14.4524 4.95077 14.3645 4.12377C14.3296 3.68674 14.7333 3.27869 14.7333 3.27869C14.6279 3.81001 14.7333 4.37147 15.4708 4.94524C16.2084 5.51876 17.9113 6.68033 17.8409 8.63232C17.7709 10.5842 16.0325 10.9685 15.2775 11.3316Z" fill="#138554"/>
<path fill-rule="evenodd" clip-rule="evenodd" d="M14.6784 9.40702C14.6784 9.40702 13.6744 8.46368 14.2022 8.312C14.8487 8.12631 14.9458 9.22182 14.6784 9.40702Z" fill="#FBFBFB"/>
<path fill-rule="evenodd" clip-rule="evenodd" d="M14.7881 9.78561C14.7881 9.78561 16.5759 10.4596 16.5455 9.80658C16.5076 9.00616 14.9244 9.40414 14.7881 9.78561Z" fill="#FBFBFB"/>
<path fill-rule="evenodd" clip-rule="evenodd" d="M15.459 9.11678C15.459 9.11678 17.0014 9.4014 16.8616 8.88716C16.6898 8.25667 15.5001 8.7946 15.459 9.11678Z" fill="#FBFBFB"/>
<path fill-rule="evenodd" clip-rule="evenodd" d="M15.8142 8.53661C15.8142 8.53661 17.3761 8.33316 17.046 7.89357C16.6412 7.35531 15.7287 8.22203 15.8142 8.53661Z" fill="#FBFBFB"/>
<path fill-rule="evenodd" clip-rule="evenodd" d="M15.8993 7.86927C15.8993 7.86927 17.1445 7.35611 16.7468 7.06398C16.2598 6.70621 15.7403 7.62693 15.8993 7.86927Z" fill="#FBFBFB"/>
<path fill-rule="evenodd" clip-rule="evenodd" d="M15.728 7.3369C15.728 7.3369 16.644 6.62797 16.2248 6.46779C15.7104 6.27202 15.5253 7.16665 15.728 7.3369Z" fill="#FBFBFB"/>
<path fill-rule="evenodd" clip-rule="evenodd" d="M15.5218 6.62975C15.5218 6.62975 16.2023 6.10288 15.8906 5.98398C15.5084 5.83841 15.3712 6.503 15.5218 6.62975Z" fill="#FBFBFB"/>
<path fill-rule="evenodd" clip-rule="evenodd" d="M15.3495 6.16453C15.3495 6.16453 15.8392 5.57524 15.5341 5.52463C15.1607 5.4627 15.187 6.0785 15.3495 6.16453Z" fill="#FBFBFB"/>
<path fill-rule="evenodd" clip-rule="evenodd" d="M15.1283 8.60207C15.1283 8.60207 14.147 7.81627 14.6109 7.6461C15.1787 7.4377 15.3551 8.41803 15.1283 8.60207Z" fill="#FBFBFB"/>
<path fill-rule="evenodd" clip-rule="evenodd" d="M15.2239 7.71854C15.2239 7.71854 14.2647 7.1361 14.6464 6.93984C15.1149 6.69899 15.3973 7.53466 15.2239 7.71854Z" fill="#FBFBFB"/>
<path fill-rule="evenodd" clip-rule="evenodd" d="M15.0073 6.83434C15.0073 6.83434 14.2836 6.37733 14.5784 6.23176C14.94 6.05366 15.1431 6.69613 15.0073 6.83434Z" fill="#FBFBFB"/>
<path fill-rule="evenodd" clip-rule="evenodd" d="M14.8961 6.18384C14.8961 6.18384 14.3673 5.85035 14.5829 5.74392C14.8468 5.61387 14.9953 6.08294 14.8961 6.18384Z" fill="#FBFBFB"/>
<path fill-rule="evenodd" clip-rule="evenodd" d="M14.8193 9.55944C14.8193 9.55944 15.8803 8.68958 15.5876 7.67127C15.2951 6.65296 15.0142 5.95204 15.0841 5.30652C14.932 5.95749 15.0692 6.21716 15.2287 6.80951C15.3886 7.40177 15.9703 8.37714 14.8193 9.55944Z" fill="#FBFBFB"/>
<path fill-rule="evenodd" clip-rule="evenodd" d="M4.44631 11.3909C4.44631 11.3909 4.84338 9.77214 6.47484 9.06923C6.93929 7.70835 6.53553 6.96111 5.92139 6.37108C5.30692 5.78129 5.27125 5.00102 5.35927 4.17295C5.39427 3.73558 4.99052 3.33191 4.99052 3.33191C5.09595 3.86208 4.99052 4.42478 4.25294 5.00655C3.51593 5.58816 1.81247 6.76847 1.88298 8.71972C1.95341 10.6708 3.69131 11.0361 4.44631 11.3909Z" fill="#138554"/>
<path fill-rule="evenodd" clip-rule="evenodd" d="M5.04459 9.4599C5.04459 9.4599 6.04804 8.50557 5.52093 8.35968C4.87442 8.18108 4.77658 9.27767 5.04459 9.4599Z" fill="#FBFBFB"/>
<path fill-rule="evenodd" clip-rule="evenodd" d="M4.9346 9.83941C4.9346 9.83941 3.14684 10.533 3.17714 9.8797C3.21471 9.07887 4.79778 9.45943 4.9346 9.83941Z" fill="#FBFBFB"/>
<path fill-rule="evenodd" clip-rule="evenodd" d="M4.26352 9.17827C4.26352 9.17827 2.72164 9.47981 2.86151 8.964C3.03325 8.3317 4.22289 8.8565 4.26352 9.17827Z" fill="#FBFBFB"/>
<path fill-rule="evenodd" clip-rule="evenodd" d="M3.90852 8.60213C3.90852 8.60213 2.34651 8.41585 2.6767 7.97263C3.08153 7.42991 3.9944 8.28663 3.90852 8.60213Z" fill="#FBFBFB"/>
<path fill-rule="evenodd" clip-rule="evenodd" d="M3.82348 7.936C3.82348 7.936 2.57828 7.43655 2.97576 7.14005C3.46341 6.77691 3.98235 7.69193 3.82348 7.936Z" fill="#FBFBFB"/>
<path fill-rule="evenodd" clip-rule="evenodd" d="M3.99583 7.40162C3.99583 7.40162 3.08032 6.70276 3.49951 6.53796C4.01383 6.33657 4.19845 7.22913 3.99583 7.40162Z" fill="#FBFBFB"/>
<path fill-rule="evenodd" clip-rule="evenodd" d="M4.20152 6.69175C4.20152 6.69175 3.52099 6.17231 3.83269 6.04995C4.2144 5.90025 4.35212 6.56336 4.20152 6.69175Z" fill="#FBFBFB"/>
<path fill-rule="evenodd" clip-rule="evenodd" d="M4.37354 6.22441C4.37354 6.22441 3.88392 5.64049 4.18892 5.58649C4.56238 5.52043 4.53604 6.13655 4.37354 6.22441Z" fill="#FBFBFB"/>
<path fill-rule="evenodd" clip-rule="evenodd" d="M4.59476 8.65984C4.59476 8.65984 5.57608 7.86323 5.1127 7.69818C4.54431 7.49597 4.36844 8.47836 4.59476 8.65984Z" fill="#FBFBFB"/>
<path fill-rule="evenodd" clip-rule="evenodd" d="M4.49849 7.7773C4.49849 7.7773 5.45826 7.1843 5.07606 6.99225C4.60806 6.75652 4.32568 7.59532 4.49849 7.7773Z" fill="#FBFBFB"/>
<path fill-rule="evenodd" clip-rule="evenodd" d="M4.71506 6.89092C4.71506 6.89092 5.43918 6.42597 5.14441 6.28363C4.78235 6.10957 4.57973 6.75418 4.71506 6.89092Z" fill="#FBFBFB"/>
<path fill-rule="evenodd" clip-rule="evenodd" d="M4.82666 6.2396C4.82666 6.2396 5.35535 5.90033 5.14042 5.79629C4.87604 5.66914 4.72791 6.13978 4.82666 6.2396Z" fill="#FBFBFB"/>
<path fill-rule="evenodd" clip-rule="evenodd" d="M4.90446 9.61392C4.90446 9.61392 3.84338 8.75571 4.136 7.73417C4.42871 6.71272 4.70894 6.00867 4.63901 5.36389C4.79126 6.01321 4.65395 6.27437 4.49451 6.86845C4.33516 7.46252 3.75289 8.44426 4.90446 9.61392Z" fill="#FBFBFB"/>
<path fill-rule="evenodd" clip-rule="evenodd" d="M13.2496 13.0445C13.2496 13.0445 13.6415 11.8715 14.8198 11.2718C14.9093 10.0223 13.1833 9.2823 12.4751 8.95838C11.7663 8.63439 10.4322 7.40833 10.8358 6.34436C10.1514 7.33179 9.99341 9.6745 10.59 10.5456C11.1873 11.4166 12.7132 12.5792 13.2496 13.0445Z" fill="#CBD85D"/>
<path fill-rule="evenodd" clip-rule="evenodd" d="M13.512 11.6679C13.512 11.6679 12.1686 12.1939 12.1897 11.7022C12.216 11.0992 13.4086 11.3823 13.512 11.6679Z" fill="#FBFBFB"/>
<path fill-rule="evenodd" clip-rule="evenodd" d="M13.7488 11.2526C13.7488 11.2526 14.3799 10.0736 13.8264 10.0776C13.148 10.0829 13.4309 11.1516 13.7488 11.2526Z" fill="#FBFBFB"/>
<path fill-rule="evenodd" clip-rule="evenodd" d="M13.1855 10.5812C13.1855 10.5812 13.5357 9.51531 13.0708 9.58574C12.5014 9.67227 12.9025 10.5351 13.1855 10.5812Z" fill="#FBFBFB"/>
<path fill-rule="evenodd" clip-rule="evenodd" d="M12.588 10.0868C12.588 10.0868 12.7674 9.15302 12.3806 9.25326C11.9064 9.37628 12.3426 10.0726 12.588 10.0868Z" fill="#FBFBFB"/>
<path fill-rule="evenodd" clip-rule="evenodd" d="M11.9829 9.68105C11.9829 9.68105 12.1372 8.87841 11.8049 8.96461C11.3976 9.07029 11.772 9.66891 11.9829 9.68105Z" fill="#FBFBFB"/>
<path fill-rule="evenodd" clip-rule="evenodd" d="M11.4802 9.23624C11.4802 9.23624 11.6344 8.4336 11.3022 8.51964C10.8944 8.62557 11.2693 9.22386 11.4802 9.23624Z" fill="#FBFBFB"/>
<path fill-rule="evenodd" clip-rule="evenodd" d="M12.8487 11.0586C12.8487 11.0586 11.657 11.5253 11.676 11.089C11.6992 10.5543 12.7566 10.8054 12.8487 11.0586Z" fill="#FBFBFB"/>
<path fill-rule="evenodd" clip-rule="evenodd" d="M12.2594 10.4894C12.2594 10.4894 11.2225 10.8953 11.2385 10.5157C11.2585 10.0504 12.1792 10.2688 12.2594 10.4894Z" fill="#FBFBFB"/>
<path fill-rule="evenodd" clip-rule="evenodd" d="M11.5821 10.0424C11.5821 10.0424 10.7118 10.3832 10.7258 10.0644C10.7427 9.67393 11.5152 9.85732 11.5821 10.0424Z" fill="#FBFBFB"/>
<path fill-rule="evenodd" clip-rule="evenodd" d="M13.7329 11.5898C13.7329 11.5898 13.2864 10.8076 12.193 10.1131C11.099 9.41868 10.6067 8.8038 10.6952 7.89819C10.4669 8.51663 11.0989 9.4499 11.6956 9.88371C12.2928 10.3177 12.9428 10.7355 13.7329 11.5898Z" fill="#FBFBFB"/>
<path fill-rule="evenodd" clip-rule="evenodd" d="M6.75429 13.0801C6.75429 13.0801 6.36234 11.9113 5.18401 11.3245C5.09459 10.076 6.82059 9.31709 7.52878 8.98534C8.23763 8.65366 9.57168 7.41291 9.168 6.35339C9.85257 7.33331 10.0109 9.67428 9.41381 10.5519C8.81676 11.4294 7.29016 12.6088 6.75429 13.0801Z" fill="#CBD85D"/>
<path fill-rule="evenodd" clip-rule="evenodd" d="M6.49121 11.7066C6.49121 11.7066 7.83468 12.2178 7.81354 11.7263C7.78736 11.1236 6.59459 11.4199 6.49121 11.7066Z" fill="#FBFBFB"/>
<path fill-rule="evenodd" clip-rule="evenodd" d="M6.25421 11.2939C6.25421 11.2939 5.62315 10.1218 6.17652 10.1198C6.8549 10.1177 6.57202 11.1894 6.25421 11.2939Z" fill="#FBFBFB"/>
<path fill-rule="evenodd" clip-rule="evenodd" d="M6.81702 10.6157C6.81702 10.6157 6.46669 9.55367 6.93163 9.61898C7.50102 9.69924 7.09982 10.5665 6.81702 10.6157Z" fill="#FBFBFB"/>
<path fill-rule="evenodd" clip-rule="evenodd" d="M7.41561 10.115C7.41561 10.115 7.23611 9.18313 7.62294 9.27916C8.09663 9.39699 7.66101 10.098 7.41561 10.115Z" fill="#FBFBFB"/>
<path fill-rule="evenodd" clip-rule="evenodd" d="M8.02019 9.7029C8.02019 9.7029 7.86579 8.90199 8.19813 8.98448C8.60544 9.08579 8.23107 9.68845 8.02019 9.7029Z" fill="#FBFBFB"/>
<path fill-rule="evenodd" clip-rule="evenodd" d="M8.52309 9.25249C8.52309 9.25249 8.36877 8.4515 8.70103 8.5339C9.10883 8.63538 8.73389 9.23779 8.52309 9.25249Z" fill="#FBFBFB"/>
<path fill-rule="evenodd" clip-rule="evenodd" d="M7.1543 11.0898C7.1543 11.0898 8.3455 11.5434 8.32693 11.1074C8.30381 10.5729 7.24636 10.8356 7.1543 11.0898Z" fill="#FBFBFB"/>
<path fill-rule="evenodd" clip-rule="evenodd" d="M7.74316 10.5144C7.74316 10.5144 8.78005 10.9089 8.7642 10.5295C8.74405 10.0645 7.82342 10.2929 7.74316 10.5144Z" fill="#FBFBFB"/>
<path fill-rule="evenodd" clip-rule="evenodd" d="M8.4209 10.0598C8.4209 10.0598 9.29116 10.391 9.27729 10.0724C9.26037 9.68213 8.48827 9.87401 8.4209 10.0598Z" fill="#FBFBFB"/>
<path fill-rule="evenodd" clip-rule="evenodd" d="M6.27051 11.6306C6.27051 11.6306 6.71687 10.8435 7.81032 10.137C8.90435 9.43059 9.39653 8.81026 9.30802 7.90564C9.53641 8.52152 8.90427 9.4618 8.30713 9.90214C7.71058 10.3426 7.06044 10.7676 6.27051 11.6306Z" fill="#FBFBFB"/>
<path fill-rule="evenodd" clip-rule="evenodd" d="M12.9206 19.978C13.0265 19.9775 14.3194 19.7204 14.2104 18.5034C14.101 17.2862 13.4379 16.759 13.1108 16.2768C12.7843 15.7946 12.7354 14.0152 13.1108 13.4979C12.328 13.9393 11.0288 15.2736 10.9758 16.2886C10.9234 17.3037 11.1785 19.9876 12.9206 19.978Z" fill="#43AE5E"/>
<path fill-rule="evenodd" clip-rule="evenodd" d="M12.8319 19.0767C12.8319 19.0767 11.5214 18.8861 11.8114 18.52C12.1669 18.0711 12.9127 18.8129 12.8319 19.0767Z" fill="#FBFBFB"/>
<path fill-rule="evenodd" clip-rule="evenodd" d="M13.4127 19.1031C13.4127 19.1031 14.3236 18.2371 13.8447 18.1045C13.2578 17.9426 13.1694 18.9379 13.4127 19.1031Z" fill="#FBFBFB"/>
<path fill-rule="evenodd" clip-rule="evenodd" d="M13.2272 18.2512C13.2272 18.2512 13.9668 17.4328 13.5337 17.3443C13.003 17.2363 12.9998 18.1197 13.2272 18.2512Z" fill="#FBFBFB"/>
<path fill-rule="evenodd" clip-rule="evenodd" d="M12.9433 17.6089C12.9433 17.6089 13.4694 16.8174 13.0811 16.7893C12.6053 16.7551 12.7278 17.5205 12.9433 17.6089Z" fill="#FBFBFB"/>
<path fill-rule="evenodd" clip-rule="evenodd" d="M12.5601 17.0004C12.5601 17.0004 13.0015 16.3362 12.6758 16.3126C12.2768 16.2837 12.3791 16.9262 12.5601 17.0004Z" fill="#FBFBFB" stroke="#F6E7B6" stroke-width="0.288" stroke-miterlimit="22.9256"/>
<path fill-rule="evenodd" clip-rule="evenodd" d="M12.3218 16.2782C12.3218 16.2782 12.6766 15.7444 12.4149 15.7254C12.0939 15.7022 12.1762 16.2187 12.3218 16.2782Z" fill="#FBFBFB"/>
<path fill-rule="evenodd" clip-rule="evenodd" d="M12.0779 15.725C12.0779 15.725 12.4822 15.1168 12.1838 15.095C11.8182 15.0686 11.9123 15.6569 12.0779 15.725Z" fill="#FBFBFB"/>
<path fill-rule="evenodd" clip-rule="evenodd" d="M12.4279 18.1761C12.4279 18.1761 11.3447 18.0185 11.5844 17.7161C11.8786 17.345 12.4943 17.9581 12.4279 18.1761Z" fill="#FBFBFB"/>
<path fill-rule="evenodd" clip-rule="evenodd" d="M12.0305 17.3107C12.0305 17.3107 11.185 17.1877 11.3716 16.9516C11.6016 16.662 12.0825 17.1406 12.0305 17.3107Z" fill="#FBFBFB"/>
<path fill-rule="evenodd" clip-rule="evenodd" d="M11.8689 16.6639C11.8689 16.6639 11.2286 16.4034 11.4343 16.2515C11.6868 16.0655 11.9512 16.5384 11.8689 16.6639Z" fill="#FBFBFB"/>
<path fill-rule="evenodd" clip-rule="evenodd" d="M11.7892 15.9742C11.7892 15.9742 11.3377 15.6981 11.5182 15.606C11.7395 15.4926 11.8716 15.8873 11.7892 15.9742Z" fill="#FBFBFB"/>
<path fill-rule="evenodd" clip-rule="evenodd" d="M13.039 19.426C13.039 19.426 13.0755 18.7206 12.807 18.0818C12.5386 17.4431 11.9491 16.8298 12.0288 15.924C12.0468 16.2749 12.1878 16.8363 12.3894 17.155C12.5915 17.474 13.2056 18.3504 13.039 19.426Z" fill="#FBFBFB"/>
<path fill-rule="evenodd" clip-rule="evenodd" d="M13.5273 20.0214C13.5273 20.0214 16.6112 21.0193 17.9279 18.9982C19.2446 16.9768 17.9279 16.6875 19.9996 15.7238C18.9637 15.4016 16.6287 15.0399 15.4524 15.7487C14.2762 16.4578 14.5343 18.2361 14.6244 18.7352C14.7148 19.2342 14.1707 19.8147 13.5273 20.0214Z" fill="#2F4838"/>
<path fill-rule="evenodd" clip-rule="evenodd" d="M15.0709 19.2978C15.0709 19.2978 14.6044 18.733 14.8976 18.6831C15.2576 18.6216 15.2278 19.2144 15.0709 19.2978Z" fill="#FBFBFB"/>
<path fill-rule="evenodd" clip-rule="evenodd" d="M15.0967 19.8415C15.0967 19.8415 15.8512 20.0465 15.8079 19.7842C15.7545 19.4624 15.1338 19.6823 15.0967 19.8415Z" fill="#FBFBFB"/>
<path fill-rule="evenodd" clip-rule="evenodd" d="M15.6494 19.4862C15.6494 19.4862 16.5361 19.727 16.4852 19.4186C16.423 19.0403 15.6932 19.2991 15.6494 19.4862Z" fill="#FBFBFB"/>
<path fill-rule="evenodd" clip-rule="evenodd" d="M15.9434 19.0416C15.9434 19.0416 17.0012 19.15 16.8716 18.8119C16.7133 18.3972 15.9495 18.8228 15.9434 19.0416Z" fill="#FBFBFB"/>
<path fill-rule="evenodd" clip-rule="evenodd" d="M16.1299 18.462C16.1299 18.462 17.3317 18.5852 17.1852 18.2009C17.0052 17.7297 16.1365 18.2132 16.1299 18.462Z" fill="#FBFBFB"/>
<path fill-rule="evenodd" clip-rule="evenodd" d="M16.3398 17.7803C16.3398 17.7803 17.7655 17.9263 17.5917 17.4705C17.3782 16.9118 16.348 17.4853 16.3398 17.7803Z" fill="#FBFBFB"/>
<path fill-rule="evenodd" clip-rule="evenodd" d="M16.7637 16.9527C16.7637 16.9527 18.1893 17.0989 18.0149 16.6431C17.8016 16.0844 16.7714 16.6577 16.7637 16.9527Z" fill="#FBFBFB"/>
<path fill-rule="evenodd" clip-rule="evenodd" d="M15.4301 18.8663C15.4301 18.8663 14.8488 18.1625 15.2145 18.1002C15.6631 18.0235 15.626 18.7623 15.4301 18.8663Z" fill="#FBFBFB"/>
<path fill-rule="evenodd" clip-rule="evenodd" d="M15.6411 18.0605C15.6411 18.0605 14.9384 17.2103 15.3803 17.1354C15.9219 17.0428 15.8771 17.9351 15.6411 18.0605Z" fill="#FBFBFB"/>
<path fill-rule="evenodd" clip-rule="evenodd" d="M15.9075 17.2894C15.9075 17.2894 15.4575 16.3124 15.906 16.3341C16.4564 16.3606 16.1708 17.2181 15.9075 17.2894Z" fill="#FBFBFB"/>
<path fill-rule="evenodd" clip-rule="evenodd" d="M16.445 16.8756C16.445 16.8756 16.0967 15.7796 16.5736 15.8513C17.1588 15.9387 16.7365 16.8274 16.445 16.8756Z" fill="#FBFBFB"/>
<path fill-rule="evenodd" clip-rule="evenodd" d="M16.6726 16.978C16.6726 16.978 15.9443 17.328 15.8826 18.0753C15.8214 18.8224 15.3996 19.6053 14.75 19.7728C15.6635 19.5491 15.8245 18.8284 15.915 18.3252C16.0054 17.8223 16.1371 17.3503 16.6726 16.978Z" fill="#FBFBFB"/>
<path fill-rule="evenodd" clip-rule="evenodd" d="M6.47284 20.0601C6.47284 20.0601 3.38835 21.0919 2.07172 19.0852C0.755084 17.0783 2.07172 16.7746 0 15.8335C1.03582 15.5 3.37092 15.1126 4.54711 15.8086C5.72345 16.5048 5.46526 18.2858 5.37518 18.786C5.28477 19.2859 5.82881 19.8605 6.47284 20.0601Z" fill="#2F4838"/>
<path fill-rule="evenodd" clip-rule="evenodd" d="M4.92936 19.3535C4.92936 19.3535 5.39579 18.7836 5.10267 18.7368C4.74267 18.6793 4.77248 19.2718 4.92936 19.3535Z" fill="#FBFBFB"/>
<path fill-rule="evenodd" clip-rule="evenodd" d="M4.90456 19.8974C4.90456 19.8974 4.14948 20.1107 4.19324 19.8479C4.24625 19.5255 4.86699 19.7386 4.90456 19.8974Z" fill="#FBFBFB"/>
<path fill-rule="evenodd" clip-rule="evenodd" d="M4.35056 19.5479C4.35056 19.5479 3.46386 19.7984 3.51481 19.4895C3.57707 19.1105 4.30688 19.3613 4.35056 19.5479Z" fill="#FBFBFB"/>
<path fill-rule="evenodd" clip-rule="evenodd" d="M4.0565 19.1066C4.0565 19.1066 2.99905 19.2266 3.12811 18.8871C3.28656 18.4707 4.05089 18.8879 4.0565 19.1066Z" fill="#FBFBFB"/>
<path fill-rule="evenodd" clip-rule="evenodd" d="M3.87018 18.5292C3.87018 18.5292 2.66815 18.6656 2.81521 18.2797C2.9952 17.8066 3.8639 18.2806 3.87018 18.5292Z" fill="#FBFBFB"/>
<path fill-rule="evenodd" clip-rule="evenodd" d="M3.66016 17.8499C3.66016 17.8499 2.23437 18.0115 2.40826 17.5538C2.6217 16.9928 3.6519 17.5549 3.66016 17.8499Z" fill="#FBFBFB"/>
<path fill-rule="evenodd" clip-rule="evenodd" d="M3.23591 17.027C3.23591 17.027 1.81013 17.1887 1.98451 16.731C2.19795 16.17 3.22815 16.732 3.23591 17.027Z" fill="#FBFBFB"/>
<path fill-rule="evenodd" clip-rule="evenodd" d="M4.56936 18.9261C4.56936 18.9261 5.15047 18.2158 4.78486 18.1576C4.33635 18.0859 4.37334 18.8242 4.56936 18.9261Z" fill="#FBFBFB"/>
<path fill-rule="evenodd" clip-rule="evenodd" d="M4.35985 18.1225C4.35985 18.1225 5.06184 17.2646 4.6201 17.1945C4.07845 17.1078 4.12321 17.9996 4.35985 18.1225Z" fill="#FBFBFB"/>
<path fill-rule="evenodd" clip-rule="evenodd" d="M4.09227 17.3542C4.09227 17.3542 4.54227 16.3723 4.09376 16.3988C3.54352 16.4314 3.82945 17.2857 4.09227 17.3542Z" fill="#FBFBFB"/>
<path fill-rule="evenodd" clip-rule="evenodd" d="M3.55501 16.9464C3.55501 16.9464 3.9032 15.8465 3.42636 15.9235C2.84104 16.0174 3.26338 16.9014 3.55501 16.9464Z" fill="#FBFBFB"/>
<path fill-rule="evenodd" clip-rule="evenodd" d="M3.32715 17.0511C3.32715 17.0511 4.05532 17.393 4.11708 18.1397C4.17834 18.8861 4.60002 19.6643 5.24958 19.8247C4.33671 19.6111 4.17521 18.8922 4.08471 18.39C3.99413 17.888 3.86244 17.4175 3.32715 17.0511Z" fill="#FBFBFB"/>
<path fill-rule="evenodd" clip-rule="evenodd" d="M17.0859 15.0374C17.0859 15.0374 18.42 14.8115 18.8412 13.7788C19.263 12.746 18.0862 10.5668 18.2797 9.6759C17.9988 10.1456 17.4896 10.7729 17.0859 11.025C16.6816 11.277 15.1602 11.4726 14.9119 12.5357C14.6629 13.5988 14.9211 14.6593 15.6282 15.0454C16.1904 14.9017 17.0859 15.0374 17.0859 15.0374Z" fill="#138554"/>
<path fill-rule="evenodd" clip-rule="evenodd" d="M16.4281 14.3699C16.4281 14.3699 15.2081 14.0236 15.5424 13.7105C15.9528 13.3259 16.5463 14.1278 16.4281 14.3699Z" fill="#FBFBFB"/>
<path fill-rule="evenodd" clip-rule="evenodd" d="M16.6689 13.9322C16.6689 13.9322 15.5359 13.3049 15.9637 13.0634C16.4883 12.7669 16.8581 13.7139 16.6689 13.9322Z" fill="#FBFBFB"/>
<path fill-rule="evenodd" clip-rule="evenodd" d="M16.8368 14.5609C16.8368 14.5609 18.1735 14.4884 17.9297 14.0961C17.6315 13.6146 16.79 14.2894 16.8368 14.5609Z" fill="#FBFBFB"/>
<path fill-rule="evenodd" clip-rule="evenodd" d="M17.4096 13.7113C17.4096 13.7113 18.4239 13.6562 18.2393 13.3586C18.0124 12.9931 17.3741 13.5054 17.4096 13.7113Z" fill="#FBFBFB"/>
<path fill-rule="evenodd" clip-rule="evenodd" d="M17.5712 13.1703C17.5712 13.1703 18.549 12.9195 18.2954 12.6655C17.9842 12.3533 17.4858 12.9765 17.5712 13.1703Z" fill="#FBFBFB"/>
<path fill-rule="evenodd" clip-rule="evenodd" d="M17.6916 12.5201C17.6916 12.5201 18.4796 12.1516 18.2116 11.9745C17.8825 11.7567 17.58 12.3679 17.6916 12.5201Z" fill="#FBFBFB"/>
<path fill-rule="evenodd" clip-rule="evenodd" d="M17.7481 11.8585C17.7481 11.8585 18.303 11.599 18.1138 11.4745C17.8823 11.321 17.6694 11.7514 17.7481 11.8585Z" fill="#FBFBFB"/>
<path fill-rule="evenodd" clip-rule="evenodd" d="M17.7294 11.4704C17.7294 11.4704 18.1645 11.069 17.9408 11.004C17.6662 10.9238 17.6162 11.3911 17.7294 11.4704Z" fill="#FBFBFB"/>
<path fill-rule="evenodd" clip-rule="evenodd" d="M16.8933 13.3133C16.8933 13.3133 15.9932 12.5993 16.4155 12.4424C16.9334 12.2498 17.099 13.1444 16.8933 13.3133Z" fill="#FBFBFB"/>
<path fill-rule="evenodd" clip-rule="evenodd" d="M17.0882 12.531C17.0882 12.531 16.3969 11.9824 16.7215 11.862C17.119 11.7139 17.2465 12.4014 17.0882 12.531Z" fill="#FBFBFB"/>
<path fill-rule="evenodd" clip-rule="evenodd" d="M17.2399 11.9283C17.2399 11.9283 16.7071 11.5053 16.9576 11.4124C17.2642 11.2983 17.3624 11.8283 17.2399 11.9283Z" fill="#FBFBFB"/>
<path fill-rule="evenodd" clip-rule="evenodd" d="M16.5459 14.4942C16.5459 14.4942 17.2789 13.7564 17.34 13.2329C17.4017 12.7096 17.3904 12.0418 17.6065 11.6017C17.393 11.9212 17.3139 12.4682 17.305 12.8271C17.2964 13.1864 17.1214 13.8587 16.5459 14.4942Z" fill="#FBFBFB"/>
<path fill-rule="evenodd" clip-rule="evenodd" d="M2.94833 15.115C2.94833 15.115 1.61411 14.9037 1.19236 13.8756C0.771174 12.8474 1.94736 10.6552 1.75448 9.76648C2.03538 10.2331 2.54449 10.8549 2.94833 11.1026C3.35201 11.3501 4.87341 11.529 5.12235 12.5894C5.37129 13.6496 5.11261 14.7131 4.40533 15.1069C3.84378 14.9694 2.94833 15.115 2.94833 15.115Z" fill="#138554"/>
<path fill-rule="evenodd" clip-rule="evenodd" d="M3.60622 14.4401C3.60622 14.4401 4.82616 14.0806 4.49143 13.771C4.08148 13.391 3.48749 14.1995 3.60622 14.4401Z" fill="#FBFBFB"/>
<path fill-rule="evenodd" clip-rule="evenodd" d="M3.36484 14.0051C3.36484 14.0051 4.49792 13.3653 4.07005 13.1285C3.5455 12.8377 3.1751 13.7888 3.36484 14.0051Z" fill="#FBFBFB"/>
<path fill-rule="evenodd" clip-rule="evenodd" d="M3.19695 14.6356C3.19695 14.6356 1.86017 14.5778 2.10391 14.1827C2.40281 13.6981 3.24368 14.3636 3.19695 14.6356Z" fill="#FBFBFB"/>
<path fill-rule="evenodd" clip-rule="evenodd" d="M2.62412 13.7926C2.62412 13.7926 1.60985 13.7486 1.79505 13.449C2.02137 13.081 2.65963 13.5863 2.62412 13.7926Z" fill="#FBFBFB"/>
<path fill-rule="evenodd" clip-rule="evenodd" d="M2.46216 13.2532C2.46216 13.2532 1.48431 13.0131 1.73845 12.7564C2.04965 12.4407 2.54753 13.0584 2.46216 13.2532Z" fill="#FBFBFB"/>
<path fill-rule="evenodd" clip-rule="evenodd" d="M2.34214 12.6044C2.34214 12.6044 1.55419 12.2445 1.82221 12.0645C2.1514 11.8431 2.45377 12.451 2.34214 12.6044Z" fill="#FBFBFB"/>
<path fill-rule="evenodd" clip-rule="evenodd" d="M2.28631 11.9433C2.28631 11.9433 1.73121 11.6899 1.92004 11.5632C2.15156 11.4072 2.36492 11.8353 2.28631 11.9433Z" fill="#FBFBFB"/>
<path fill-rule="evenodd" clip-rule="evenodd" d="M2.30468 11.5549C2.30468 11.5549 1.86955 11.1584 2.09322 11.0909C2.36793 11.0077 2.41722 11.4744 2.30468 11.5549Z" fill="#FBFBFB"/>
<path fill-rule="evenodd" clip-rule="evenodd" d="M3.14082 13.3887C3.14082 13.3887 4.04032 12.6649 3.61807 12.5126C3.10069 12.3256 2.93457 13.2222 3.14082 13.3887Z" fill="#FBFBFB"/>
<path fill-rule="evenodd" clip-rule="evenodd" d="M2.94487 12.6083C2.94487 12.6083 3.63613 12.0523 3.31155 11.9353C2.91399 11.7916 2.78692 12.4804 2.94487 12.6083Z" fill="#FBFBFB"/>
<path fill-rule="evenodd" clip-rule="evenodd" d="M2.79406 12.0074C2.79406 12.0074 3.32737 11.5785 3.07694 11.4885C2.77044 11.3776 2.67211 11.9088 2.79406 12.0074Z" fill="#FBFBFB"/>
<path fill-rule="evenodd" clip-rule="evenodd" d="M3.48726 14.5657C3.48726 14.5657 2.75439 13.8359 2.69321 13.3132C2.63153 12.7906 2.64333 12.1225 2.42676 11.6849C2.64028 12.002 2.71946 12.5482 2.72813 12.907C2.73697 13.2662 2.91234 13.9366 3.48726 14.5657Z" fill="#FBFBFB"/>
<path fill-rule="evenodd" clip-rule="evenodd" d="M10.1012 11.8777C10.1012 11.8777 9.81421 13.071 10.1012 15.2162C10.1779 14.357 10.3625 13.167 10.1012 11.8777Z" fill="#FBFBFB"/>
<path fill-rule="evenodd" clip-rule="evenodd" d="M10.1663 5.70444C10.1663 5.70444 10.9146 5.25585 10.6564 5.04546C10.3401 4.78793 10.0577 5.52312 10.1663 5.70444Z" fill="#FBFBFB"/>
<path fill-rule="evenodd" clip-rule="evenodd" d="M10.2472 4.9242C10.2472 4.9242 11.0638 4.66692 10.853 4.39915C10.5948 4.07078 10.1766 4.72092 10.2472 4.9242Z" fill="#FBFBFB"/>
<path fill-rule="evenodd" clip-rule="evenodd" d="M10.2932 4.36078C10.2932 4.36078 11.2386 4.06288 10.9947 3.75283C10.696 3.37252 10.212 4.12497 10.2932 4.36078Z" fill="#FBFBFB"/>
<path fill-rule="evenodd" clip-rule="evenodd" d="M10.329 3.65189C10.329 3.65189 11.0357 3.42912 10.8531 3.19735C10.6298 2.91348 10.2683 3.47553 10.329 3.65189Z" fill="#FBFBFB"/>
<path fill-rule="evenodd" clip-rule="evenodd" d="M10.3386 3.12742C10.3386 3.12742 10.8832 2.80004 10.6955 2.64712C10.4646 2.45977 10.2594 2.99539 10.3386 3.12742Z" fill="#FBFBFB"/>
<path fill-rule="evenodd" clip-rule="evenodd" d="M10.3307 2.64872C10.3307 2.64872 10.8039 2.20409 10.592 2.09741C10.3317 1.96687 10.2289 2.53759 10.3307 2.64872Z" fill="#FBFBFB"/>
<path fill-rule="evenodd" clip-rule="evenodd" d="M9.91622 5.70586C9.91622 5.70586 9.1684 5.26552 9.4261 5.05233C9.7425 4.79134 10.0248 5.52338 9.91622 5.70586Z" fill="#FBFBFB"/>
<path fill-rule="evenodd" clip-rule="evenodd" d="M9.93766 6.2156C9.93766 6.2156 9.43053 5.91695 9.60483 5.77254C9.81934 5.59535 10.0111 6.09183 9.93766 6.2156Z" fill="#FBFBFB"/>
<path fill-rule="evenodd" clip-rule="evenodd" d="M9.83596 4.92603C9.83596 4.92603 9.01928 4.67767 9.23008 4.40759C9.48827 4.07632 9.90647 4.72192 9.83596 4.92603Z" fill="#FBFBFB"/>
<path fill-rule="evenodd" clip-rule="evenodd" d="M9.78956 4.36373C9.78956 4.36373 8.84416 4.07622 9.08806 3.76346C9.38729 3.37993 9.8713 4.12709 9.78956 4.36373Z" fill="#FBFBFB"/>
<path fill-rule="evenodd" clip-rule="evenodd" d="M9.75447 3.65527C9.75447 3.65527 9.04777 3.44026 9.23032 3.20651C9.45359 2.92016 9.81573 3.47824 9.75447 3.65527Z" fill="#FBFBFB"/>
<path fill-rule="evenodd" clip-rule="evenodd" d="M9.74374 3.13098C9.74374 3.13098 9.19896 2.80955 9.38722 2.65457C9.61766 2.46466 9.82284 2.99805 9.74374 3.13098Z" fill="#FBFBFB"/>
<path fill-rule="evenodd" clip-rule="evenodd" d="M9.75258 2.65191C9.75258 2.65191 9.27888 2.21241 9.49133 2.1035C9.75109 1.97007 9.85389 2.53962 9.75258 2.65191Z" fill="#FBFBFB"/>
<path fill-rule="evenodd" clip-rule="evenodd" d="M9.91658 2.16569C9.91658 2.16569 9.53644 1.81304 9.70719 1.72544C9.916 1.61859 9.99832 2.07561 9.91658 2.16569Z" fill="#FBFBFB"/>
<path fill-rule="evenodd" clip-rule="evenodd" d="M10.1079 6.21454C10.1079 6.21454 10.6154 5.91044 10.44 5.76785C10.2256 5.59305 10.0342 6.09159 10.1079 6.21454Z" fill="#FBFBFB"/>
<path fill-rule="evenodd" clip-rule="evenodd" d="M10.1289 2.16465C10.1289 2.16465 10.5083 1.80787 10.3382 1.72208C10.1294 1.61755 10.047 2.07548 10.1289 2.16465Z" fill="#FBFBFB"/>
<path fill-rule="evenodd" clip-rule="evenodd" d="M10.028 2.31982C10.028 2.31982 9.7255 3.46546 10.028 5.52471C10.1082 4.69994 10.3032 3.55744 10.028 2.31982Z" fill="#FBFBFB"/>
<path fill-rule="evenodd" clip-rule="evenodd" d="M9.26662 17.3582C9.26662 17.3582 9.32425 18.6874 8.78781 19.265C9.33201 20.435 9.19924 21.154 8.75635 21.9682C8.71531 23.7611 9.01487 25.8595 8.39453 27.4182C8.69467 27.0975 8.98556 26.8147 9.33911 26.7016C10.1121 26.4539 10.9806 26.9802 11.6112 27.5111C11.3425 27.1597 11.1353 26.6455 11.0909 25.7649C10.9825 23.6108 11.0529 21.6433 11.0529 21.6433C10.5612 20.4284 10.8959 19.8726 11.238 19.086C10.7366 17.9917 10.5961 16.7437 10.6666 16.4622C10.3503 17.5256 9.92906 18.8705 9.92906 18.8705C9.92906 18.8705 9.72743 17.9634 9.26662 17.3582Z" fill="#673433"/>
<path fill-rule="evenodd" clip-rule="evenodd" d="M2.20703 28.2336C2.20703 28.2336 3.08044 29.1767 4.26562 28.9816C5.24199 28.8214 5.5749 28.3994 6.37317 28.335L6.31876 28.2775L6.41899 28.283C6.8249 28.3054 7.1555 28.2353 7.43788 28.1147L7.04164 27.8357C6.39984 27.3838 5.11623 27.9097 4.49152 28.1656C4.4362 28.1883 4.38567 28.209 4.34538 28.2251C3.78433 28.4496 3.37396 28.3999 3.37396 28.3999L3.37975 28.3206C3.60772 28.3298 4.27429 28.0915 4.86944 27.8789C5.20037 27.7605 5.50951 27.65 5.71312 27.5932C5.98774 27.5165 6.25815 27.5018 6.49141 27.5317C6.75125 27.5648 6.96659 27.6539 7.09225 27.7742L7.44449 28.1118C7.60129 28.0442 7.74338 27.961 7.87525 27.8695C7.80704 27.8268 7.73992 27.7775 7.67444 27.721C7.17713 27.2921 6.09904 26.4985 5.17593 26.744C4.25265 26.9892 3.8162 28.3224 2.20703 28.2336Z" fill="#0099C5"/>
<path fill-rule="evenodd" clip-rule="evenodd" d="M6.41699 28.3228C6.41699 28.3228 7.2904 29.2659 8.47558 29.0709C9.33767 28.9293 9.69817 28.5838 10.3202 28.4604C10.2176 28.3732 10.1608 28.3121 10.1608 28.3121L10.0919 28.2393L10.1922 28.2448C10.6738 28.2714 11.0492 28.1678 11.3641 28.0041L11.2516 27.9248C10.6097 27.473 9.32595 27.999 8.70132 28.2549C8.646 28.2775 8.5958 28.2981 8.55542 28.3143C7.99437 28.5387 7.58385 28.4891 7.58385 28.4891L7.58963 28.4097C7.81768 28.419 8.48475 28.1806 9.07998 27.9678C9.41108 27.8495 9.72021 27.739 9.92308 27.6824C10.1976 27.6057 10.4682 27.591 10.7014 27.6208C10.9612 27.6541 11.1765 27.743 11.3022 27.8635L11.4185 27.9748C11.5512 27.9014 11.6732 27.8175 11.788 27.7288C11.2575 27.2893 10.2533 26.6026 9.38581 26.8333C8.46262 27.0783 8.02608 28.4116 6.41699 28.3228Z" fill="#4265AC"/>
<path fill-rule="evenodd" clip-rule="evenodd" d="M10.1895 28.2844C10.1895 28.2844 11.0629 29.2274 12.248 29.0324C13.4332 28.8378 13.6702 28.2577 14.942 28.3993C16.214 28.5412 16.8023 28.4897 17.1963 28.1186C16.7428 28.2139 16.1541 28.2005 15.6569 27.7717C15.1596 27.3429 14.0815 26.5492 13.1583 26.7948C12.2352 27.0399 11.7985 28.3731 10.1895 28.2844ZM12.3279 28.2758C11.7668 28.5003 11.3564 28.4508 11.3564 28.4508L11.3622 28.3714C11.5901 28.3806 12.2569 28.1422 12.8521 27.9294C13.183 27.8112 13.492 27.7006 13.6955 27.6439C13.9702 27.5672 14.2407 27.5526 14.4739 27.5824C14.7338 27.6157 14.949 27.7046 15.0747 27.825L15.456 28.1906L15.0241 27.8864C14.3823 27.4345 13.0987 27.9604 12.474 28.2163C12.4187 28.239 12.3683 28.2597 12.3279 28.2758Z" fill="#0099C5"/>
<path fill-rule="evenodd" clip-rule="evenodd" d="M7.04347 20.0103C6.93754 20.0108 5.64452 19.768 5.7536 18.5497C5.86308 17.3314 6.5261 16.797 6.85324 16.3111C7.17971 15.8254 7.22859 14.0454 6.85324 13.5322C7.63598 13.965 8.93519 15.2851 8.9882 16.2994C9.04063 17.3139 8.7855 20.0007 7.04347 20.0103Z" fill="#43AE5E"/>
<path fill-rule="evenodd" clip-rule="evenodd" d="M7.13204 19.1083C7.13204 19.1083 8.44257 18.9032 8.15242 18.5404C7.79697 18.0955 7.05129 18.8454 7.13204 19.1083Z" fill="#FBFBFB"/>
<path fill-rule="evenodd" clip-rule="evenodd" d="M6.55154 19.1411C6.55154 19.1411 5.64073 18.285 6.11963 18.1473C6.70644 17.9789 6.79487 18.9731 6.55154 19.1411Z" fill="#FBFBFB"/>
<path fill-rule="evenodd" clip-rule="evenodd" d="M6.73642 18.2871C6.73642 18.2871 5.99685 17.4767 6.43 17.3834C6.96067 17.2697 6.96381 18.1531 6.73642 18.2871Z" fill="#FBFBFB"/>
<path fill-rule="evenodd" clip-rule="evenodd" d="M7.02 17.6415C7.02 17.6415 6.49388 16.8558 6.88211 16.8234C7.35787 16.7839 7.2355 17.5507 7.02 17.6415Z" fill="#FBFBFB"/>
<path fill-rule="evenodd" clip-rule="evenodd" d="M7.40343 17.0291C7.40343 17.0291 6.96219 16.3698 7.28775 16.3426C7.68681 16.3093 7.58451 16.953 7.40343 17.0291Z" fill="#FBFBFB" stroke="#F6E7B6" stroke-width="0.288" stroke-miterlimit="22.9256"/>
<path fill-rule="evenodd" clip-rule="evenodd" d="M7.64244 16.3041C7.64244 16.3041 7.28764 15.7742 7.54947 15.7522C7.87033 15.7255 7.78809 16.2429 7.64244 16.3041Z" fill="#FBFBFB"/>
<path fill-rule="evenodd" clip-rule="evenodd" d="M7.88563 15.748C7.88563 15.748 7.48137 15.1442 7.77969 15.1193C8.14539 15.0888 8.05126 15.6781 7.88563 15.748Z" fill="#FBFBFB"/>
<path fill-rule="evenodd" clip-rule="evenodd" d="M7.53622 18.2028C7.53622 18.2028 8.61935 18.0334 8.37965 17.7336C8.08546 17.3657 7.46983 17.9856 7.53622 18.2028Z" fill="#FBFBFB"/>
<path fill-rule="evenodd" clip-rule="evenodd" d="M7.93358 17.3335C7.93358 17.3335 8.77908 17.2012 8.59239 16.9672C8.36244 16.68 7.88165 17.1639 7.93358 17.3335Z" fill="#FBFBFB"/>
<path fill-rule="evenodd" clip-rule="evenodd" d="M8.09442 16.6845C8.09442 16.6845 8.73474 16.417 8.52898 16.2674C8.27649 16.0842 8.0121 16.56 8.09442 16.6845Z" fill="#FBFBFB"/>
<path fill-rule="evenodd" clip-rule="evenodd" d="M8.17408 15.9938C8.17408 15.9938 8.62564 15.7129 8.44515 15.6227C8.22395 15.5118 8.09176 15.9079 8.17408 15.9938Z" fill="#FBFBFB"/>
<path fill-rule="evenodd" clip-rule="evenodd" d="M6.92482 19.4595C6.92482 19.4595 6.88832 18.7545 7.15683 18.1128C7.42526 17.4711 8.01471 16.8514 7.93495 15.9464C7.91695 16.2976 7.77601 16.8605 7.57438 17.1814C7.37233 17.5026 6.75819 18.3857 6.92482 19.4595Z" fill="#FBFBFB"/>
</g>
<defs>
<clipPath id="clip0_1192_124">
<rect width="344" height="30" fill="white"/>
</clipPath>
</defs>
</svg>
