<svg width="18" height="24" viewBox="0 0 18 24" fill="none" xmlns="http://www.w3.org/2000/svg">
<path d="M9 5.5V23.5M11 6H17.5V23.5H0.5V6H7M2 3C2.265 3 2.66 2.725 2.993 2.447C3.4269 2.08796 3.79505 1.6562 4.081 1.171C4.295 0.804 4.5 0.358 4.5 0C4.5 0.358 4.705 0.804 4.92 1.171C5.205 1.661 5.579 2.089 6.007 2.447C6.339 2.725 6.735 3 7 3M16 0.5C15.735 0.5 15.34 0.775 15.007 1.053C14.5731 1.41204 14.2049 1.8438 13.919 2.329C13.705 2.696 13.5 3.142 13.5 3.5C13.5 3.142 13.295 2.696 13.08 2.329C12.7944 1.84388 12.4265 1.41212 11.993 1.053C11.661 0.775 11.265 0.5 11 0.5" stroke="#929A9F"/>
</svg>
