<svg width="25" height="20" viewBox="0 0 25 20" fill="none" xmlns="http://www.w3.org/2000/svg">
<path d="M22.8542 0.8125H17.0208C16.8369 0.812608 16.655 0.850767 16.4865 0.924577C16.3181 0.998386 16.1667 1.10625 16.0419 1.24139L5.90306 12.2247C5.86146 12.2699 5.81096 12.3059 5.75473 12.3306C5.69851 12.3553 5.63779 12.368 5.57639 12.3681H1.52083C1.16721 12.3681 0.828073 12.5085 0.578024 12.7586C0.327976 13.0086 0.1875 13.3478 0.1875 13.7014V18.1458C0.1875 18.4995 0.327976 18.8386 0.578024 19.0886C0.828073 19.3387 1.16721 19.4792 1.52083 19.4792H7.35417C7.53809 19.4791 7.72 19.4409 7.88846 19.3671C8.05692 19.2933 8.20829 19.1854 8.33306 19.0503L18.4719 8.06694C18.5135 8.02179 18.564 7.98573 18.6203 7.96107C18.6765 7.9364 18.7372 7.92364 18.7986 7.92361H22.8542C23.2078 7.92361 23.5469 7.78313 23.797 7.53309C24.047 7.28304 24.1875 6.9439 24.1875 6.59028V2.14583C24.1875 1.79221 24.047 1.45307 23.797 1.20302C23.5469 0.952976 23.2078 0.8125 22.8542 0.8125ZM23.2986 6.59028C23.2986 6.70815 23.2518 6.8212 23.1684 6.90455C23.0851 6.9879 22.972 7.03472 22.8542 7.03472H18.7986C18.6147 7.03483 18.4328 7.07299 18.2643 7.1468C18.0959 7.22061 17.9445 7.32847 17.8197 7.46361L7.68083 18.4469C7.63924 18.4921 7.58873 18.5282 7.53251 18.5528C7.47629 18.5775 7.41556 18.5902 7.35417 18.5903H1.52083C1.40296 18.5903 1.28991 18.5435 1.20656 18.4601C1.12321 18.3768 1.07639 18.2637 1.07639 18.1458V13.7014C1.07639 13.5835 1.12321 13.4705 1.20656 13.3871C1.28991 13.3038 1.40296 13.2569 1.52083 13.2569H5.57639C5.76031 13.2568 5.94222 13.2187 6.11068 13.1449C6.27915 13.0711 6.43052 12.9632 6.55528 12.8281L16.6942 1.84472C16.7358 1.79956 16.7863 1.76351 16.8425 1.73884C16.8987 1.71417 16.9594 1.70142 17.0208 1.70139H22.8542C22.972 1.70139 23.0851 1.74821 23.1684 1.83156C23.2518 1.91491 23.2986 2.02796 23.2986 2.14583V6.59028ZM23.1686 15.1647C23.2099 15.206 23.2427 15.255 23.265 15.309C23.2874 15.3629 23.2989 15.4208 23.2989 15.4792C23.2989 15.5376 23.2874 15.5954 23.265 15.6493C23.2427 15.7033 23.2099 15.7523 23.1686 15.7936C23.1273 15.8349 23.0783 15.8677 23.0243 15.89C22.9704 15.9124 22.9126 15.9239 22.8542 15.9239C22.7958 15.9239 22.7379 15.9124 22.684 15.89C22.63 15.8677 22.581 15.8349 22.5397 15.7936L20.6319 13.8858V19.0347C20.6319 19.1526 20.5851 19.2656 20.5018 19.349C20.4184 19.4323 20.3054 19.4792 20.1875 19.4792C20.0696 19.4792 19.9566 19.4323 19.8732 19.349C19.7899 19.2656 19.7431 19.1526 19.7431 19.0347V13.8858L17.8353 15.7936C17.7519 15.877 17.6388 15.9239 17.5208 15.9239C17.4029 15.9239 17.2898 15.877 17.2064 15.7936C17.123 15.7102 17.0761 15.5971 17.0761 15.4792C17.0761 15.3612 17.123 15.2481 17.2064 15.1647L19.8731 12.4981C19.9143 12.4567 19.9633 12.424 20.0173 12.4016C20.0713 12.3792 20.1291 12.3677 20.1875 12.3677C20.2459 12.3677 20.3037 12.3792 20.3577 12.4016C20.4117 12.424 20.4607 12.4567 20.5019 12.4981L23.1686 15.1647Z" fill="#929A9F"/>
</svg>
