<svg width="14" height="27" viewBox="0 0 14 27" fill="none" xmlns="http://www.w3.org/2000/svg">
<path d="M13.0803 15.1875H9.24818V27H4.13869V15.1875H0V10.2832H4.13869V6.5918C4.13869 5.18555 4.39416 3.99023 4.90511 3.00586C5.41606 2.02148 6.13139 1.2832 7.0511 0.791016C8.00487 0.263672 9.09489 0 10.3212 0C10.8662 0 11.4453 0.0351562 12.0584 0.105469C12.6715 0.140625 13.1484 0.193359 13.4891 0.263672L14 0.316406V4.48242H11.9562C11.0024 4.48242 10.3041 4.74609 9.86131 5.27344C9.45256 5.76562 9.24818 6.38086 9.24818 7.11914V10.2832H13.7956L13.0803 15.1875Z" fill="white" fill-opacity="0.5"/>
</svg>
