<svg width="1046" height="367" viewBox="0 0 1046 367" fill="none" xmlns="http://www.w3.org/2000/svg">
<path d="M160.1 283.8C161.3 285.4 163.7 285.4 164.9 283.8L262.4 153.8C263.883 151.822 262.472 149 260 149H65C62.5279 149 61.1167 151.822 62.6 153.8L160.1 283.8Z" fill="#777777" fill-opacity="0.7"/>
<path d="M159.603 6.18724C160.803 4.59175 163.197 4.59175 164.397 6.18724L257.114 129.447C258.601 131.424 257.19 134.25 254.716 134.25H69.2837C66.8096 134.25 65.399 131.424 66.8862 129.447L159.603 6.18724Z" fill="#AEAEAE" fill-opacity="0.9"/>
<line x1="233" y1="234.5" x2="330" y2="234.5" stroke="white"/>
<path d="M329.5 234.5L329.5 172" stroke="white"/>
<line x1="329" y1="172.5" x2="395" y2="172.5" stroke="white"/>
<line x1="395.5" y1="173" x2="395.5" y2="117" stroke="white"/>
<line x1="396" y1="117.5" x2="460" y2="117.5" stroke="white"/>
<line x1="461" y1="62.5" x2="527" y2="62.5" stroke="white"/>
<line x1="460.5" y1="118" x2="460.5" y2="62" stroke="white"/>
<line x1="526.5" y1="62" x2="526.5" y2="23" stroke="white"/>
<line x1="526" y1="23.5" x2="657" y2="23.5" stroke="white"/>

<mask id="mask0_1011_279" style="mask-type:alpha" maskUnits="userSpaceOnUse" x="329" y="7" width="390" height="220">
<path opacity="0.97" d="M457.687 62H523.504L522.522 7H587.357H718.23L718.5 226.5L329 227V172H393.835V117H457.687V62Z" fill="#C4C4C4"/>
</mask>
<g mask="url(#mask0_1011_279)">
<path d="M195.76 217.089C192.163 217.089 189.351 216.582 187.324 215.569C185.298 214.556 183.879 213.036 183.068 211.009C182.258 208.982 181.852 206.474 181.852 203.485V186.537C181.852 181.673 182.942 178.101 185.12 175.821C187.299 173.49 190.846 172.325 195.76 172.325H218.636C222.132 172.325 224.792 172.528 226.616 172.933C228.491 173.288 229.428 173.668 229.428 174.073L227.908 180.381C227.047 180.229 224.488 180.077 220.232 179.925C216.027 179.722 209.896 179.621 201.84 179.621H197.964C193.911 179.621 191.884 181.42 191.884 185.017V204.397C191.884 206.12 192.315 207.462 193.176 208.425C194.088 209.337 195.684 209.793 197.964 209.793H201.08C205.944 209.793 210.048 209.768 213.392 209.717C216.736 209.616 219.498 209.54 221.676 209.489V199.153L217.116 199.229L207.16 199.989V192.541H231.632V213.897L232.392 215.493C232.392 215.898 231.328 216.278 229.2 216.633C227.072 216.937 223.475 217.089 218.408 217.089H195.76ZM291.59 217.849C289.564 217.849 287.562 217.545 285.586 216.937C283.661 216.278 281.457 214.708 278.974 212.225L273.502 206.753C271.273 204.473 268.816 202.801 266.13 201.737C263.496 200.673 260.177 200.141 256.174 200.141H253.818V217.089H243.786V178.481L243.026 172.325H276.694C279.937 172.325 282.47 172.756 284.294 173.617C286.169 174.478 287.537 175.618 288.398 177.037C289.31 178.405 289.893 179.874 290.146 181.445C290.4 183.016 290.526 184.51 290.526 185.929V187.373C290.526 188.488 290.374 189.729 290.07 191.097C289.766 192.465 289.184 193.808 288.322 195.125C287.461 196.442 286.22 197.557 284.598 198.469C283.028 199.381 280.95 199.913 278.366 200.065C279.025 200.42 279.861 200.977 280.874 201.737C281.888 202.446 282.926 203.232 283.99 204.093C285.105 204.954 286.118 205.74 287.03 206.449C287.942 207.158 288.652 207.665 289.158 207.969C290.982 209.033 292.604 209.768 294.022 210.173C295.441 210.578 296.606 210.806 297.518 210.857C298.43 210.908 298.962 210.933 299.114 210.933L297.594 217.089C297.138 217.241 296.378 217.393 295.314 217.545C294.25 217.748 293.009 217.849 291.59 217.849ZM265.218 193.225C267.144 193.225 268.866 193.2 270.386 193.149C271.906 193.048 273.274 192.946 274.49 192.845C276.72 192.592 278.265 191.984 279.126 191.021C280.038 190.008 280.494 188.716 280.494 187.145V185.397C280.494 183.776 280.064 182.408 279.202 181.293C278.341 180.178 276.796 179.621 274.566 179.621H253.818V192.845C256.048 192.997 258.1 193.098 259.974 193.149C261.849 193.2 263.597 193.225 265.218 193.225ZM319.112 217.089C315.565 217.089 312.778 216.582 310.752 215.569C308.725 214.556 307.281 213.036 306.42 211.009C305.609 208.982 305.204 206.474 305.204 203.485V185.929C305.204 182.99 305.609 180.533 306.42 178.557C307.23 176.53 308.649 175.01 310.676 173.997C312.702 172.933 315.514 172.401 319.112 172.401H341.304C344.85 172.401 347.612 172.933 349.588 173.997C351.614 175.01 353.033 176.53 353.844 178.557C354.705 180.533 355.136 182.99 355.136 185.929V203.485C355.136 207.944 354.148 211.338 352.172 213.669C350.196 215.949 346.573 217.089 341.304 217.089H319.112ZM321.316 209.793H339.176C341.05 209.793 342.494 209.312 343.508 208.349C344.572 207.386 345.104 206.069 345.104 204.397V185.017C345.104 183.548 344.572 182.306 343.508 181.293C342.444 180.229 341 179.697 339.176 179.697H321.316C319.492 179.697 318.022 180.178 316.908 181.141C315.793 182.104 315.236 183.396 315.236 185.017V204.397C315.236 206.12 315.768 207.462 316.832 208.425C317.946 209.337 319.441 209.793 321.316 209.793ZM377.774 217.849C373.164 217.849 369.946 216.608 368.122 214.125C366.298 211.642 365.386 208.349 365.386 204.245V172.401H375.418V204.549C375.418 206.93 376.001 208.526 377.166 209.337C378.332 210.148 379.776 210.553 381.498 210.553H397.61C399.232 210.553 400.65 210.148 401.866 209.337C403.082 208.476 403.69 206.88 403.69 204.549V172.401H413.722V204.245C413.722 206.981 413.342 209.362 412.582 211.389C411.822 213.416 410.556 215.012 408.782 216.177C407.009 217.292 404.552 217.849 401.41 217.849H377.774ZM425.474 217.089V178.481L424.714 172.325H458.382C461.624 172.325 464.158 172.756 465.982 173.617C467.856 174.478 469.224 175.618 470.086 177.037C470.998 178.405 471.58 179.874 471.834 181.445C472.087 183.016 472.214 184.51 472.214 185.929V190.413C472.214 191.578 472.036 192.896 471.682 194.365C471.327 195.784 470.668 197.177 469.706 198.545C468.743 199.862 467.35 200.977 465.526 201.889C463.702 202.75 461.32 203.181 458.382 203.181H450.63C447.438 203.181 444.448 203.105 441.662 202.953C438.926 202.801 436.874 202.674 435.506 202.573V217.089H425.474ZM435.506 195.885H456.178C458.458 195.885 460.028 195.328 460.89 194.213C461.751 193.098 462.182 191.756 462.182 190.185V185.397C462.182 183.776 461.751 182.408 460.89 181.293C460.028 180.178 458.483 179.621 456.254 179.621H435.506V195.885Z" fill="white"/>
</g>
<mask id="mask1_1011_279" style="mask-type:alpha" maskUnits="userSpaceOnUse" x="0" y="0" width="515" height="223">
<path opacity="0.97" d="M257 222H0.5V1H514.5V55H449.885H449.385V55.5V110H385.757H385.257V110.5V165H319.655H319.165L319.155 165.49L318.01 222H257Z" fill="#C4C4C4" stroke="black"/>
</mask>
<g mask="url(#mask1_1011_279)">
<path d="M195.228 217C191.631 217 188.819 216.493 186.792 215.48C184.765 214.467 183.347 212.947 182.536 210.92C181.725 208.893 181.32 206.385 181.32 203.396V186.448C181.32 181.584 182.409 178.012 184.588 175.732C186.767 173.401 190.313 172.236 195.228 172.236H218.104C221.6 172.236 224.26 172.439 226.084 172.844C227.959 173.199 228.896 173.579 228.896 173.984L227.376 180.292C226.515 180.14 223.956 179.988 219.7 179.836C215.495 179.633 209.364 179.532 201.308 179.532H197.432C193.379 179.532 191.352 181.331 191.352 184.928V204.308C191.352 206.031 191.783 207.373 192.644 208.336C193.556 209.248 195.152 209.704 197.432 209.704H200.548C205.412 209.704 209.516 209.679 212.86 209.628C216.204 209.527 218.965 209.451 221.144 209.4V199.064L216.584 199.14L206.628 199.9V192.452H231.1V213.808L231.86 215.404C231.86 215.809 230.796 216.189 228.668 216.544C226.54 216.848 222.943 217 217.876 217H195.228ZM291.058 217.76C289.031 217.76 287.03 217.456 285.054 216.848C283.129 216.189 280.925 214.619 278.442 212.136L272.97 206.664C270.741 204.384 268.283 202.712 265.598 201.648C262.963 200.584 259.645 200.052 255.642 200.052H253.286V217H243.254V178.392L242.494 172.236H276.162C279.405 172.236 281.938 172.667 283.762 173.528C285.637 174.389 287.005 175.529 287.866 176.948C288.778 178.316 289.361 179.785 289.614 181.356C289.867 182.927 289.994 184.421 289.994 185.84V187.284C289.994 188.399 289.842 189.64 289.538 191.008C289.234 192.376 288.651 193.719 287.79 195.036C286.929 196.353 285.687 197.468 284.066 198.38C282.495 199.292 280.418 199.824 277.834 199.976C278.493 200.331 279.329 200.888 280.342 201.648C281.355 202.357 282.394 203.143 283.458 204.004C284.573 204.865 285.586 205.651 286.498 206.36C287.41 207.069 288.119 207.576 288.626 207.88C290.45 208.944 292.071 209.679 293.49 210.084C294.909 210.489 296.074 210.717 296.986 210.768C297.898 210.819 298.43 210.844 298.582 210.844L297.062 217C296.606 217.152 295.846 217.304 294.782 217.456C293.718 217.659 292.477 217.76 291.058 217.76ZM264.686 193.136C266.611 193.136 268.334 193.111 269.854 193.06C271.374 192.959 272.742 192.857 273.958 192.756C276.187 192.503 277.733 191.895 278.594 190.932C279.506 189.919 279.962 188.627 279.962 187.056V185.308C279.962 183.687 279.531 182.319 278.67 181.204C277.809 180.089 276.263 179.532 274.034 179.532H253.286V192.756C255.515 192.908 257.567 193.009 259.442 193.06C261.317 193.111 263.065 193.136 264.686 193.136ZM318.58 217C315.033 217 312.246 216.493 310.22 215.48C308.193 214.467 306.749 212.947 305.888 210.92C305.077 208.893 304.672 206.385 304.672 203.396V185.84C304.672 182.901 305.077 180.444 305.888 178.468C306.698 176.441 308.117 174.921 310.144 173.908C312.17 172.844 314.982 172.312 318.58 172.312H340.772C344.318 172.312 347.08 172.844 349.056 173.908C351.082 174.921 352.501 176.441 353.312 178.468C354.173 180.444 354.604 182.901 354.604 185.84V203.396C354.604 207.855 353.616 211.249 351.64 213.58C349.664 215.86 346.041 217 340.772 217H318.58ZM320.784 209.704H338.644C340.518 209.704 341.962 209.223 342.976 208.26C344.04 207.297 344.572 205.98 344.572 204.308V184.928C344.572 183.459 344.04 182.217 342.976 181.204C341.912 180.14 340.468 179.608 338.644 179.608H320.784C318.96 179.608 317.49 180.089 316.376 181.052C315.261 182.015 314.704 183.307 314.704 184.928V204.308C314.704 206.031 315.236 207.373 316.3 208.336C317.414 209.248 318.909 209.704 320.784 209.704ZM377.242 217.76C372.631 217.76 369.414 216.519 367.59 214.036C365.766 211.553 364.854 208.26 364.854 204.156V172.312H374.886V204.46C374.886 206.841 375.469 208.437 376.634 209.248C377.799 210.059 379.243 210.464 380.966 210.464H397.078C398.699 210.464 400.118 210.059 401.334 209.248C402.55 208.387 403.158 206.791 403.158 204.46V172.312H413.19V204.156C413.19 206.892 412.81 209.273 412.05 211.3C411.29 213.327 410.023 214.923 408.25 216.088C406.477 217.203 404.019 217.76 400.878 217.76H377.242ZM424.942 217V178.392L424.182 172.236H457.85C461.092 172.236 463.626 172.667 465.45 173.528C467.324 174.389 468.692 175.529 469.554 176.948C470.466 178.316 471.048 179.785 471.302 181.356C471.555 182.927 471.682 184.421 471.682 185.84V190.324C471.682 191.489 471.504 192.807 471.15 194.276C470.795 195.695 470.136 197.088 469.174 198.456C468.211 199.773 466.818 200.888 464.994 201.8C463.17 202.661 460.788 203.092 457.85 203.092H450.098C446.906 203.092 443.916 203.016 441.13 202.864C438.394 202.712 436.342 202.585 434.974 202.484V217H424.942ZM434.974 195.796H455.646C457.926 195.796 459.496 195.239 460.358 194.124C461.219 193.009 461.65 191.667 461.65 190.096V185.308C461.65 183.687 461.219 182.319 460.358 181.204C459.496 180.089 457.951 179.532 455.722 179.532H434.974V195.796Z" fill="white"/>
</g>
<mask id="mask2_1011_279" style="mask-type:alpha" maskUnits="userSpaceOnUse" x="0" y="0" width="515" height="222">
<path opacity="0.97" d="M253.5 221H0.5V0.5H514.5V54.5H449.885H449.385V55V109.5H385.757H385.257V110V164.5H319.655H319.17L319.155 164.985L317.514 221H253.5Z" fill="#C4C4C4" stroke="black"/>
</mask>
<g mask="url(#mask2_1011_279)">
<path d="M296.526 130.047V131.653H291.577V130.047H296.526ZM297.989 130.047V140H295.938V130.047H297.989ZM291.317 130.047H293.361L293.108 135.044C293.072 135.791 293.001 136.441 292.896 136.992C292.796 137.544 292.66 138.013 292.486 138.4C292.313 138.783 292.099 139.093 291.844 139.33C291.593 139.562 291.297 139.733 290.955 139.843C290.613 139.948 290.224 140 289.786 140H289.28V138.4L289.54 138.38C289.763 138.357 289.959 138.298 290.128 138.202C290.297 138.106 290.44 137.963 290.559 137.771C290.682 137.58 290.782 137.336 290.859 137.04C290.941 136.739 291.005 136.372 291.051 135.939C291.101 135.507 291.135 135.001 291.153 134.422L291.317 130.047ZM309.164 130.047V140H307.12V130.047H309.164ZM322.041 130.942H324.256C324.848 130.942 325.395 131.04 325.897 131.236C326.398 131.428 326.833 131.706 327.202 132.07C327.576 132.43 327.865 132.866 328.07 133.376C328.275 133.882 328.378 134.447 328.378 135.071C328.378 135.682 328.275 136.238 328.07 136.739C327.865 137.236 327.576 137.662 327.202 138.018C326.833 138.373 326.398 138.646 325.897 138.838C325.395 139.029 324.848 139.125 324.256 139.125H322.041C321.444 139.125 320.895 139.029 320.394 138.838C319.892 138.646 319.455 138.375 319.081 138.024C318.707 137.669 318.416 137.243 318.206 136.746C318.001 136.249 317.899 135.696 317.899 135.085C317.899 134.461 318.001 133.896 318.206 133.39C318.416 132.879 318.707 132.442 319.081 132.077C319.455 131.713 319.892 131.432 320.394 131.236C320.895 131.04 321.444 130.942 322.041 130.942ZM322.041 132.583C321.604 132.583 321.219 132.679 320.886 132.87C320.553 133.062 320.296 133.344 320.113 133.718C319.931 134.087 319.84 134.543 319.84 135.085C319.84 135.477 319.892 135.823 319.997 136.124C320.107 136.42 320.259 136.669 320.455 136.869C320.651 137.07 320.884 137.222 321.152 137.327C321.421 137.432 321.718 137.484 322.041 137.484H324.27C324.703 137.484 325.081 137.391 325.404 137.204C325.733 137.017 325.988 136.744 326.17 136.384C326.352 136.024 326.443 135.586 326.443 135.071C326.443 134.666 326.391 134.308 326.286 133.998C326.181 133.688 326.033 133.428 325.842 133.219C325.65 133.009 325.42 132.852 325.151 132.747C324.887 132.638 324.593 132.583 324.27 132.583H322.041ZM324.133 129.637V140.41H322.164V129.637H324.133ZM341.385 130.047V140H339.341V130.047H341.385ZM344.447 130.047V131.653H336.326V130.047H344.447ZM354.802 136.773L358.801 130.047H360.852V140H358.801V133.273L354.802 140H352.751V130.047H354.802V136.773ZM384.295 134.955V136.5H380.433V134.955H384.295ZM410.644 138.4V140H405.346V138.4H410.644ZM406.016 130.047V140H403.965V130.047H406.016ZM409.953 134.101V135.659H405.346V134.101H409.953ZM410.637 130.047V131.653H405.346V130.047H410.637ZM421.108 130.047V140H419.057V130.047H421.108ZM426.973 130.047L423.159 135.892H420.65L420.39 134.066H422.065L424.485 130.047H426.973ZM424.861 140L422.072 135.55L423.494 134.087L427.294 140H424.861ZM440.862 136.698H442.906C442.865 137.368 442.68 137.963 442.352 138.482C442.028 139.002 441.575 139.408 440.992 139.699C440.413 139.991 439.716 140.137 438.9 140.137C438.262 140.137 437.69 140.027 437.184 139.809C436.678 139.585 436.245 139.266 435.885 138.852C435.53 138.437 435.259 137.936 435.072 137.348C434.885 136.76 434.791 136.101 434.791 135.372V134.682C434.791 133.952 434.887 133.294 435.079 132.706C435.274 132.114 435.552 131.61 435.913 131.195C436.277 130.781 436.712 130.462 437.218 130.238C437.724 130.015 438.289 129.903 438.913 129.903C439.743 129.903 440.442 130.054 441.012 130.354C441.586 130.655 442.031 131.07 442.345 131.599C442.664 132.127 442.856 132.729 442.919 133.403H440.869C440.846 133.002 440.766 132.663 440.629 132.385C440.493 132.102 440.285 131.89 440.007 131.749C439.734 131.603 439.369 131.53 438.913 131.53C438.572 131.53 438.273 131.594 438.018 131.722C437.763 131.849 437.549 132.043 437.375 132.303C437.202 132.562 437.072 132.891 436.986 133.287C436.904 133.679 436.863 134.139 436.863 134.668V135.372C436.863 135.887 436.901 136.34 436.979 136.732C437.056 137.12 437.175 137.448 437.334 137.717C437.498 137.981 437.708 138.182 437.963 138.318C438.223 138.451 438.535 138.517 438.9 138.517C439.328 138.517 439.681 138.448 439.959 138.312C440.237 138.175 440.449 137.972 440.595 137.703C440.746 137.434 440.834 137.099 440.862 136.698ZM455.509 131.749L452.802 140H450.622L454.32 130.047H455.707L455.509 131.749ZM457.758 140L455.044 131.749L454.826 130.047H456.227L459.946 140H457.758ZM457.635 136.295V137.901H452.378V136.295H457.635ZM474.839 130.047V131.653H469.89V130.047H474.839ZM476.302 130.047V140H474.251V130.047H476.302ZM469.63 130.047H471.674L471.421 135.044C471.385 135.791 471.314 136.441 471.209 136.992C471.109 137.544 470.972 138.013 470.799 138.4C470.626 138.783 470.412 139.093 470.157 139.33C469.906 139.562 469.61 139.733 469.268 139.843C468.926 139.948 468.537 140 468.099 140H467.593V138.4L467.853 138.38C468.076 138.357 468.272 138.298 468.441 138.202C468.61 138.106 468.753 137.963 468.872 137.771C468.995 137.58 469.095 137.336 469.172 137.04C469.254 136.739 469.318 136.372 469.364 135.939C469.414 135.507 469.448 135.001 469.466 134.422L469.63 130.047ZM489.466 131.749L486.759 140H484.579L488.277 130.047H489.665L489.466 131.749ZM491.715 140L489.001 131.749L488.783 130.047H490.184L493.903 140H491.715ZM491.592 136.295V137.901H486.335V136.295H491.592ZM505.638 130.047V140H503.594V130.047H505.638ZM508.701 130.047V131.653H500.58V130.047H508.701ZM525.064 134.791V135.263C525.064 136.019 524.962 136.698 524.756 137.3C524.551 137.901 524.262 138.414 523.888 138.838C523.515 139.257 523.068 139.578 522.548 139.802C522.033 140.025 521.462 140.137 520.833 140.137C520.208 140.137 519.636 140.025 519.117 139.802C518.602 139.578 518.155 139.257 517.777 138.838C517.399 138.414 517.105 137.901 516.895 137.3C516.69 136.698 516.587 136.019 516.587 135.263V134.791C516.587 134.03 516.69 133.351 516.895 132.754C517.1 132.152 517.39 131.64 517.763 131.216C518.142 130.792 518.588 130.468 519.103 130.245C519.623 130.022 520.195 129.91 520.819 129.91C521.448 129.91 522.02 130.022 522.535 130.245C523.054 130.468 523.501 130.792 523.875 131.216C524.253 131.64 524.545 132.152 524.75 132.754C524.959 133.351 525.064 134.03 525.064 134.791ZM522.993 135.263V134.777C522.993 134.249 522.945 133.784 522.849 133.383C522.754 132.982 522.612 132.645 522.425 132.371C522.239 132.098 522.011 131.893 521.742 131.756C521.473 131.615 521.165 131.544 520.819 131.544C520.473 131.544 520.165 131.615 519.896 131.756C519.632 131.893 519.406 132.098 519.219 132.371C519.037 132.645 518.898 132.982 518.802 133.383C518.707 133.784 518.659 134.249 518.659 134.777V135.263C518.659 135.787 518.707 136.252 518.802 136.657C518.898 137.058 519.039 137.398 519.226 137.676C519.413 137.949 519.641 138.157 519.91 138.298C520.179 138.439 520.486 138.51 520.833 138.51C521.179 138.51 521.487 138.439 521.755 138.298C522.024 138.157 522.25 137.949 522.432 137.676C522.615 137.398 522.754 137.058 522.849 136.657C522.945 136.252 522.993 135.787 522.993 135.263ZM537.627 136.452H535.09V134.853H537.627C538.019 134.853 538.338 134.789 538.584 134.661C538.83 134.529 539.01 134.347 539.124 134.114C539.238 133.882 539.295 133.62 539.295 133.328C539.295 133.032 539.238 132.756 539.124 132.501C539.01 132.246 538.83 132.041 538.584 131.886C538.338 131.731 538.019 131.653 537.627 131.653H535.801V140H533.751V130.047H537.627C538.406 130.047 539.074 130.188 539.63 130.471C540.19 130.749 540.618 131.134 540.915 131.626C541.211 132.118 541.359 132.681 541.359 133.314C541.359 133.957 541.211 134.513 540.915 134.982C540.618 135.452 540.19 135.814 539.63 136.069C539.074 136.325 538.406 136.452 537.627 136.452ZM551.96 136.773L555.959 130.047H558.009V140H555.959V133.273L551.96 140H549.909V130.047H551.96V136.773ZM581.453 134.955V136.5H577.591V134.955H581.453ZM602.059 130.047H603.796L606.352 137.354L608.909 130.047H610.645L607.05 140H605.655L602.059 130.047ZM601.123 130.047H602.852L603.167 137.17V140H601.123V130.047ZM609.852 130.047H611.589V140H609.538V137.17L609.852 130.047ZM628.772 134.791V135.263C628.772 136.019 628.67 136.698 628.465 137.3C628.26 137.901 627.97 138.414 627.597 138.838C627.223 139.257 626.776 139.578 626.257 139.802C625.742 140.025 625.17 140.137 624.541 140.137C623.917 140.137 623.345 140.025 622.825 139.802C622.31 139.578 621.863 139.257 621.485 138.838C621.107 138.414 620.813 137.901 620.603 137.3C620.398 136.698 620.296 136.019 620.296 135.263V134.791C620.296 134.03 620.398 133.351 620.603 132.754C620.808 132.152 621.098 131.64 621.472 131.216C621.85 130.792 622.296 130.468 622.811 130.245C623.331 130.022 623.903 129.91 624.527 129.91C625.156 129.91 625.728 130.022 626.243 130.245C626.763 130.468 627.209 130.792 627.583 131.216C627.961 131.64 628.253 132.152 628.458 132.754C628.668 133.351 628.772 134.03 628.772 134.791ZM626.701 135.263V134.777C626.701 134.249 626.653 133.784 626.557 133.383C626.462 132.982 626.321 132.645 626.134 132.371C625.947 132.098 625.719 131.893 625.45 131.756C625.181 131.615 624.874 131.544 624.527 131.544C624.181 131.544 623.873 131.615 623.604 131.756C623.34 131.893 623.114 132.098 622.928 132.371C622.745 132.645 622.606 132.982 622.511 133.383C622.415 133.784 622.367 134.249 622.367 134.777V135.263C622.367 135.787 622.415 136.252 622.511 136.657C622.606 137.058 622.748 137.398 622.934 137.676C623.121 137.949 623.349 138.157 623.618 138.298C623.887 138.439 624.195 138.51 624.541 138.51C624.887 138.51 625.195 138.439 625.464 138.298C625.733 138.157 625.958 137.949 626.141 137.676C626.323 137.398 626.462 137.058 626.557 136.657C626.653 136.252 626.701 135.787 626.701 135.263ZM644.097 134.101V135.7H638.901V134.101H644.097ZM639.51 130.047V140H637.459V130.047H639.51ZM645.559 130.047V140H643.516V130.047H645.559ZM658.799 130.047V140H656.755V130.047H658.799ZM661.861 130.047V131.653H653.74V130.047H661.861ZM673.549 131.749L670.842 140H668.661L672.359 130.047H673.747L673.549 131.749ZM675.798 140L673.084 131.749L672.865 130.047H674.267L677.985 140H675.798ZM675.675 136.295V137.901H670.418V136.295H675.675ZM689.283 135.898L685.489 130.047H688.039L690.268 134.08H691.997L691.73 135.898H689.283ZM690.254 135.584L687.896 140H685.339L688.6 134.395L690.254 135.584ZM693.337 130.047V140H691.3V130.047H693.337ZM699.065 130.047L695.326 135.898H692.893L692.626 134.08H694.342L696.516 130.047H699.065ZM696.659 140L694.355 135.584L696.017 134.395L699.216 140H696.659ZM721.784 134.955V136.5H717.922V134.955H721.784ZM749.63 134.791V135.263C749.63 136.019 749.528 136.698 749.322 137.3C749.117 137.901 748.828 138.414 748.454 138.838C748.081 139.257 747.634 139.578 747.114 139.802C746.599 140.025 746.028 140.137 745.399 140.137C744.774 140.137 744.202 140.025 743.683 139.802C743.168 139.578 742.721 139.257 742.343 138.838C741.965 138.414 741.671 137.901 741.461 137.3C741.256 136.698 741.154 136.019 741.154 135.263V134.791C741.154 134.03 741.256 133.351 741.461 132.754C741.666 132.152 741.956 131.64 742.329 131.216C742.708 130.792 743.154 130.468 743.669 130.245C744.189 130.022 744.761 129.91 745.385 129.91C746.014 129.91 746.586 130.022 747.101 130.245C747.62 130.468 748.067 130.792 748.441 131.216C748.819 131.64 749.111 132.152 749.316 132.754C749.525 133.351 749.63 134.03 749.63 134.791ZM747.559 135.263V134.777C747.559 134.249 747.511 133.784 747.415 133.383C747.32 132.982 747.178 132.645 746.991 132.371C746.805 132.098 746.577 131.893 746.308 131.756C746.039 131.615 745.731 131.544 745.385 131.544C745.039 131.544 744.731 131.615 744.462 131.756C744.198 131.893 743.972 132.098 743.785 132.371C743.603 132.645 743.464 132.982 743.368 133.383C743.273 133.784 743.225 134.249 743.225 134.777V135.263C743.225 135.787 743.273 136.252 743.368 136.657C743.464 137.058 743.605 137.398 743.792 137.676C743.979 137.949 744.207 138.157 744.476 138.298C744.745 138.439 745.052 138.51 745.399 138.51C745.745 138.51 746.053 138.439 746.321 138.298C746.59 138.157 746.816 137.949 746.998 137.676C747.181 137.398 747.32 137.058 747.415 136.657C747.511 136.252 747.559 135.787 747.559 135.263ZM764.824 130.047V131.653H760.347V140H758.303V130.047H764.824ZM759.643 133.677H761.967C762.751 133.677 763.425 133.807 763.99 134.066C764.556 134.326 764.991 134.691 765.296 135.16C765.601 135.63 765.754 136.176 765.754 136.801C765.754 137.275 765.668 137.708 765.494 138.1C765.321 138.487 765.068 138.824 764.736 139.111C764.407 139.394 764.011 139.613 763.546 139.768C763.081 139.923 762.555 140 761.967 140H758.303V130.047H760.361V138.4H761.967C762.359 138.4 762.683 138.327 762.938 138.182C763.193 138.036 763.384 137.842 763.512 137.601C763.644 137.354 763.71 137.083 763.71 136.787C763.71 136.505 763.644 136.249 763.512 136.021C763.384 135.789 763.193 135.607 762.938 135.475C762.683 135.342 762.359 135.276 761.967 135.276H759.643V133.677ZM780.074 136.698H782.117C782.076 137.368 781.892 137.963 781.564 138.482C781.24 139.002 780.787 139.408 780.203 139.699C779.625 139.991 778.927 140.137 778.112 140.137C777.474 140.137 776.902 140.027 776.396 139.809C775.89 139.585 775.457 139.266 775.097 138.852C774.741 138.437 774.47 137.936 774.283 137.348C774.097 136.76 774.003 136.101 774.003 135.372V134.682C774.003 133.952 774.099 133.294 774.29 132.706C774.486 132.114 774.764 131.61 775.124 131.195C775.489 130.781 775.924 130.462 776.43 130.238C776.936 130.015 777.501 129.903 778.125 129.903C778.955 129.903 779.654 130.054 780.224 130.354C780.798 130.655 781.242 131.07 781.557 131.599C781.876 132.127 782.067 132.729 782.131 133.403H780.08C780.058 133.002 779.978 132.663 779.841 132.385C779.704 132.102 779.497 131.89 779.219 131.749C778.946 131.603 778.581 131.53 778.125 131.53C777.783 131.53 777.485 131.594 777.23 131.722C776.975 131.849 776.76 132.043 776.587 132.303C776.414 132.562 776.284 132.891 776.198 133.287C776.116 133.679 776.074 134.139 776.074 134.668V135.372C776.074 135.887 776.113 136.34 776.191 136.732C776.268 137.12 776.387 137.448 776.546 137.717C776.71 137.981 776.92 138.182 777.175 138.318C777.435 138.451 777.747 138.517 778.112 138.517C778.54 138.517 778.893 138.448 779.171 138.312C779.449 138.175 779.661 137.972 779.807 137.703C779.957 137.434 780.046 137.099 780.074 136.698ZM797.312 130.047V131.653H792.363V130.047H797.312ZM798.775 130.047V140H796.724V130.047H798.775ZM792.103 130.047H794.147L793.894 135.044C793.857 135.791 793.787 136.441 793.682 136.992C793.582 137.544 793.445 138.013 793.272 138.4C793.099 138.783 792.884 139.093 792.629 139.33C792.379 139.562 792.082 139.733 791.741 139.843C791.399 139.948 791.009 140 790.572 140H790.066V138.4L790.326 138.38C790.549 138.357 790.745 138.298 790.913 138.202C791.082 138.106 791.226 137.963 791.344 137.771C791.467 137.58 791.567 137.336 791.645 137.04C791.727 136.739 791.791 136.372 791.836 135.939C791.886 135.507 791.921 135.001 791.939 134.422L792.103 130.047ZM810.893 136.391L813.34 130.047H815.548L812.137 138.072C812.019 138.346 811.882 138.608 811.727 138.858C811.577 139.104 811.397 139.326 811.187 139.521C810.977 139.713 810.727 139.866 810.435 139.979C810.143 140.089 809.795 140.144 809.389 140.144C809.289 140.144 809.166 140.141 809.02 140.137C808.874 140.132 808.758 140.125 808.671 140.116L808.658 138.517C808.712 138.53 808.799 138.539 808.917 138.544C809.036 138.544 809.122 138.544 809.177 138.544C809.446 138.544 809.658 138.505 809.813 138.428C809.968 138.35 810.091 138.241 810.182 138.1C810.278 137.954 810.362 137.783 810.435 137.587L810.893 136.391ZM809.273 130.047L811.542 134.976L812.178 137.238L810.654 137.266L807.072 130.047H809.273ZM830.36 130.047V131.653H825.875V140H823.831V130.047H830.36ZM846.552 134.791V135.263C846.552 136.019 846.45 136.698 846.245 137.3C846.039 137.901 845.75 138.414 845.376 138.838C845.003 139.257 844.556 139.578 844.037 139.802C843.522 140.025 842.95 140.137 842.321 140.137C841.696 140.137 841.124 140.025 840.605 139.802C840.09 139.578 839.643 139.257 839.265 138.838C838.887 138.414 838.593 137.901 838.383 137.3C838.178 136.698 838.076 136.019 838.076 135.263V134.791C838.076 134.03 838.178 133.351 838.383 132.754C838.588 132.152 838.878 131.64 839.251 131.216C839.63 130.792 840.076 130.468 840.591 130.245C841.111 130.022 841.683 129.91 842.307 129.91C842.936 129.91 843.508 130.022 844.023 130.245C844.542 130.468 844.989 130.792 845.363 131.216C845.741 131.64 846.033 132.152 846.238 132.754C846.447 133.351 846.552 134.03 846.552 134.791ZM844.481 135.263V134.777C844.481 134.249 844.433 133.784 844.337 133.383C844.242 132.982 844.1 132.645 843.914 132.371C843.727 132.098 843.499 131.893 843.23 131.756C842.961 131.615 842.653 131.544 842.307 131.544C841.961 131.544 841.653 131.615 841.384 131.756C841.12 131.893 840.894 132.098 840.707 132.371C840.525 132.645 840.386 132.982 840.29 133.383C840.195 133.784 840.147 134.249 840.147 134.777V135.263C840.147 135.787 840.195 136.252 840.29 136.657C840.386 137.058 840.527 137.398 840.714 137.676C840.901 137.949 841.129 138.157 841.398 138.298C841.667 138.439 841.974 138.51 842.321 138.51C842.667 138.51 842.975 138.439 843.244 138.298C843.512 138.157 843.738 137.949 843.92 137.676C844.103 137.398 844.242 137.058 844.337 136.657C844.433 136.252 844.481 135.787 844.481 135.263ZM859.135 135.632H856.579L856.565 134.224H858.711C859.09 134.224 859.4 134.176 859.641 134.08C859.883 133.98 860.063 133.836 860.181 133.649C860.304 133.458 860.366 133.226 860.366 132.952C860.366 132.642 860.306 132.392 860.188 132.2C860.074 132.009 859.894 131.87 859.648 131.783C859.406 131.697 859.094 131.653 858.711 131.653H857.29V140H855.239V130.047H858.711C859.29 130.047 859.807 130.102 860.263 130.211C860.723 130.32 861.113 130.487 861.432 130.71C861.751 130.933 861.995 131.216 862.164 131.558C862.332 131.895 862.417 132.296 862.417 132.761C862.417 133.171 862.323 133.549 862.136 133.896C861.954 134.242 861.665 134.524 861.268 134.743C860.876 134.962 860.363 135.083 859.73 135.105L859.135 135.632ZM859.046 140H856.018L856.818 138.4H859.046C859.406 138.4 859.7 138.343 859.928 138.229C860.156 138.111 860.325 137.951 860.434 137.751C860.543 137.55 860.598 137.32 860.598 137.061C860.598 136.769 860.548 136.516 860.448 136.302C860.352 136.088 860.197 135.924 859.983 135.81C859.769 135.691 859.486 135.632 859.135 135.632H857.16L857.173 134.224H859.634L860.106 134.777C860.712 134.768 861.2 134.875 861.569 135.099C861.943 135.317 862.214 135.602 862.382 135.953C862.556 136.304 862.642 136.68 862.642 137.081C862.642 137.719 862.503 138.257 862.225 138.694C861.947 139.127 861.539 139.453 861.001 139.672C860.468 139.891 859.817 140 859.046 140ZM874.418 136.391L876.866 130.047H879.074L875.663 138.072C875.544 138.346 875.407 138.608 875.252 138.858C875.102 139.104 874.922 139.326 874.712 139.521C874.503 139.713 874.252 139.866 873.96 139.979C873.669 140.089 873.32 140.144 872.915 140.144C872.814 140.144 872.691 140.141 872.545 140.137C872.4 140.132 872.283 140.125 872.197 140.116L872.183 138.517C872.238 138.53 872.324 138.539 872.443 138.544C872.561 138.544 872.648 138.544 872.703 138.544C872.972 138.544 873.183 138.505 873.338 138.428C873.493 138.35 873.616 138.241 873.708 138.1C873.803 137.954 873.888 137.783 873.96 137.587L874.418 136.391ZM872.798 130.047L875.068 134.976L875.704 137.238L874.179 137.266L870.597 130.047H872.798ZM891.247 135.632H888.69L888.676 134.224H890.823C891.201 134.224 891.511 134.176 891.753 134.08C891.994 133.98 892.174 133.836 892.293 133.649C892.416 133.458 892.477 133.226 892.477 132.952C892.477 132.642 892.418 132.392 892.299 132.2C892.185 132.009 892.005 131.87 891.759 131.783C891.518 131.697 891.206 131.653 890.823 131.653H889.401V140H887.35V130.047H890.823C891.402 130.047 891.919 130.102 892.375 130.211C892.835 130.32 893.225 130.487 893.544 130.71C893.863 130.933 894.106 131.216 894.275 131.558C894.444 131.895 894.528 132.296 894.528 132.761C894.528 133.171 894.434 133.549 894.248 133.896C894.065 134.242 893.776 134.524 893.379 134.743C892.988 134.962 892.475 135.083 891.841 135.105L891.247 135.632ZM891.158 140H888.129L888.929 138.4H891.158C891.518 138.4 891.812 138.343 892.04 138.229C892.267 138.111 892.436 137.951 892.545 137.751C892.655 137.55 892.71 137.32 892.71 137.061C892.71 136.769 892.659 136.516 892.559 136.302C892.463 136.088 892.308 135.924 892.094 135.81C891.88 135.691 891.598 135.632 891.247 135.632H889.271L889.285 134.224H891.746L892.217 134.777C892.823 134.768 893.311 134.875 893.68 135.099C894.054 135.317 894.325 135.602 894.494 135.953C894.667 136.304 894.753 136.68 894.753 137.081C894.753 137.719 894.614 138.257 894.336 138.694C894.058 139.127 893.651 139.453 893.113 139.672C892.58 139.891 891.928 140 891.158 140ZM907.548 131.749L904.841 140H902.661L906.359 130.047H907.747L907.548 131.749ZM909.797 140L907.084 131.749L906.865 130.047H908.266L911.985 140H909.797ZM909.674 136.295V137.901H904.418V136.295H909.674ZM926.755 134.101V135.7H921.56V134.101H926.755ZM922.169 130.047V140H920.118V130.047H922.169ZM928.218 130.047V140H926.174V130.047H928.218ZM943.85 134.101V135.7H938.655V134.101H943.85ZM939.263 130.047V140H937.213V130.047H939.263ZM945.313 130.047V140H943.269V130.047H945.313ZM959.598 136.384H956.891L956.201 136.097C955.422 135.851 954.825 135.481 954.41 134.989C954 134.497 953.795 133.87 953.795 133.109C953.795 132.439 953.943 131.879 954.239 131.428C954.54 130.972 954.964 130.628 955.51 130.396C956.062 130.163 956.716 130.047 957.472 130.047H960.945V140H958.887V131.653H957.472C956.912 131.653 956.499 131.792 956.235 132.07C955.971 132.348 955.839 132.743 955.839 133.253C955.839 133.627 955.9 133.934 956.023 134.176C956.146 134.413 956.326 134.59 956.563 134.709C956.8 134.823 957.099 134.88 957.459 134.88H959.592L959.598 136.384ZM957.623 135.557L955.415 140H953.193L955.408 135.557H957.623Z" fill="white"/>
<path d="M179.1 95L162.76 50.388H173.4L184.116 79.572L185.864 86.944H186.624L187.612 81.776L197.72 50.388H210.64L221.204 81.776L222.572 86.944H223.332L225.08 79.572L235.036 50.388H245.676L244.916 54.948L229.26 95H216.34L206.004 65.132L204.484 60.268H203.724L202.28 65.132L192.02 95H179.1ZM252.541 95V50.312H262.573V68.856H292.365V50.312H302.397V95H292.365V76.152H262.573V95H252.541ZM314.588 95V50.312H324.62V95H314.588ZM352.055 95L351.979 57.532H332.219V50.236H381.923V57.532H362.087V95H352.055ZM389.549 95V50.312H436.821V57.608H399.581V68.096H428.005V75.62H399.581V87.704H437.125L440.165 94.164C440.165 94.3667 439.481 94.5693 438.113 94.772C436.745 94.924 434.389 95 431.045 95H389.549ZM464.435 95V50.312H474.467V95H464.435ZM487.387 95V56.392L486.627 50.312H497.571L523.411 77.368L526.375 81.472H527.211V50.312H537.243V95H527.591L501.143 67.488L498.179 63.916H497.419V95H487.387ZM557.928 95C554.483 95 551.949 94.848 550.328 94.544C548.707 94.24 547.896 93.8853 547.896 93.48L550.936 86.868C552.101 87.0707 554.989 87.2733 559.6 87.476C564.261 87.628 570.645 87.704 578.752 87.704H580.196C582.375 87.704 583.92 87.324 584.832 86.564C585.744 85.7533 586.2 84.4107 586.2 82.536V81.016C586.2 79.2427 585.82 77.976 585.06 77.216C584.351 76.456 582.729 76.076 580.196 76.076H562.564C557.447 76.076 553.723 75.1387 551.392 73.264C549.061 71.3387 547.896 68.2227 547.896 63.916V62.7C547.896 60.4707 548.301 58.4187 549.112 56.544C549.973 54.6693 551.417 53.1747 553.444 52.06C555.471 50.8947 558.257 50.312 561.804 50.312H582.476C585.921 50.312 588.708 50.4893 590.836 50.844C592.964 51.1987 594.028 51.5787 594.028 51.984L592.508 58.368C591.191 58.216 588.201 58.064 583.54 57.912C578.879 57.7093 572.621 57.608 564.768 57.608L563.932 57.532C561.601 57.532 560.031 58.0133 559.22 58.976C558.409 59.888 557.979 61.0533 557.928 62.472V63.764C557.928 65.436 558.384 66.7027 559.296 67.564C560.259 68.3747 561.829 68.78 564.008 68.78H580.88C584.123 68.78 586.884 69.1093 589.164 69.768C591.444 70.4267 593.192 71.6427 594.408 73.416C595.624 75.1387 596.232 77.6973 596.232 81.092V82.308C596.232 86.108 595.244 89.1733 593.268 91.504C591.343 93.8347 587.973 95 583.16 95H557.928ZM622.137 95L622.061 57.532H602.301V50.236H652.005V57.532H632.169V95H622.137ZM644.422 95L666.69 50.312H681.662L703.854 95H692.15L687.666 85.348H660.458L655.518 95H644.422ZM663.194 77.9H684.854L674.442 57.152H673.682L663.194 77.9ZM709.951 95L710.711 88.92V50.312H720.743V87.704H752.207L755.247 94.164C755.247 94.3667 754.563 94.5693 753.195 94.772C751.827 94.924 749.471 95 746.127 95H709.951ZM762.053 95L762.813 88.92V50.312H772.845V87.704H804.309L807.349 94.164C807.349 94.3667 806.665 94.5693 805.297 94.772C803.929 94.924 801.573 95 798.229 95H762.053Z" fill="white"/>
</g>
<mask id="mask3_1011_279" style="mask-type:alpha" maskUnits="userSpaceOnUse" x="331" y="8" width="715" height="220">
<path opacity="0.97" d="M460.508 63H526.744L525.756 8H591.004H1045.5V228H331V173H396.248V118H460.508V63Z" fill="#C4C4C4"/>
</mask>
<g mask="url(#mask3_1011_279)">
<path d="M296.526 130.047V131.653H291.577V130.047H296.526ZM297.989 130.047V140H295.938V130.047H297.989ZM291.317 130.047H293.361L293.108 135.044C293.072 135.791 293.001 136.441 292.896 136.992C292.796 137.544 292.66 138.013 292.486 138.4C292.313 138.783 292.099 139.093 291.844 139.33C291.593 139.562 291.297 139.733 290.955 139.843C290.613 139.948 290.224 140 289.786 140H289.28V138.4L289.54 138.38C289.763 138.357 289.959 138.298 290.128 138.202C290.297 138.106 290.44 137.963 290.559 137.771C290.682 137.58 290.782 137.336 290.859 137.04C290.941 136.739 291.005 136.372 291.051 135.939C291.101 135.507 291.135 135.001 291.153 134.422L291.317 130.047ZM309.164 130.047V140H307.12V130.047H309.164ZM322.041 130.942H324.256C324.848 130.942 325.395 131.04 325.897 131.236C326.398 131.428 326.833 131.706 327.202 132.07C327.576 132.43 327.865 132.866 328.07 133.376C328.275 133.882 328.378 134.447 328.378 135.071C328.378 135.682 328.275 136.238 328.07 136.739C327.865 137.236 327.576 137.662 327.202 138.018C326.833 138.373 326.398 138.646 325.897 138.838C325.395 139.029 324.848 139.125 324.256 139.125H322.041C321.444 139.125 320.895 139.029 320.394 138.838C319.892 138.646 319.455 138.375 319.081 138.024C318.707 137.669 318.416 137.243 318.206 136.746C318.001 136.249 317.899 135.696 317.899 135.085C317.899 134.461 318.001 133.896 318.206 133.39C318.416 132.879 318.707 132.442 319.081 132.077C319.455 131.713 319.892 131.432 320.394 131.236C320.895 131.04 321.444 130.942 322.041 130.942ZM322.041 132.583C321.604 132.583 321.219 132.679 320.886 132.87C320.553 133.062 320.296 133.344 320.113 133.718C319.931 134.087 319.84 134.543 319.84 135.085C319.84 135.477 319.892 135.823 319.997 136.124C320.107 136.42 320.259 136.669 320.455 136.869C320.651 137.07 320.884 137.222 321.152 137.327C321.421 137.432 321.718 137.484 322.041 137.484H324.27C324.703 137.484 325.081 137.391 325.404 137.204C325.733 137.017 325.988 136.744 326.17 136.384C326.352 136.024 326.443 135.586 326.443 135.071C326.443 134.666 326.391 134.308 326.286 133.998C326.181 133.688 326.033 133.428 325.842 133.219C325.65 133.009 325.42 132.852 325.151 132.747C324.887 132.638 324.593 132.583 324.27 132.583H322.041ZM324.133 129.637V140.41H322.164V129.637H324.133ZM341.385 130.047V140H339.341V130.047H341.385ZM344.447 130.047V131.653H336.326V130.047H344.447ZM354.802 136.773L358.801 130.047H360.852V140H358.801V133.273L354.802 140H352.751V130.047H354.802V136.773ZM384.295 134.955V136.5H380.433V134.955H384.295ZM410.644 138.4V140H405.346V138.4H410.644ZM406.016 130.047V140H403.965V130.047H406.016ZM409.953 134.101V135.659H405.346V134.101H409.953ZM410.637 130.047V131.653H405.346V130.047H410.637ZM421.108 130.047V140H419.057V130.047H421.108ZM426.973 130.047L423.159 135.892H420.65L420.39 134.066H422.065L424.485 130.047H426.973ZM424.861 140L422.072 135.55L423.494 134.087L427.294 140H424.861ZM440.862 136.698H442.906C442.865 137.368 442.68 137.963 442.352 138.482C442.028 139.002 441.575 139.408 440.992 139.699C440.413 139.991 439.716 140.137 438.9 140.137C438.262 140.137 437.69 140.027 437.184 139.809C436.678 139.585 436.245 139.266 435.885 138.852C435.53 138.437 435.259 137.936 435.072 137.348C434.885 136.76 434.791 136.101 434.791 135.372V134.682C434.791 133.952 434.887 133.294 435.079 132.706C435.274 132.114 435.552 131.61 435.913 131.195C436.277 130.781 436.712 130.462 437.218 130.238C437.724 130.015 438.289 129.903 438.913 129.903C439.743 129.903 440.442 130.054 441.012 130.354C441.586 130.655 442.031 131.07 442.345 131.599C442.664 132.127 442.856 132.729 442.919 133.403H440.869C440.846 133.002 440.766 132.663 440.629 132.385C440.493 132.102 440.285 131.89 440.007 131.749C439.734 131.603 439.369 131.53 438.913 131.53C438.572 131.53 438.273 131.594 438.018 131.722C437.763 131.849 437.549 132.043 437.375 132.303C437.202 132.562 437.072 132.891 436.986 133.287C436.904 133.679 436.863 134.139 436.863 134.668V135.372C436.863 135.887 436.901 136.34 436.979 136.732C437.056 137.12 437.175 137.448 437.334 137.717C437.498 137.981 437.708 138.182 437.963 138.318C438.223 138.451 438.535 138.517 438.9 138.517C439.328 138.517 439.681 138.448 439.959 138.312C440.237 138.175 440.449 137.972 440.595 137.703C440.746 137.434 440.834 137.099 440.862 136.698ZM455.509 131.749L452.802 140H450.622L454.32 130.047H455.707L455.509 131.749ZM457.758 140L455.044 131.749L454.826 130.047H456.227L459.946 140H457.758ZM457.635 136.295V137.901H452.378V136.295H457.635ZM474.839 130.047V131.653H469.89V130.047H474.839ZM476.302 130.047V140H474.251V130.047H476.302ZM469.63 130.047H471.674L471.421 135.044C471.385 135.791 471.314 136.441 471.209 136.992C471.109 137.544 470.972 138.013 470.799 138.4C470.626 138.783 470.412 139.093 470.157 139.33C469.906 139.562 469.61 139.733 469.268 139.843C468.926 139.948 468.537 140 468.099 140H467.593V138.4L467.853 138.38C468.076 138.357 468.272 138.298 468.441 138.202C468.61 138.106 468.753 137.963 468.872 137.771C468.995 137.58 469.095 137.336 469.172 137.04C469.254 136.739 469.318 136.372 469.364 135.939C469.414 135.507 469.448 135.001 469.466 134.422L469.63 130.047ZM489.466 131.749L486.759 140H484.579L488.277 130.047H489.665L489.466 131.749ZM491.715 140L489.001 131.749L488.783 130.047H490.184L493.903 140H491.715ZM491.592 136.295V137.901H486.335V136.295H491.592ZM505.638 130.047V140H503.594V130.047H505.638ZM508.701 130.047V131.653H500.58V130.047H508.701ZM525.064 134.791V135.263C525.064 136.019 524.962 136.698 524.756 137.3C524.551 137.901 524.262 138.414 523.888 138.838C523.515 139.257 523.068 139.578 522.548 139.802C522.033 140.025 521.462 140.137 520.833 140.137C520.208 140.137 519.636 140.025 519.117 139.802C518.602 139.578 518.155 139.257 517.777 138.838C517.399 138.414 517.105 137.901 516.895 137.3C516.69 136.698 516.587 136.019 516.587 135.263V134.791C516.587 134.03 516.69 133.351 516.895 132.754C517.1 132.152 517.39 131.64 517.763 131.216C518.142 130.792 518.588 130.468 519.103 130.245C519.623 130.022 520.195 129.91 520.819 129.91C521.448 129.91 522.02 130.022 522.535 130.245C523.054 130.468 523.501 130.792 523.875 131.216C524.253 131.64 524.545 132.152 524.75 132.754C524.959 133.351 525.064 134.03 525.064 134.791ZM522.993 135.263V134.777C522.993 134.249 522.945 133.784 522.849 133.383C522.754 132.982 522.612 132.645 522.425 132.371C522.239 132.098 522.011 131.893 521.742 131.756C521.473 131.615 521.165 131.544 520.819 131.544C520.473 131.544 520.165 131.615 519.896 131.756C519.632 131.893 519.406 132.098 519.219 132.371C519.037 132.645 518.898 132.982 518.802 133.383C518.707 133.784 518.659 134.249 518.659 134.777V135.263C518.659 135.787 518.707 136.252 518.802 136.657C518.898 137.058 519.039 137.398 519.226 137.676C519.413 137.949 519.641 138.157 519.91 138.298C520.179 138.439 520.486 138.51 520.833 138.51C521.179 138.51 521.487 138.439 521.755 138.298C522.024 138.157 522.25 137.949 522.432 137.676C522.615 137.398 522.754 137.058 522.849 136.657C522.945 136.252 522.993 135.787 522.993 135.263ZM537.627 136.452H535.09V134.853H537.627C538.019 134.853 538.338 134.789 538.584 134.661C538.83 134.529 539.01 134.347 539.124 134.114C539.238 133.882 539.295 133.62 539.295 133.328C539.295 133.032 539.238 132.756 539.124 132.501C539.01 132.246 538.83 132.041 538.584 131.886C538.338 131.731 538.019 131.653 537.627 131.653H535.801V140H533.751V130.047H537.627C538.406 130.047 539.074 130.188 539.63 130.471C540.19 130.749 540.618 131.134 540.915 131.626C541.211 132.118 541.359 132.681 541.359 133.314C541.359 133.957 541.211 134.513 540.915 134.982C540.618 135.452 540.19 135.814 539.63 136.069C539.074 136.325 538.406 136.452 537.627 136.452ZM551.96 136.773L555.959 130.047H558.009V140H555.959V133.273L551.96 140H549.909V130.047H551.96V136.773ZM581.453 134.955V136.5H577.591V134.955H581.453ZM602.059 130.047H603.796L606.352 137.354L608.909 130.047H610.645L607.05 140H605.655L602.059 130.047ZM601.123 130.047H602.852L603.167 137.17V140H601.123V130.047ZM609.852 130.047H611.589V140H609.538V137.17L609.852 130.047ZM628.772 134.791V135.263C628.772 136.019 628.67 136.698 628.465 137.3C628.26 137.901 627.97 138.414 627.597 138.838C627.223 139.257 626.776 139.578 626.257 139.802C625.742 140.025 625.17 140.137 624.541 140.137C623.917 140.137 623.345 140.025 622.825 139.802C622.31 139.578 621.863 139.257 621.485 138.838C621.107 138.414 620.813 137.901 620.603 137.3C620.398 136.698 620.296 136.019 620.296 135.263V134.791C620.296 134.03 620.398 133.351 620.603 132.754C620.808 132.152 621.098 131.64 621.472 131.216C621.85 130.792 622.296 130.468 622.811 130.245C623.331 130.022 623.903 129.91 624.527 129.91C625.156 129.91 625.728 130.022 626.243 130.245C626.763 130.468 627.209 130.792 627.583 131.216C627.961 131.64 628.253 132.152 628.458 132.754C628.668 133.351 628.772 134.03 628.772 134.791ZM626.701 135.263V134.777C626.701 134.249 626.653 133.784 626.557 133.383C626.462 132.982 626.321 132.645 626.134 132.371C625.947 132.098 625.719 131.893 625.45 131.756C625.181 131.615 624.874 131.544 624.527 131.544C624.181 131.544 623.873 131.615 623.604 131.756C623.34 131.893 623.114 132.098 622.928 132.371C622.745 132.645 622.606 132.982 622.511 133.383C622.415 133.784 622.367 134.249 622.367 134.777V135.263C622.367 135.787 622.415 136.252 622.511 136.657C622.606 137.058 622.748 137.398 622.934 137.676C623.121 137.949 623.349 138.157 623.618 138.298C623.887 138.439 624.195 138.51 624.541 138.51C624.887 138.51 625.195 138.439 625.464 138.298C625.733 138.157 625.958 137.949 626.141 137.676C626.323 137.398 626.462 137.058 626.557 136.657C626.653 136.252 626.701 135.787 626.701 135.263ZM644.097 134.101V135.7H638.901V134.101H644.097ZM639.51 130.047V140H637.459V130.047H639.51ZM645.559 130.047V140H643.516V130.047H645.559ZM658.799 130.047V140H656.755V130.047H658.799ZM661.861 130.047V131.653H653.74V130.047H661.861ZM673.549 131.749L670.842 140H668.661L672.359 130.047H673.747L673.549 131.749ZM675.798 140L673.084 131.749L672.865 130.047H674.267L677.985 140H675.798ZM675.675 136.295V137.901H670.418V136.295H675.675ZM689.283 135.898L685.489 130.047H688.039L690.268 134.08H691.997L691.73 135.898H689.283ZM690.254 135.584L687.896 140H685.339L688.6 134.395L690.254 135.584ZM693.337 130.047V140H691.3V130.047H693.337ZM699.065 130.047L695.326 135.898H692.893L692.626 134.08H694.342L696.516 130.047H699.065ZM696.659 140L694.355 135.584L696.017 134.395L699.216 140H696.659ZM721.784 134.955V136.5H717.922V134.955H721.784ZM749.63 134.791V135.263C749.63 136.019 749.528 136.698 749.322 137.3C749.117 137.901 748.828 138.414 748.454 138.838C748.081 139.257 747.634 139.578 747.114 139.802C746.599 140.025 746.028 140.137 745.399 140.137C744.774 140.137 744.202 140.025 743.683 139.802C743.168 139.578 742.721 139.257 742.343 138.838C741.965 138.414 741.671 137.901 741.461 137.3C741.256 136.698 741.154 136.019 741.154 135.263V134.791C741.154 134.03 741.256 133.351 741.461 132.754C741.666 132.152 741.956 131.64 742.329 131.216C742.708 130.792 743.154 130.468 743.669 130.245C744.189 130.022 744.761 129.91 745.385 129.91C746.014 129.91 746.586 130.022 747.101 130.245C747.62 130.468 748.067 130.792 748.441 131.216C748.819 131.64 749.111 132.152 749.316 132.754C749.525 133.351 749.63 134.03 749.63 134.791ZM747.559 135.263V134.777C747.559 134.249 747.511 133.784 747.415 133.383C747.32 132.982 747.178 132.645 746.991 132.371C746.805 132.098 746.577 131.893 746.308 131.756C746.039 131.615 745.731 131.544 745.385 131.544C745.039 131.544 744.731 131.615 744.462 131.756C744.198 131.893 743.972 132.098 743.785 132.371C743.603 132.645 743.464 132.982 743.368 133.383C743.273 133.784 743.225 134.249 743.225 134.777V135.263C743.225 135.787 743.273 136.252 743.368 136.657C743.464 137.058 743.605 137.398 743.792 137.676C743.979 137.949 744.207 138.157 744.476 138.298C744.745 138.439 745.052 138.51 745.399 138.51C745.745 138.51 746.053 138.439 746.321 138.298C746.59 138.157 746.816 137.949 746.998 137.676C747.181 137.398 747.32 137.058 747.415 136.657C747.511 136.252 747.559 135.787 747.559 135.263ZM764.824 130.047V131.653H760.347V140H758.303V130.047H764.824ZM759.643 133.677H761.967C762.751 133.677 763.425 133.807 763.99 134.066C764.556 134.326 764.991 134.691 765.296 135.16C765.601 135.63 765.754 136.176 765.754 136.801C765.754 137.275 765.668 137.708 765.494 138.1C765.321 138.487 765.068 138.824 764.736 139.111C764.407 139.394 764.011 139.613 763.546 139.768C763.081 139.923 762.555 140 761.967 140H758.303V130.047H760.361V138.4H761.967C762.359 138.4 762.683 138.327 762.938 138.182C763.193 138.036 763.384 137.842 763.512 137.601C763.644 137.354 763.71 137.083 763.71 136.787C763.71 136.505 763.644 136.249 763.512 136.021C763.384 135.789 763.193 135.607 762.938 135.475C762.683 135.342 762.359 135.276 761.967 135.276H759.643V133.677ZM780.074 136.698H782.117C782.076 137.368 781.892 137.963 781.564 138.482C781.24 139.002 780.787 139.408 780.203 139.699C779.625 139.991 778.927 140.137 778.112 140.137C777.474 140.137 776.902 140.027 776.396 139.809C775.89 139.585 775.457 139.266 775.097 138.852C774.741 138.437 774.47 137.936 774.283 137.348C774.097 136.76 774.003 136.101 774.003 135.372V134.682C774.003 133.952 774.099 133.294 774.29 132.706C774.486 132.114 774.764 131.61 775.124 131.195C775.489 130.781 775.924 130.462 776.43 130.238C776.936 130.015 777.501 129.903 778.125 129.903C778.955 129.903 779.654 130.054 780.224 130.354C780.798 130.655 781.242 131.07 781.557 131.599C781.876 132.127 782.067 132.729 782.131 133.403H780.08C780.058 133.002 779.978 132.663 779.841 132.385C779.704 132.102 779.497 131.89 779.219 131.749C778.946 131.603 778.581 131.53 778.125 131.53C777.783 131.53 777.485 131.594 777.23 131.722C776.975 131.849 776.76 132.043 776.587 132.303C776.414 132.562 776.284 132.891 776.198 133.287C776.116 133.679 776.074 134.139 776.074 134.668V135.372C776.074 135.887 776.113 136.34 776.191 136.732C776.268 137.12 776.387 137.448 776.546 137.717C776.71 137.981 776.92 138.182 777.175 138.318C777.435 138.451 777.747 138.517 778.112 138.517C778.54 138.517 778.893 138.448 779.171 138.312C779.449 138.175 779.661 137.972 779.807 137.703C779.957 137.434 780.046 137.099 780.074 136.698ZM797.312 130.047V131.653H792.363V130.047H797.312ZM798.775 130.047V140H796.724V130.047H798.775ZM792.103 130.047H794.147L793.894 135.044C793.857 135.791 793.787 136.441 793.682 136.992C793.582 137.544 793.445 138.013 793.272 138.4C793.099 138.783 792.884 139.093 792.629 139.33C792.379 139.562 792.082 139.733 791.741 139.843C791.399 139.948 791.009 140 790.572 140H790.066V138.4L790.326 138.38C790.549 138.357 790.745 138.298 790.913 138.202C791.082 138.106 791.226 137.963 791.344 137.771C791.467 137.58 791.567 137.336 791.645 137.04C791.727 136.739 791.791 136.372 791.836 135.939C791.886 135.507 791.921 135.001 791.939 134.422L792.103 130.047ZM810.893 136.391L813.34 130.047H815.548L812.137 138.072C812.019 138.346 811.882 138.608 811.727 138.858C811.577 139.104 811.397 139.326 811.187 139.521C810.977 139.713 810.727 139.866 810.435 139.979C810.143 140.089 809.795 140.144 809.389 140.144C809.289 140.144 809.166 140.141 809.02 140.137C808.874 140.132 808.758 140.125 808.671 140.116L808.658 138.517C808.712 138.53 808.799 138.539 808.917 138.544C809.036 138.544 809.122 138.544 809.177 138.544C809.446 138.544 809.658 138.505 809.813 138.428C809.968 138.35 810.091 138.241 810.182 138.1C810.278 137.954 810.362 137.783 810.435 137.587L810.893 136.391ZM809.273 130.047L811.542 134.976L812.178 137.238L810.654 137.266L807.072 130.047H809.273ZM830.36 130.047V131.653H825.875V140H823.831V130.047H830.36ZM846.552 134.791V135.263C846.552 136.019 846.45 136.698 846.245 137.3C846.039 137.901 845.75 138.414 845.376 138.838C845.003 139.257 844.556 139.578 844.037 139.802C843.522 140.025 842.95 140.137 842.321 140.137C841.696 140.137 841.124 140.025 840.605 139.802C840.09 139.578 839.643 139.257 839.265 138.838C838.887 138.414 838.593 137.901 838.383 137.3C838.178 136.698 838.076 136.019 838.076 135.263V134.791C838.076 134.03 838.178 133.351 838.383 132.754C838.588 132.152 838.878 131.64 839.251 131.216C839.63 130.792 840.076 130.468 840.591 130.245C841.111 130.022 841.683 129.91 842.307 129.91C842.936 129.91 843.508 130.022 844.023 130.245C844.542 130.468 844.989 130.792 845.363 131.216C845.741 131.64 846.033 132.152 846.238 132.754C846.447 133.351 846.552 134.03 846.552 134.791ZM844.481 135.263V134.777C844.481 134.249 844.433 133.784 844.337 133.383C844.242 132.982 844.1 132.645 843.914 132.371C843.727 132.098 843.499 131.893 843.23 131.756C842.961 131.615 842.653 131.544 842.307 131.544C841.961 131.544 841.653 131.615 841.384 131.756C841.12 131.893 840.894 132.098 840.707 132.371C840.525 132.645 840.386 132.982 840.29 133.383C840.195 133.784 840.147 134.249 840.147 134.777V135.263C840.147 135.787 840.195 136.252 840.29 136.657C840.386 137.058 840.527 137.398 840.714 137.676C840.901 137.949 841.129 138.157 841.398 138.298C841.667 138.439 841.974 138.51 842.321 138.51C842.667 138.51 842.975 138.439 843.244 138.298C843.512 138.157 843.738 137.949 843.92 137.676C844.103 137.398 844.242 137.058 844.337 136.657C844.433 136.252 844.481 135.787 844.481 135.263ZM859.135 135.632H856.579L856.565 134.224H858.711C859.09 134.224 859.4 134.176 859.641 134.08C859.883 133.98 860.063 133.836 860.181 133.649C860.304 133.458 860.366 133.226 860.366 132.952C860.366 132.642 860.306 132.392 860.188 132.2C860.074 132.009 859.894 131.87 859.648 131.783C859.406 131.697 859.094 131.653 858.711 131.653H857.29V140H855.239V130.047H858.711C859.29 130.047 859.807 130.102 860.263 130.211C860.723 130.32 861.113 130.487 861.432 130.71C861.751 130.933 861.995 131.216 862.164 131.558C862.332 131.895 862.417 132.296 862.417 132.761C862.417 133.171 862.323 133.549 862.136 133.896C861.954 134.242 861.665 134.524 861.268 134.743C860.876 134.962 860.363 135.083 859.73 135.105L859.135 135.632ZM859.046 140H856.018L856.818 138.4H859.046C859.406 138.4 859.7 138.343 859.928 138.229C860.156 138.111 860.325 137.951 860.434 137.751C860.543 137.55 860.598 137.32 860.598 137.061C860.598 136.769 860.548 136.516 860.448 136.302C860.352 136.088 860.197 135.924 859.983 135.81C859.769 135.691 859.486 135.632 859.135 135.632H857.16L857.173 134.224H859.634L860.106 134.777C860.712 134.768 861.2 134.875 861.569 135.099C861.943 135.317 862.214 135.602 862.382 135.953C862.556 136.304 862.642 136.68 862.642 137.081C862.642 137.719 862.503 138.257 862.225 138.694C861.947 139.127 861.539 139.453 861.001 139.672C860.468 139.891 859.817 140 859.046 140ZM874.418 136.391L876.866 130.047H879.074L875.663 138.072C875.544 138.346 875.407 138.608 875.252 138.858C875.102 139.104 874.922 139.326 874.712 139.521C874.503 139.713 874.252 139.866 873.96 139.979C873.669 140.089 873.32 140.144 872.915 140.144C872.814 140.144 872.691 140.141 872.545 140.137C872.4 140.132 872.283 140.125 872.197 140.116L872.183 138.517C872.238 138.53 872.324 138.539 872.443 138.544C872.561 138.544 872.648 138.544 872.703 138.544C872.972 138.544 873.183 138.505 873.338 138.428C873.493 138.35 873.616 138.241 873.708 138.1C873.803 137.954 873.888 137.783 873.96 137.587L874.418 136.391ZM872.798 130.047L875.068 134.976L875.704 137.238L874.179 137.266L870.597 130.047H872.798ZM891.247 135.632H888.69L888.676 134.224H890.823C891.201 134.224 891.511 134.176 891.753 134.08C891.994 133.98 892.174 133.836 892.293 133.649C892.416 133.458 892.477 133.226 892.477 132.952C892.477 132.642 892.418 132.392 892.299 132.2C892.185 132.009 892.005 131.87 891.759 131.783C891.518 131.697 891.206 131.653 890.823 131.653H889.401V140H887.35V130.047H890.823C891.402 130.047 891.919 130.102 892.375 130.211C892.835 130.32 893.225 130.487 893.544 130.71C893.863 130.933 894.106 131.216 894.275 131.558C894.444 131.895 894.528 132.296 894.528 132.761C894.528 133.171 894.434 133.549 894.248 133.896C894.065 134.242 893.776 134.524 893.379 134.743C892.988 134.962 892.475 135.083 891.841 135.105L891.247 135.632ZM891.158 140H888.129L888.929 138.4H891.158C891.518 138.4 891.812 138.343 892.04 138.229C892.267 138.111 892.436 137.951 892.545 137.751C892.655 137.55 892.71 137.32 892.71 137.061C892.71 136.769 892.659 136.516 892.559 136.302C892.463 136.088 892.308 135.924 892.094 135.81C891.88 135.691 891.598 135.632 891.247 135.632H889.271L889.285 134.224H891.746L892.217 134.777C892.823 134.768 893.311 134.875 893.68 135.099C894.054 135.317 894.325 135.602 894.494 135.953C894.667 136.304 894.753 136.68 894.753 137.081C894.753 137.719 894.614 138.257 894.336 138.694C894.058 139.127 893.651 139.453 893.113 139.672C892.58 139.891 891.928 140 891.158 140ZM907.548 131.749L904.841 140H902.661L906.359 130.047H907.747L907.548 131.749ZM909.797 140L907.084 131.749L906.865 130.047H908.266L911.985 140H909.797ZM909.674 136.295V137.901H904.418V136.295H909.674ZM926.755 134.101V135.7H921.56V134.101H926.755ZM922.169 130.047V140H920.118V130.047H922.169ZM928.218 130.047V140H926.174V130.047H928.218ZM943.85 134.101V135.7H938.655V134.101H943.85ZM939.263 130.047V140H937.213V130.047H939.263ZM945.313 130.047V140H943.269V130.047H945.313ZM959.598 136.384H956.891L956.201 136.097C955.422 135.851 954.825 135.481 954.41 134.989C954 134.497 953.795 133.87 953.795 133.109C953.795 132.439 953.943 131.879 954.239 131.428C954.54 130.972 954.964 130.628 955.51 130.396C956.062 130.163 956.716 130.047 957.472 130.047H960.945V140H958.887V131.653H957.472C956.912 131.653 956.499 131.792 956.235 132.07C955.971 132.348 955.839 132.743 955.839 133.253C955.839 133.627 955.9 133.934 956.023 134.176C956.146 134.413 956.326 134.59 956.563 134.709C956.8 134.823 957.099 134.88 957.459 134.88H959.592L959.598 136.384ZM957.623 135.557L955.415 140H953.193L955.408 135.557H957.623Z" fill="white"/>
<path d="M178.1 95L161.76 50.388H172.4L183.116 79.572L184.864 86.944H185.624L186.612 81.776L196.72 50.388H209.64L220.204 81.776L221.572 86.944H222.332L224.08 79.572L234.036 50.388H244.676L243.916 54.948L228.26 95H215.34L205.004 65.132L203.484 60.268H202.724L201.28 65.132L191.02 95H178.1ZM251.541 95V50.312H261.573V68.856H291.365V50.312H301.397V95H291.365V76.152H261.573V95H251.541ZM313.588 95V50.312H323.62V95H313.588ZM351.055 95L350.979 57.532H331.219V50.236H380.923V57.532H361.087V95H351.055ZM388.549 95V50.312H435.821V57.608H398.581V68.096H427.005V75.62H398.581V87.704H436.125L439.165 94.164C439.165 94.3667 438.481 94.5693 437.113 94.772C435.745 94.924 433.389 95 430.045 95H388.549ZM463.435 95V50.312H473.467V95H463.435ZM486.387 95V56.392L485.627 50.312H496.571L522.411 77.368L525.375 81.472H526.211V50.312H536.243V95H526.591L500.143 67.488L497.179 63.916H496.419V95H486.387ZM556.928 95C553.483 95 550.949 94.848 549.328 94.544C547.707 94.24 546.896 93.8853 546.896 93.48L549.936 86.868C551.101 87.0707 553.989 87.2733 558.6 87.476C563.261 87.628 569.645 87.704 577.752 87.704H579.196C581.375 87.704 582.92 87.324 583.832 86.564C584.744 85.7533 585.2 84.4107 585.2 82.536V81.016C585.2 79.2427 584.82 77.976 584.06 77.216C583.351 76.456 581.729 76.076 579.196 76.076H561.564C556.447 76.076 552.723 75.1387 550.392 73.264C548.061 71.3387 546.896 68.2227 546.896 63.916V62.7C546.896 60.4707 547.301 58.4187 548.112 56.544C548.973 54.6693 550.417 53.1747 552.444 52.06C554.471 50.8947 557.257 50.312 560.804 50.312H581.476C584.921 50.312 587.708 50.4893 589.836 50.844C591.964 51.1987 593.028 51.5787 593.028 51.984L591.508 58.368C590.191 58.216 587.201 58.064 582.54 57.912C577.879 57.7093 571.621 57.608 563.768 57.608L562.932 57.532C560.601 57.532 559.031 58.0133 558.22 58.976C557.409 59.888 556.979 61.0533 556.928 62.472V63.764C556.928 65.436 557.384 66.7027 558.296 67.564C559.259 68.3747 560.829 68.78 563.008 68.78H579.88C583.123 68.78 585.884 69.1093 588.164 69.768C590.444 70.4267 592.192 71.6427 593.408 73.416C594.624 75.1387 595.232 77.6973 595.232 81.092V82.308C595.232 86.108 594.244 89.1733 592.268 91.504C590.343 93.8347 586.973 95 582.16 95H556.928ZM621.137 95L621.061 57.532H601.301V50.236H651.005V57.532H631.169V95H621.137ZM643.422 95L665.69 50.312H680.662L702.854 95H691.15L686.666 85.348H659.458L654.518 95H643.422ZM662.194 77.9H683.854L673.442 57.152H672.682L662.194 77.9ZM708.951 95L709.711 88.92V50.312H719.743V87.704H751.207L754.247 94.164C754.247 94.3667 753.563 94.5693 752.195 94.772C750.827 94.924 748.471 95 745.127 95H708.951ZM761.053 95L761.813 88.92V50.312H771.845V87.704H803.309L806.349 94.164C806.349 94.3667 805.665 94.5693 804.297 94.772C802.929 94.924 800.573 95 797.229 95H761.053Z" fill="white"/>
</g>
</svg>
