<svg width="19" height="26" viewBox="0 0 19 26" fill="none" xmlns="http://www.w3.org/2000/svg">
<path d="M17.6247 20.2762C16.4909 18.3821 15.3107 17.5515 13.5068 18.552L13.0413 18.8238C10.107 18.7779 8.46298 15.0407 7.90465 14.3833C7.59198 13.5832 5.07006 10.3608 6.44097 7.79399L6.90653 7.5222C8.66226 6.44181 8.4939 5.01658 7.36006 3.1225C6.35164 1.44246 5.84313 -0.120362 4.35883 0.747686L3.42771 1.29298C2.287 1.96057 1.42803 2.87789 0.943574 3.83597C0.943574 3.83597 -0.528697 6.24476 0.204862 9.52669C0.398988 10.3947 0.733986 11.2033 1.18065 11.9491L4.00494 16.6681L6.82922 21.3872C7.27588 22.1329 7.8325 22.8124 8.50764 23.3985C11.0639 25.6136 13.9071 25.4964 13.9071 25.4964C14.9911 25.5372 16.216 25.2331 17.3567 24.5655L18.2879 24.0202C19.7722 23.1522 18.6314 21.9596 17.623 20.2745L17.6247 20.2762Z" fill="white"/>
</svg>
