<svg width="94" height="92" viewBox="0 0 94 92" fill="none" xmlns="http://www.w3.org/2000/svg">
<path d="M55.0266 39L78.0945 56.7197C80.5496 58.6057 81.0709 62.0969 79.2737 64.6177V64.6177C77.4273 67.2077 73.829 67.8066 71.2432 65.9544L64.6347 61.2209" stroke="#FFAA2B" stroke-linecap="round"/>
<path d="M55.0267 39C50.5267 35.5 46.5268 38 40.5267 38C36.0267 38 32.0267 35.5 31.5267 31.5C31.1516 28.5 43.0267 27.4999 48.0267 26.9999C53.0267 26.5 57.0267 29 60.5267 30C63.3267 30.8 68.5267 28.6667 71.0267 27.5" stroke="#FFAA2B"/>
<path d="M66.3933 62.4351L70.9468 65.7948C73.1196 67.398 73.6051 70.4475 72.0377 72.6462V72.6462C70.4669 74.8495 67.417 75.3816 65.1929 73.8403L58.905 69.4829" stroke="#FFAA2B" stroke-linecap="round"/>
<path d="M59.0265 69.5002L64.6365 73.5519C66.4989 74.897 66.8963 77.5079 65.5183 79.3461V79.3461C64.1469 81.1755 61.5459 81.5332 59.7316 80.1419L53.0266 75.0002" stroke="#FFAA2B" stroke-linecap="round"/>
<path d="M53.0266 75.0002L57.631 78.4535C59.5065 79.8601 59.8869 82.5206 58.4807 84.3964V84.3964C57.1112 86.2233 54.5422 86.6399 52.6655 85.3394L47.5267 81.7783" stroke="#FFAA2B" stroke-linecap="round"/>
<rect x="11.8653" y="60.6106" width="19.6318" height="9.93922" rx="4.96961" transform="rotate(-39.3518 11.8653 60.6106)" stroke="#FFAA2B"/>
<rect x="24.8389" y="75.8645" width="19.0117" height="10.0037" rx="5.00185" transform="rotate(-39.3518 24.8389 75.8645)" stroke="#FFAA2B"/>
<rect x="31.1341" y="83.7659" width="15.3281" height="9.42482" rx="4.71241" transform="rotate(-39.3518 31.1341 83.7659)" stroke="#FFAA2B"/>
<rect x="18.2303" y="68.3635" width="24.6156" height="10.0037" rx="5.00185" transform="rotate(-39.3518 18.2303 68.3635)" stroke="#FFAA2B"/>
<rect y="53.4248" width="38.5581" height="6.64481" rx="3.3224" transform="rotate(-60 0 53.4248)" fill="#FFAA2B"/>
<rect width="38.5581" height="7.6328" rx="3.8164" transform="matrix(-0.5 -0.866025 -0.866025 0.5 93.416 52.9307)" fill="#FFAA2B"/>
<path d="M8.02661 52C10.0266 52 12.5266 52.5 16.0266 57" stroke="#FFAA2B"/>
<path d="M84.5266 52C82.7766 52 80.5891 52.4 77.5266 56" stroke="#FFAA2B"/>
<line x1="21.6703" y1="27.5211" x2="31.6703" y2="30.5211" stroke="#FFAA2B"/>
<line x1="46.0266" y1="11.5" x2="46.0266" y2="0.5" stroke="#FFAA2B" stroke-linecap="round"/>
<line x1="32.8363" y1="16.8466" x2="26.3732" y2="6.69027" stroke="#FFAA2B" stroke-linecap="round"/>
<line x1="0.5" y1="-0.5" x2="12.5384" y2="-0.5" transform="matrix(0.536875 -0.843661 -0.843661 -0.536875 59.5266 17)" stroke="#FFAA2B" stroke-linecap="round"/>
</svg>
