<svg width="68" height="70" viewBox="0 0 68 70" fill="none" xmlns="http://www.w3.org/2000/svg">
<path d="M33 25L33 69" stroke="#FFAA2B" stroke-linecap="round"/>
<path d="M47 13L19 13" stroke="#FFAA2B" stroke-width="2" stroke-linecap="round"/>
<path d="M45 17L21 17" stroke="#FFAA2B" stroke-width="1.5" stroke-linecap="round"/>
<path d="M11 69V29.9811C11 27.2301 12.8888 25 15.2187 25H29.9844H44.75M56 69V29.9811C56 27.2301 54.1112 25 51.7812 25H43.3437" stroke="#FFAA2B" stroke-linecap="round"/>
<path d="M0.5 19.1781V5.75342C0.5 2.89906 3.08084 0.5 6.375 0.5L61.625 0.500004C64.9192 0.500004 67.5 2.89906 67.5 5.75343V20.137V49.863V64.2466C67.5 67.1009 64.9192 69.5 61.625 69.5L6.375 69.5C3.08084 69.5 0.5 67.1009 0.5 64.2466V50.8219V19.1781Z" stroke="#FFAA2B" stroke-linecap="round"/>
</svg>
