<svg width="69" height="49" viewBox="0 0 69 49" fill="none" xmlns="http://www.w3.org/2000/svg">
<path d="M25 30L11 30M18 37V23" stroke="#FFAA2B" stroke-linecap="round"/>
<path d="M67.3563 35.382L67.004 44.9542L67.0037 44.9634V44.9726C67.0037 45.8545 66.441 46.7244 65.3816 47.3986C64.3282 48.069 62.8423 48.5 61.1752 48.5L6.32847 48.5C4.66132 48.5 3.17546 48.069 2.12201 47.3986C1.06263 46.7244 0.5 45.8545 0.5 44.9726V35.5753V13.4247V4.0274C0.5 3.14549 1.06263 2.2756 2.12201 1.60142C3.17546 0.931013 4.66132 0.5 6.32847 0.5H12.4088H19.8615L22.2236 1.91726L24.0123 3.22049L33.6774 11.382L33.8125 11.4961L33.9894 11.4999L57.4614 11.9993C58.2768 12.1065 59.2329 12.0777 60.1877 12.0488C60.3627 12.0435 60.5376 12.0382 60.7116 12.0338C61.8754 12.0041 63.033 12.0088 64.0802 12.245C65.1154 12.4784 66.016 12.9323 66.6937 13.7874C67.3734 14.645 67.8722 15.9607 67.9955 18.0002L67.0045 34.8748C66.9907 35.1095 67.1412 35.3159 67.3563 35.382Z" stroke="#FFAA2B" stroke-linecap="round"/>
</svg>
