<svg width="77" height="86" viewBox="0 0 77 86" fill="none" xmlns="http://www.w3.org/2000/svg">
<path d="M8 30.8926V77.3926C8 80.7063 10.6863 83.3926 14 83.3926H55.5" stroke="#FFAA2B" stroke-linecap="round"/>
<path d="M1 35.9937L38 7.99365L75.8018 35.9937" stroke="#FFAA2B" stroke-linecap="round" stroke-linejoin="round"/>
<circle cx="37.5" cy="50.8926" r="17" stroke="#FFAA2B"/>
<path fill-rule="evenodd" clip-rule="evenodd" d="M37.5 62.3926C43.8513 62.3926 49 57.2439 49 50.8926C49 44.5413 43.8513 39.3926 37.5 39.3926C31.1487 39.3926 26 44.5413 26 50.8926C26 57.2439 31.1487 62.3926 37.5 62.3926ZM43.8433 47.2561C44.0441 47.0665 44.0531 46.75 43.8635 46.5493C43.6739 46.3485 43.3574 46.3395 43.1567 46.5291L35.0294 54.2048L31.8433 51.1957C31.6426 51.0061 31.3261 51.0152 31.1365 51.2159C30.9469 51.4167 30.9559 51.7331 31.1567 51.9228L35.0294 55.5803L43.8433 47.2561Z" fill="#FFAA2B"/>
<path d="M52.364 60.0997L68.2396 75.9753C69.8017 77.5374 69.8017 80.0701 68.2396 81.6322C66.6775 83.1943 64.1449 83.1943 62.5828 81.6322L46.7072 65.7565L52.364 60.0997Z" stroke="#FFAA2B"/>
<line x1="67.5" y1="29.8926" x2="67.5" y2="67.8926" stroke="#FFAA2B" stroke-linecap="round"/>
</svg>
