<svg width="54" height="43" viewBox="0 0 54 43" fill="none" xmlns="http://www.w3.org/2000/svg">
<path d="M36.4659 41.9961L36.4338 42.0029L36.371 42.0064L36.0838 42.0222C35.8358 42.0359 35.4805 42.0554 35.0509 42.0789C34.1917 42.1257 33.0358 42.1882 31.8487 42.2507C29.4626 42.3763 26.9828 42.5 26.5 42.5H26.4935C25.5153 42.5 23.1209 42.5 17.0737 41.5994C14.0429 41.1481 11.9307 40.7257 10.6428 40.4307C10.0065 40.2849 9.57464 40.1709 9.33406 40.1007C9.33142 40.0986 9.32929 40.097 9.32776 40.0959L9.32681 40.0951C9.30562 40.0792 9.28656 40.0672 9.27471 40.06C9.25035 40.0453 9.22568 40.0323 9.20631 40.0225C9.13044 39.9841 9.00731 39.9296 8.8623 39.8674C8.60843 39.7585 8.24304 39.6072 7.82575 39.4343C7.7538 39.4046 7.68032 39.3741 7.60559 39.3432C6.58064 38.9184 5.31863 38.3918 4.51304 38.0039C4.18509 37.846 3.89036 37.6761 3.57924 37.4967C3.37291 37.3777 3.15937 37.2546 2.92417 37.1281C2.42491 36.8596 1.78885 36.5111 1.27965 36.2113C1.02364 36.0605 0.808473 35.9273 0.660738 35.8253C0.635826 35.8081 0.614219 35.7927 0.595669 35.7791C0.590256 35.7407 0.584425 35.703 0.579115 35.6688C0.5771 35.6558 0.575159 35.6432 0.573345 35.6313C0.553287 35.4998 0.530975 35.3478 0.516186 35.1784C0.486995 34.844 0.489559 34.4641 0.589733 34.0985C0.598264 34.0899 0.616253 34.0739 0.650019 34.0518C0.733473 33.9971 0.86759 33.9357 1.05872 33.875C1.43887 33.7542 1.95307 33.6644 2.50797 33.6031C3.62495 33.4798 4.77825 33.4847 5.10324 33.5271C5.18807 33.5382 5.42959 33.5432 5.74184 33.5477C6.07748 33.5525 6.54637 33.5566 7.12937 33.56C8.29571 33.5669 9.92311 33.5713 11.864 33.5737C15.7459 33.5786 20.8844 33.5758 26.1023 33.5699C32.4482 33.5627 38.9106 33.5508 43.3743 33.5427C46.2519 33.5374 48.2989 33.5337 48.9482 33.5337C50.6188 33.5337 51.8475 33.5344 52.6621 33.6238C53.0749 33.669 53.3238 33.7321 53.4574 33.7972C53.4761 33.8064 53.4899 33.8143 53.4999 33.8207V35.577C53.4818 35.6019 53.4499 35.6399 53.398 35.6907C53.2687 35.817 53.0665 35.9738 52.7965 36.1548C52.2602 36.5144 51.5248 36.9245 50.7488 37.3253C49.2004 38.1249 47.5468 38.8582 47.1429 39.0297C46.4593 39.3199 45.7669 39.5934 45.1447 39.8096C43.8691 40.2529 41.6914 40.8021 39.8122 41.244C38.8769 41.464 38.0226 41.6558 37.4021 41.7926C37.0919 41.861 36.8402 41.9156 36.6662 41.9531L36.4659 41.9961Z" stroke="#FFAA2B" stroke-linecap="round"/>
<path d="M50.488 30H3.51986C0.251312 17.0461 13.4436 4.97508 13.9712 5.39396C14.4987 5.81285 19.7008 13.8301 20.0597 15.1424C20.4185 16.4546 20.9512 0.99997 21.8031 1.00001L31.7155 1.00002C32.5673 1.0001 32.5968 12.0391 32.6147 14.6754C32.6325 17.3118 37.5801 5.53743 40.3843 5.96936C43.1886 6.40129 53.3821 17.4853 50.488 30Z" stroke="#FFAA2B"/>
</svg>
