<svg width="90" height="91" viewBox="0 0 90 91" fill="none" xmlns="http://www.w3.org/2000/svg">
<path d="M77.2177 65.2265L19.062 6.42458C15.5528 2.87638 9.86324 2.87638 6.35403 6.42458V6.42458C2.84483 9.97277 2.84483 15.7255 6.35403 19.2737L64.5098 78.0757" stroke="#FFAA2B"/>
<path d="M77.1191 65.083L83.6245 84.5535L64.368 77.9758" stroke="#FFAA2B"/>
<path d="M6.35403 6.42458C9.86324 2.87638 15.5528 2.87638 19.062 6.42458L24.0356 11.4535L11.3277 24.3026L6.35403 19.2737C2.84483 15.7255 2.84483 9.97277 6.35403 6.42458V6.42458Z" fill="#FFAA2B"/>
<line y1="-0.5" x2="17.8902" y2="-0.5" transform="matrix(0.703189 -0.711003 0.703189 0.711003 15.2761 28.1655)" stroke="#FFAA2B"/>
<line x1="0.5" y1="-0.5" x2="7.16725" y2="-0.5" transform="matrix(0.703189 0.711003 -0.703189 0.711003 21.5662 21.8057)" stroke="#FFAA2B" stroke-linecap="round"/>
<line x1="0.5" y1="-0.5" x2="57.0044" y2="-0.5" transform="matrix(0.703189 0.711003 -0.703189 0.711003 30.552 30.8916)" stroke="#FFAA2B" stroke-linecap="round"/>
<path d="M43.5816 31.5054L69.4696 5.32976C71.7997 2.97371 75.5777 2.9737 77.9078 5.32976L82.1775 9.64688C84.5077 12.0029 84.5077 15.8229 82.1775 18.1789L56.5752 44.0657M43.5816 57.2037L17.8258 83.2457C15.4956 85.6018 11.7177 85.6018 9.38749 83.2457L5.11782 78.9286C2.78765 76.5726 2.78765 72.7526 5.11782 70.3966L31.1593 44.0657" stroke="#FFAA2B"/>
<line x1="0.5" y1="-0.5" x2="10.3431" y2="-0.5" transform="matrix(-0.703189 -0.711003 0.703189 -0.711003 65.7249 34.0317)" stroke="#FFAA2B" stroke-linecap="round" stroke-linejoin="round"/>
<line x1="0.5" y1="-0.5" x2="10.3431" y2="-0.5" transform="matrix(-0.703189 -0.711003 0.703189 -0.711003 80.9744 18.6128)" stroke="#FFAA2B" stroke-linecap="round" stroke-linejoin="round"/>
<line x1="0.5" y1="-0.5" x2="4.01797" y2="-0.5" transform="matrix(-0.703189 -0.711003 0.703189 -0.711003 70.8079 28.8921)" stroke="#FFAA2B" stroke-linecap="round" stroke-linejoin="round"/>
<line x1="0.5" y1="-0.5" x2="4.01797" y2="-0.5" transform="matrix(-0.703189 -0.711003 0.703189 -0.711003 60.6416 39.1714)" stroke="#FFAA2B" stroke-linecap="round" stroke-linejoin="round"/>
<line x1="0.5" y1="-0.5" x2="4.01797" y2="-0.5" transform="matrix(-0.703189 -0.711003 0.703189 -0.711003 75.8911 23.7524)" stroke="#FFAA2B" stroke-linecap="round" stroke-linejoin="round"/>
<line x1="0.5" y1="-0.5" x2="10.3431" y2="-0.5" transform="matrix(-0.703189 -0.711003 0.703189 -0.711003 34.2742 66.501)" stroke="#FFAA2B" stroke-linecap="round" stroke-linejoin="round"/>
<line x1="0.5" y1="-0.5" x2="10.3431" y2="-0.5" transform="matrix(-0.703189 -0.711003 0.703189 -0.711003 18.408 81.7075)" stroke="#FFAA2B" stroke-linecap="round" stroke-linejoin="round"/>
<line x1="0.5" y1="-0.5" x2="4.01797" y2="-0.5" transform="matrix(-0.703189 -0.711003 0.703189 -0.711003 39.3574 61.3613)" stroke="#FFAA2B" stroke-linecap="round" stroke-linejoin="round"/>
<line x1="0.5" y1="-0.5" x2="4.01797" y2="-0.5" transform="matrix(-0.703189 -0.711003 0.703189 -0.711003 23.4912 76.5679)" stroke="#FFAA2B" stroke-linecap="round" stroke-linejoin="round"/>
<line x1="0.5" y1="-0.5" x2="4.01797" y2="-0.5" transform="matrix(-0.703189 -0.711003 0.703189 -0.711003 29.1909 71.6406)" stroke="#FFAA2B" stroke-linecap="round" stroke-linejoin="round"/>
</svg>
